<svg id="Layer_1" data-name="Layer 1" xmlns="http://www.w3.org/2000/svg" xmlns:xlink="http://www.w3.org/1999/xlink" viewBox="0 0 4499.99 2500"><defs><style>.cls-1{fill:none;}.cls-2{clip-path:url(#clip-path);}.cls-3{fill:#aed3f0;}.cls-4{fill:#c3dcf3;}.cls-11,.cls-12,.cls-13,.cls-14,.cls-15,.cls-16,.cls-17,.cls-18,.cls-19,.cls-20,.cls-22,.cls-23,.cls-24,.cls-25,.cls-26,.cls-27,.cls-28,.cls-33,.cls-34,.cls-35,.cls-36,.cls-37,.cls-38,.cls-39,.cls-4,.cls-41,.cls-42,.cls-43,.cls-44,.cls-45,.cls-46,.cls-47,.cls-48,.cls-49,.cls-50,.cls-51,.cls-52,.cls-6,.cls-7,.cls-8,.cls-9{fill-rule:evenodd;}.cls-5{clip-path:url(#clip-path-2);}.cls-6{fill-opacity:0.1;}.cls-7{fill:#e8f6ff;}.cls-10,.cls-12,.cls-13,.cls-8{fill:#fff;}.cls-9{fill:#bbe3f8;}.cls-11{fill:#bae4ff;}.cls-12{fill-opacity:0.45;}.cls-13{fill-opacity:0.55;}.cls-14{fill-opacity:0.11;}.cls-15{fill-opacity:0.06;}.cls-16{fill:#4067b1;}.cls-17{fill:#2d4584;}.cls-18,.cls-29{fill:#8ebbe5;}.cls-19,.cls-21{fill:#d9effb;}.cls-20{fill:#adddf6;}.cls-22{fill:#ebd063;}.cls-23,.cls-32{fill:#987e14;}.cls-24{fill:#64530d;}.cls-25{fill:#bd9d19;}.cls-26{fill:#c3a119;}.cls-27{fill:#f9f2d4;}.cls-28,.cls-30{fill:#ec6198;}.cls-31,.cls-47{fill:#44ae9e;}.cls-33{fill:#e4c02e;}.cls-34{fill:url(#linear-gradient);}.cls-35{fill:url(#linear-gradient-2);}.cls-36{fill:url(#linear-gradient-3);}.cls-37{fill:url(#linear-gradient-4);}.cls-38{fill:url(#linear-gradient-5);}.cls-39{fill:url(#linear-gradient-6);}.cls-40{fill-opacity:0.13;}.cls-41{fill-opacity:0.16;}.cls-42{fill:#05837c;}.cls-43{fill:#d5efeb;}.cls-44{fill:#b1e1da;}.cls-45{fill:#3fa092;}.cls-46{fill:#35887c;}.cls-48{fill:#66c3b5;}.cls-49{fill-opacity:0.09;}.cls-50{fill:#a0506f;}.cls-51{fill:#ffdfec;}.cls-52{fill:#ffc2db;}</style><clipPath id="clip-path"><rect class="cls-1" width="4499.99" height="2500"/></clipPath><clipPath id="clip-path-2"><rect class="cls-1" x="-0.01" width="4499.99" height="2500"/></clipPath><linearGradient id="linear-gradient" x1="1302.49" y1="1796.08" x2="1303.67" y2="1796.08" gradientTransform="matrix(-57.71, -100.03, -100.03, 57.71, 255356.01, 26799.21)" gradientUnits="userSpaceOnUse"><stop offset="0" stop-color="#fff" stop-opacity="0"/><stop offset="1" stop-color="#fff"/></linearGradient><linearGradient id="linear-gradient-2" x1="1302.46" y1="1795.9" x2="1303.64" y2="1795.9" gradientTransform="matrix(-57.71, -100.03, -100.03, 57.71, 255461.49, 26759.98)" xlink:href="#linear-gradient"/><linearGradient id="linear-gradient-3" x1="1302.43" y1="1795.72" x2="1303.62" y2="1795.72" gradientTransform="matrix(-57.71, -100.03, -100.03, 57.71, 255566.96, 26720.75)" xlink:href="#linear-gradient"/><linearGradient id="linear-gradient-4" x1="1302.4" y1="1795.55" x2="1303.59" y2="1795.55" gradientTransform="matrix(-57.71, -100.03, -100.03, 57.71, 255673.83, 26682.28)" xlink:href="#linear-gradient"/><linearGradient id="linear-gradient-5" x1="1302.37" y1="1795.37" x2="1303.55" y2="1795.37" gradientTransform="matrix(-57.71, -100.03, -100.03, 57.71, 255780.47, 26643.87)" xlink:href="#linear-gradient"/><linearGradient id="linear-gradient-6" x1="1302.34" y1="1795.2" x2="1303.53" y2="1795.2" gradientTransform="matrix(-57.71, -100.03, -100.03, 57.71, 255884.27, 26605.04)" xlink:href="#linear-gradient"/></defs><g class="cls-2"><rect class="cls-3" width="4499.99" height="2500"/><path class="cls-4" d="M0,1777.12V2500h2622.7a710.4,710.4,0,0,1-91.58-91.06c-49.52-59.37-89.93-127.6-147-180.53-168.38-156-405.18-229.47-623.94-273.63C1210.58,1843.85,513.9,2028.34,0,1777.12Zm4500-1018V0H2500.2c200.19,111.1,392.91,237.16,579.52,362.49,121.21,81.41,213.79,189.19,350.82,248.42C3735.3,742.62,4141.38,820.93,4500,759.12Z"/><rect class="cls-1" x="-0.01" width="4499.99" height="2500"/><g class="cls-5"><path class="cls-6" d="M2078.61,953.4l-483.51,9.87L766.26,1501.05l1409.07,882.71,1074.1-696.91Z"/><path class="cls-7" d="M2082.26,941.63l-483.5,9.88L769.91,1489.29,2179,2372l1074.1-696.9Z"/><path class="cls-8" d="M1837.1,1977.18c-9.62-5.92-9.33-16,.66-22.59l747.36-490c10-6.55,25.9-7.06,35.53-1.14s9.34,16-.65,22.58L1872.64,1976C1862.65,1982.58,1846.73,1983.1,1837.1,1977.18Z"/><path class="cls-8" d="M2059.61,2116.56c-9.63-5.91-9.34-16,.65-22.58l747.37-490c10-6.54,25.9-7,35.52-1.14s9.34,16-.64,22.58l-747.37,490.05C2085.15,2122,2069.23,2122.48,2059.61,2116.56Z"/><polygon class="cls-9" points="1994.15 1110.9 1884.92 1182.52 2362.74 1476.24 2471.97 1404.62 1994.15 1110.9"/><polygon class="cls-9" points="1981.89 1305.48 1872.66 1377.11 2203.64 1580.56 2312.87 1508.93 1981.89 1305.48"/><polygon class="cls-9" points="1942.95 1483.66 1833.72 1555.29 2044.54 1684.88 2153.77 1613.26 1942.95 1483.66"/><polygon class="cls-9" points="1647.2 1503.98 1537.97 1575.61 1885.44 1789.2 1994.68 1717.58 1647.2 1503.98"/><polygon class="cls-9" points="1334.96 1514.16 1225.73 1585.79 1726.35 1893.52 1835.58 1821.9 1334.96 1514.16"/><ellipse class="cls-10" cx="2648.41" cy="1582.3" rx="80.75" ry="51.1" transform="matrix(1, -0.07, 0.07, 1, -108.01, 196.7)"/><ellipse class="cls-10" cx="2870.93" cy="1721.68" rx="80.75" ry="51.1" transform="translate(-117.55 213.24) rotate(-4.17)"/><ellipse class="cls-10" cx="2489.26" cy="1686.66" rx="80.75" ry="51.1" transform="translate(-116.02 185.4) rotate(-4.17)"/><ellipse class="cls-10" cx="2711.74" cy="1826.06" rx="80.75" ry="51.1" transform="translate(-125.56 201.94) rotate(-4.17)"/><ellipse class="cls-10" cx="2330.07" cy="1791.04" rx="80.75" ry="51.1" transform="translate(-124.02 174.11) rotate(-4.17)"/><ellipse class="cls-10" cx="2552.59" cy="1930.41" rx="80.75" ry="51.1" transform="translate(-133.57 190.65) rotate(-4.17)"/><ellipse class="cls-10" cx="2166.79" cy="1898.1" rx="80.75" ry="51.1" transform="translate(-132.24 162.52) rotate(-4.17)"/><ellipse class="cls-10" cx="2389.31" cy="2037.48" rx="80.75" ry="51.1" transform="translate(-141.78 179.07) rotate(-4.17)"/><ellipse class="cls-10" cx="2003.51" cy="2005.16" rx="80.75" ry="51.1" transform="translate(-140.45 150.94) rotate(-4.17)"/><ellipse class="cls-10" cx="2226.03" cy="2144.54" rx="80.75" ry="51.1" transform="translate(-149.99 167.48) rotate(-4.17)"/><polygon class="cls-8" points="1009.45 1490.07 1480.65 1184.33 1505.9 1200.15 1034.69 1505.88 1009.45 1490.07"/><polygon class="cls-8" points="1068.71 1527.19 1539.92 1221.46 1565.17 1237.28 1093.96 1543.01 1068.71 1527.19"/><path class="cls-11" d="M1598.76,951.51l254.33,172.1,240.1-181Z"/><path class="cls-7" d="M1598.76,951.51l233.62,154.62,260.81-163.49Z"/><path class="cls-6" d="M2374.34,877.25,1899,788,978.24,1144.89l1200,1152.45,1193.2-462.5Z"/><path class="cls-7" d="M2380.31,866.48,1905,777.23,984.2,1134.12l1200,1152.45,1193.21-462.5Z"/><path class="cls-8" d="M1929.79,1830.11c-8.22-7.77-5.88-17.61,5.23-22l831.28-326.84c11.1-4.36,26.79-1.61,35,6.15s5.88,17.61-5.23,22L1964.8,1836.26C1953.69,1840.62,1938,1837.87,1929.79,1830.11Z"/><path class="cls-8" d="M2119.28,2012.08c-8.22-7.76-5.88-17.6,5.23-22l831.28-326.84c11.1-4.37,26.79-1.61,35,6.15s5.88,17.61-5.23,22l-831.28,326.84C2143.18,2022.6,2127.5,2019.85,2119.28,2012.08Z"/><polygon class="cls-9" points="2259.64 1014.16 2138.14 1061.93 2546.21 1447.24 2667.7 1399.47 2259.64 1014.16"/><polygon class="cls-9" points="2208.08 1202.15 2086.59 1249.92 2369.24 1516.81 2490.74 1469.04 2208.08 1202.15"/><polygon class="cls-9" points="2133.74 1368.62 2012.24 1416.39 2192.29 1586.39 2313.78 1538.62 2133.74 1368.62"/><polygon class="cls-9" points="1840.07 1328 1718.58 1375.77 2015.32 1655.97 2136.82 1608.2 1840.07 1328"/><polygon class="cls-9" points="1804.69 1531.26 1683.19 1579.03 1838.36 1725.54 1959.86 1677.77 1804.69 1531.26"/><ellipse class="cls-10" cx="2804.32" cy="1609.52" rx="51.1" ry="80.76" transform="translate(834.17 4173.36) rotate(-82.31)"/><ellipse class="cls-10" cx="2993.82" cy="1791.49" rx="51.1" ry="80.76" transform="translate(817.99 4518.79) rotate(-82.31)"/><ellipse class="cls-10" cx="2627.3" cy="1679.12" rx="51.1" ry="80.76" transform="matrix(0.13, -0.99, 0.99, 0.13, 611.85, 4058.22)"/><ellipse class="cls-10" cx="2816.76" cy="1861.11" rx="51.1" ry="80.76" transform="translate(595.62 4403.63) rotate(-82.31)"/><ellipse class="cls-10" cx="2450.24" cy="1748.74" rx="51.1" ry="80.76" transform="translate(389.48 3943.05) rotate(-82.31)"/><ellipse class="cls-10" cx="2639.74" cy="1930.71" rx="51.1" ry="80.76" transform="translate(373.3 4288.49) rotate(-82.31)"/><ellipse class="cls-10" cx="2268.62" cy="1820.14" rx="51.1" ry="80.76" transform="translate(161.4 3824.93) rotate(-82.31)"/><ellipse class="cls-10" cx="2458.13" cy="2002.12" rx="51.1" ry="80.76" transform="translate(145.21 4170.36) rotate(-82.31)"/><ellipse class="cls-10" cx="2087.01" cy="1891.55" rx="51.1" ry="80.76" transform="translate(-66.69 3706.8) rotate(-82.31)"/><ellipse class="cls-10" cx="2276.51" cy="2073.52" rx="51.1" ry="80.76" transform="translate(-82.87 4052.24) rotate(-82.31)"/><polygon class="cls-8" points="1218.55 1183.89 1742.01 981 1763.51 1001.64 1240.05 1204.54 1218.55 1183.89"/><polygon class="cls-8" points="1269.02 1232.37 1792.48 1029.47 1813.98 1050.12 1290.53 1253.02 1269.02 1232.37"/><path class="cls-11" d="M1905,777.23l214,220.52,271.84-128Z"/><path class="cls-7" d="M1905,777.23,2102.24,976.4,2390.8,869.71Z"/><polygon class="cls-12" points="2097.4 113.31 3878.95 -559.37 3889.32 -549.39 2107.77 123.3 2097.4 113.31"/><polygon class="cls-12" points="2193.66 205.96 3975.21 -466.73 3985.58 -456.74 2204.03 215.94 2193.66 205.96"/><polygon class="cls-12" points="2289.92 298.6 4071.47 -374.08 4081.84 -364.09 2300.29 308.59 2289.92 298.6"/><polygon class="cls-12" points="2386.18 391.26 4167.73 -281.42 4178.1 -271.44 2396.55 401.25 2386.18 391.26"/><polygon class="cls-12" points="2482.44 483.9 4263.99 -188.78 4274.36 -178.79 2492.81 493.89 2482.44 483.9"/><polygon class="cls-12" points="2578.7 576.55 4360.25 -96.13 4370.62 -86.14 2589.07 586.54 2578.7 576.55"/><polygon class="cls-12" points="2674.96 669.2 4456.51 -3.48 4466.88 6.5 2685.33 679.18 2674.96 669.2"/><polygon class="cls-13" points="2109.85 -32.8 2119.74 -36.54 2924.15 737.68 2914.26 741.41 2109.85 -32.8"/><polygon class="cls-13" points="2226.16 -76.72 2236.05 -80.45 3040.46 693.77 3030.57 697.5 2226.16 -76.72"/><polygon class="cls-13" points="2342.46 -120.63 2352.35 -124.37 3156.77 649.85 3146.88 653.59 2342.46 -120.63"/><polygon class="cls-13" points="2458.77 -164.55 2468.66 -168.28 3273.07 605.94 3263.18 609.67 2458.77 -164.55"/><polygon class="cls-13" points="2575.07 -208.46 2584.96 -212.19 3389.38 562.02 3379.49 565.76 2575.07 -208.46"/><polygon class="cls-13" points="2691.38 -252.37 2701.27 -256.11 3505.68 518.11 3495.79 521.85 2691.38 -252.37"/><polygon class="cls-13" points="2807.69 -296.29 2817.58 -300.02 3621.99 474.2 3612.1 477.93 2807.69 -296.29"/><polygon class="cls-13" points="2923.99 -340.2 2933.88 -343.94 3738.29 430.28 3728.4 434.02 2923.99 -340.2"/><polygon class="cls-13" points="3040.3 -384.12 3050.19 -387.85 3854.6 386.37 3844.71 390.1 3040.3 -384.12"/><polygon class="cls-13" points="3156.6 -428.04 3166.49 -431.77 3970.9 342.45 3961.01 346.19 3156.6 -428.04"/><polygon class="cls-13" points="3272.91 -471.95 3282.8 -475.68 4087.22 298.54 4077.33 302.27 3272.91 -471.95"/><polygon class="cls-13" points="3389.22 -515.87 3399.11 -519.6 4203.52 254.62 4193.63 258.36 3389.22 -515.87"/><polygon class="cls-13" points="3505.52 -559.78 3515.41 -563.51 4319.82 210.71 4309.93 214.44 3505.52 -559.78"/><polygon class="cls-13" points="3621.82 -603.7 3631.71 -607.43 4436.13 166.79 4426.23 170.53 3621.82 -603.7"/><path class="cls-14" d="M3825.13,468.64c-17.46-16.76-47.53-24.39-67.09-17L1603,1263.05c-19.56,7.37-21.26,27-3.79,43.72l1225.21,1175.7c17.47,16.76,47.54,24.39,67.1,17l2155.09-811.44c19.56-7.36,21.25-27,3.79-43.71Z"/><path class="cls-14" d="M3825.13,468.64c-17.46-16.76-47.53-24.39-67.09-17L1603,1263.05c-19.56,7.37-21.26,27-3.79,43.72l1225.21,1175.7c17.47,16.76,47.54,24.39,67.1,17l2155.09-811.44c19.56-7.36,21.25-27,3.79-43.71Z"/><path class="cls-15" d="M1877.36,747-13.51,1570.89l-78.75-272.13,555.07-358.4Z"/><path class="cls-15" d="M1877.36,747,256.63,1383.51l69.38-295,136.8-148.14Z"/><path class="cls-16" d="M3862.87,402.39c-17.46-16.75-47.53-24.39-67.08-17l-2150.74,750.9c-19.56,7.36-25.62,87.5-8.15,104.26l1225.22,1175.7c17.46,16.76,47.53,24.4,67.1,17l2155.09-811.44c19.55-7.36,33.92-88.28,16.45-105Z"/><path class="cls-17" d="M3873.69,336.64c-17.47-16.76-47.54-24.4-67.09-17L1651.51,1131c-19.57,7.37-21.26,27-3.8,43.72L2872.93,2350.47c17.46,16.76,47.53,24.39,67.1,17l2155.09-811.44c19.55-7.36,21.25-27,3.78-43.71Z"/><path class="cls-18" d="M3864.38,402.13c-16.2-15.55-43.36-22.92-60.61-16.42L1782.44,1146.78c-17.24,6.49-18.08,24.4-1.87,40l1137,1091.08c16.21,15.56,43.38,22.92,60.63,16.42l2021.32-761.07c17.25-6.49,18.08-24.39,1.87-39.94Z"/><path class="cls-19" d="M2777,949.83c-29.79-29.32-82.74-42.06-118.19-28.4L2004.26,1173.6c-35.45,13.65-40,48.55-10.23,77.87L2348,1599.9c29.79,29.32,82.74,42.06,118.19,28.4l654.54-252.16c35.45-13.66,40-48.56,10.23-77.88Z"/><polygon class="cls-8" points="2232.99 1344.88 2341.72 1299.68 2423.53 1381.9 2314.8 1427.1 2232.99 1344.88"/><polygon class="cls-8" points="2353.79 1466.27 2817.74 1273.39 2899.54 1355.61 2435.59 1548.49 2353.79 1466.27"/><polygon class="cls-8" points="2108.27 1219.53 2217 1174.33 2298.8 1256.54 2190.07 1301.75 2108.27 1219.53"/><polygon class="cls-8" points="2472.58 1245.28 2581.31 1200.08 2663.11 1282.3 2554.38 1327.5 2472.58 1245.28"/><polygon class="cls-8" points="2477.41 1066.07 2586.14 1020.86 2667.95 1103.08 2559.22 1148.28 2477.41 1066.07"/><polygon class="cls-8" points="2352.03 1295.4 2460.76 1250.2 2542.56 1332.41 2433.83 1377.62 2352.03 1295.4"/><polygon class="cls-8" points="2227.31 1170.04 2336.03 1124.84 2417.84 1207.06 2309.11 1252.26 2227.31 1170.04"/><polygon class="cls-8" points="2591.61 1195.8 2700.34 1150.59 2782.14 1232.81 2673.42 1278.01 2591.61 1195.8"/><polygon class="cls-8" points="2596.45 1016.58 2705.18 971.38 2786.98 1053.6 2678.25 1098.8 2596.45 1016.58"/><path class="cls-20" d="M1977.61,1196.52c-7.38,16.13-2.2,36.63,16.43,55L2348,1599.92c29.8,29.32,82.76,42,118.19,28.39l654.54-252.17c20.64-8,30.81-23.1,29.84-40.15-4.43,9.68-13.38,17.78-26.66,22.9l-654.54,252.17c-35.46,13.65-88.42.93-118.2-28.4l-353.94-348.43C1984.77,1222,1978.3,1208.76,1977.61,1196.52Z"/><path class="cls-16" d="M3277.63,730.93a7.18,7.18,0,0,0-6.94-1.63L2890.78,882.65c-2,.82-2.2,2.87-.4,4.59l6.54,6.24a7.17,7.17,0,0,0,6.92,1.64l379.92-153.36c2-.82,2.21-2.87.4-4.59Z"/><path class="cls-16" d="M3804.39,512.1a7.16,7.16,0,0,0-6.93-1.63L3417.55,663.83c-2,.81-2.2,2.87-.4,4.59l6.54,6.23a7.17,7.17,0,0,0,6.92,1.64l379.92-153.36c2-.81,2.21-2.87.4-4.59Z"/><path class="cls-16" d="M3307.2,759.14a7.19,7.19,0,0,0-6.93-1.64L2920.35,910.86c-2,.82-2.2,2.87-.39,4.59l6.53,6.24a7.17,7.17,0,0,0,6.93,1.63L3313.33,770c2-.82,2.21-2.88.41-4.6Z"/><path class="cls-16" d="M3834,540.31a7.16,7.16,0,0,0-6.93-1.63L3447.12,692c-2,.82-2.2,2.87-.39,4.59l6.53,6.24a7.16,7.16,0,0,0,6.93,1.63L3840.1,551.14c2-.82,2.21-2.87.41-4.59Z"/><path class="cls-16" d="M3336.77,787.34a7.18,7.18,0,0,0-6.93-1.63L2949.92,939.07c-2,.81-2.19,2.87-.39,4.59l6.54,6.23a7.15,7.15,0,0,0,6.92,1.64l379.92-153.36c2-.81,2.2-2.87.4-4.59Z"/><path class="cls-16" d="M3863.54,568.52a7.16,7.16,0,0,0-6.93-1.63L3476.69,720.24c-2,.82-2.2,2.87-.39,4.59l6.54,6.24a7.17,7.17,0,0,0,6.92,1.64l379.92-153.36c2-.82,2.2-2.87.4-4.59Z"/><path class="cls-16" d="M3231.34,870.05a7.15,7.15,0,0,0-6.92-1.64L2979.5,967.27c-2,.82-2.2,2.87-.4,4.59l6.54,6.24a7.17,7.17,0,0,0,6.92,1.64l244.92-98.87c2-.81,2.2-2.87.4-4.59Z"/><path class="cls-16" d="M3758.11,651.22a7.14,7.14,0,0,0-6.92-1.63l-244.92,98.86c-2,.82-2.2,2.87-.4,4.59l6.54,6.24a7.14,7.14,0,0,0,6.92,1.63l244.92-98.86c2-.82,2.2-2.87.4-4.59Z"/><path class="cls-16" d="M3276.94,1016.85a39.71,39.71,0,0,0,12.49-65.51l-5.5-5.25a39.44,39.44,0,0,0-42-8l-164.31,66.32a39.71,39.71,0,0,0-12.49,65.51l5.5,5.24a39.43,39.43,0,0,0,42,8Z"/><path class="cls-16" d="M3803.71,798a39.71,39.71,0,0,0,12.49-65.51l-5.5-5.24a39.42,39.42,0,0,0-42-8l-164.32,66.32a39.71,39.71,0,0,0-12.48,65.51l5.49,5.24a39.44,39.44,0,0,0,42,8Z"/><path class="cls-19" d="M1777,1182.91c.62-.27,1.26-.54,1.91-.79L3800.21,421.05c17.24-6.49,44.39.87,60.61,16.43l1137,1091.08a50.52,50.52,0,0,1,3.6,3.81c15.38-7,15.56-24.19,0-39.15l-1137-1091.08c-16.22-15.56-43.37-22.92-60.61-16.43L1782.44,1146.79C1766.59,1152.76,1764.6,1168.35,1777,1182.91Z"/><path class="cls-21" d="M3502.24,1363.86a42.38,42.38,0,0,0,4.52,7.52,40.38,40.38,0,0,0,4.22,4.74c1,2.72,1.76,5.35,2.39,7.72.48,1.82.93,3.65,1.38,5.48.57,2.33,1.16,4.74,1.82,7.1a75.53,75.53,0,0,0,3.74,10.69,44.35,44.35,0,0,0,6.22,10.28,36.32,36.32,0,0,0,4.39,4.48,34.76,34.76,0,0,0,5.44,3.77,33.39,33.39,0,0,0,4.28,2c0,.15,0,.29-.07.44a37.36,37.36,0,0,0,.25,12.22,46,46,0,0,0,4.23,12.42,59.5,59.5,0,0,0,3.51,6c1.61,2.44,3.45,4.76,5.34,7.12,7,8.78,15.23,17.31,23.14,25.55q3.12,3.25,6.21,6.5c4.57,4.81,10.5,11.18,15.89,17.74a128.42,128.42,0,0,1,13,18.59l0-.15c4.46,8.14,7.63,16.66,10.69,24.9l1.41,3.76c1.51,4,3.56,9.31,6,14.52a94.52,94.52,0,0,0,8.05,14,1.07,1.07,0,0,0,.91.35,45.28,45.28,0,0,0,13.42.47c1.66,2.26,3.36,4.46,5.08,6.58,1.89,2.32,3.93,4.69,6.07,7,1.14,1.24,2.2,2.34,3.24,3.39s2.24,2.15,3.82,3.57a.67.67,0,0,0,.14.09l3.08.24c9.72.29,19.23.12,28.31-.48,13.55,11.58,28.14,24.17,44.86,38.73,15.14,13.19,30.49,26.63,45.31,39.63l13.27,11.63,6.61,5.79,4.7,4.1h0l4.76,4.18c1.46,1.29,2.9,2.57,4.33,3.86,3.78,3.38,7.68,6.87,11.8,10.17l.2.1a91.69,91.69,0,0,0-7.94,8.16c-1.1,1.26-2.3,2.71-3.77,4.57-.36.46-.76.9-1.16,1.35l-.64.73a28.88,28.88,0,0,0-2.23,2.93,7.32,7.32,0,0,0-1.26,2.93,2.37,2.37,0,0,0,1,2.38,5.5,5.5,0,0,0,2.9.82,17.86,17.86,0,0,0,4.56-.52,44.83,44.83,0,0,0,5.15-1.5c.53-.18,1.07-.37,1.59-.57,1.73-.64,3.5-1.38,4.93-2l1.34-.54-.23,0,.36-.12c1.1-.41,2.18-.86,3.25-1.33,1.39-.61,2.76-1.25,4.1-1.91,2.62-1.29,5.32-2.76,8-4.35a121.64,121.64,0,0,0,14-9.85.39.39,0,0,0,.14-.48.54.54,0,0,0-.12-.24l-27.94-33.12,0,0-82.89-98.27,1.25-.51,1.13-.48c12.32,10.55,25.56,22,40.5,35,15.14,13.19,30.49,26.64,45.32,39.64l13.26,11.62,6.61,5.79,4.7,4.11h0l4.76,4.18q2.17,1.92,4.32,3.86c3.78,3.38,7.68,6.87,11.81,10.16a.61.61,0,0,0,.2.1,93.15,93.15,0,0,0-7.95,8.16c-1.1,1.26-2.3,2.72-3.77,4.57-.35.46-.75.91-1.15,1.35l-.64.74a26.69,26.69,0,0,0-2.24,2.93,7.2,7.2,0,0,0-1.26,2.93,2.41,2.41,0,0,0,1,2.38,5.6,5.6,0,0,0,2.91.82,18,18,0,0,0,4.56-.52,47.48,47.48,0,0,0,5.14-1.5l1.6-.57c1.73-.64,3.5-1.38,4.92-2l.18-.07,1.16-.48-.23,0,.36-.13c1.1-.41,2.18-.86,3.25-1.32,1.39-.61,2.76-1.26,4.11-1.91,2.61-1.3,5.31-2.76,8-4.35a120.78,120.78,0,0,0,14-9.85.38.38,0,0,0,.14-.48.48.48,0,0,0-.12-.25l-27.93-33.11,0,0-94.5-112a44.49,44.49,0,0,0,8.5-15.25,53.74,53.74,0,0,0,1.63-6.69,22.85,22.85,0,0,0,.28-6.76l0,0-.12-.66a.7.7,0,0,0-.24-.15c-2-.89-4-1.8-5.84-2.7a32.34,32.34,0,0,0,5.16-14.8.53.53,0,0,0-.13-.41.75.75,0,0,0-.38-.29,367.13,367.13,0,0,1-45.35-21.26c-5.68-3.13-11.46-6.48-17.15-10-2.76-1.69-5.51-3.42-8.18-5.13-1.45-.93-2.72-1.8-3.86-2.64-.61-.44-1.22-.91-1.83-1.4a33.3,33.3,0,0,0,3.46-15.14,42.52,42.52,0,0,0-3.58-16.06,74.4,74.4,0,0,0-9.47-16,110.81,110.81,0,0,0-11.14-12.6,116.89,116.89,0,0,0-14.27-11.88,95.09,95.09,0,0,0-12.25-7.36,114,114,0,0,0-11.6-5.73c-1.34-.58-2.73-1.15-4.21-1.73a46.78,46.78,0,0,0,7.34-11.78,31.53,31.53,0,0,0,2.35-9.13,25.62,25.62,0,0,0-.84-9.28,28.41,28.41,0,0,0-5.48-10.27,51.49,51.49,0,0,0-11.68-10.13,102.77,102.77,0,0,0-15-8c-2.46-1.1-5.09-2.18-8-3.3l-1.77-.66-2.22-.84-4.28-1.66c-5.86-2.33-11.15-4.64-16.17-7.08s-10-5.17-14.64-8c-2.22-1.36-4.36-2.75-6.63-4.29s-4.64-3.27-6.37-4.54c-3.29-2.42-6.82-5-10.56-7.33a66.66,66.66,0,0,0-11.58-5.89,48.46,48.46,0,0,0-6.36-2,47.06,47.06,0,0,0-6.85-1.08,48.17,48.17,0,0,0-7.42,0,54.58,54.58,0,0,0-8.37,1.3,75.05,75.05,0,0,0-8.19,2.41c-1,.33-1.92.67-2.87,1-1.71.64-3.4,1.3-5.09,2l-.8.31c-1.84.72-3.68,1.45-5.55,2.14a96.46,96.46,0,0,1-9.68,3.1c-1,.25-2,.48-3,.7l-1,.22-3.76.84-.56.13c-2.39.54-5.22,1.2-8,2-3.06.81-5.75,1.64-8.2,2.55a58.58,58.58,0,0,0-6,2.63,35.92,35.92,0,0,0-6,3.81,29.91,29.91,0,0,0-4.87,4.87,21.22,21.22,0,0,0-3,5,16.51,16.51,0,0,0-1.2,4.85,18.51,18.51,0,0,0,1.88,9.74c2.4,5.09,6.9,9.86,13,13.78a51.13,51.13,0,0,0,4.7,2.68c1.92,1,3.84,1.82,6.17,2.83l1,.44a97.15,97.15,0,0,1,11,5.35Z"/><path class="cls-21" d="M2945.12,1917.64a29.33,29.33,0,0,1,3.48-4.75,36.85,36.85,0,0,1,5.16-4.73c.72-.55,1.5-1.11,2.27-1.64a92.09,92.09,0,0,1,11.46-6.34l2.13-1a106.92,106.92,0,0,0,11.18-5.93l-.11.14c.87-.64,1.73-1.26,2.52-1.87.47-.35.93-.72,1.37-1.09a26.25,26.25,0,0,0,3.47-3.52,28.75,28.75,0,0,0,1.79-2.46l1.23-2a31.13,31.13,0,0,1,2.51-3.57,20,20,0,0,1,3.46-3.48,15.66,15.66,0,0,1,3.77-2.14,16.92,16.92,0,0,1,5.23-1.1,20,20,0,0,1,2.94.07,24.15,24.15,0,0,1,3.66.62,17.88,17.88,0,0,1,6.23,2.72,10.65,10.65,0,0,1,3.13,3.37,135.07,135.07,0,0,1,6.91,11.67c.15.25.27.5.42.74l1.54.47a6.15,6.15,0,0,1,.66-.57,10.13,10.13,0,0,1,1.38-.89,14.63,14.63,0,0,1,6.51-1.44,30.66,30.66,0,0,1,9.44,1.54.78.78,0,0,1,.63.71c.46.09,1,.21,1.42.35a17.08,17.08,0,0,1,3.19,1.35,18.23,18.23,0,0,1,2.84,1.92,18.93,18.93,0,0,1,4.3,4.93,15.62,15.62,0,0,1,2.06,4.94l2.07.86c2.25,1,4.53,1.85,6.81,2.76l.18.07a87.36,87.36,0,0,1,11.07,5.34,57.28,57.28,0,0,1,8.83,6.25,37.87,37.87,0,0,1,6.34,7,24.47,24.47,0,0,1,3.55,7.66,20.76,20.76,0,0,1,.5,8.16,25.84,25.84,0,0,1-2.84,8.54,32.49,32.49,0,0,1-3,4.64,29.24,29.24,0,0,1-2.07,2.44l.08.06c-1.21,1.21-2.45,2.41-3.75,3.58-1.08.8-2.22,1.59-3.36,2.39l-.36.24a21.69,21.69,0,0,1,3.73-1.81,17.11,17.11,0,0,1,1.71-.55,17.81,17.81,0,0,1,5.5-.73,12.84,12.84,0,0,1,2.57.34,10.48,10.48,0,0,1,2.24.86,6.71,6.71,0,0,1,2.22,1.93c2.37.45,4.75,1,7.12,1.56a138.39,138.39,0,0,1,13.91,4.31,115.49,115.49,0,0,1,23.37,11.75,83.88,83.88,0,0,1,9.47,7.29,55.73,55.73,0,0,1,7.29,7.89,38.6,38.6,0,0,1,4.76,8.32,34.86,34.86,0,0,1,2.4,8.66,21.93,21.93,0,0,1,.15,5.15,11.07,11.07,0,0,1,0,3.68,15.19,15.19,0,0,1-1.48,4.23,23.88,23.88,0,0,1-6.84,7.81,43.9,43.9,0,0,1-6.55,4c-1.14.58-2.29,1.15-3.55,1.77l-.66.31-.22.12c-1,.49-2,1-3,1.51s-2.29,1.19-3.5,1.94a18,18,0,0,0-2.28,1.59.28.28,0,0,1,0,.29.67.67,0,0,1-.28.23c-2.38,1.12-4.3,1.94-6,2.59a46.36,46.36,0,0,1-5.79,1.76,35.63,35.63,0,0,1-5.95.87,29.76,29.76,0,0,1-6.12-.27c-1.17-.19-2.26-.43-3.29-.7a25,25,0,0,1-2.86-1,22.14,22.14,0,0,1-2.45-1.15c-1.25-.67-2.51-1.42-3.73-2.23-.4,0-.81,0-1.23,0h-.27c-.44.42-.87.83-1.34,1.22a33.47,33.47,0,0,1-5.54,3.62c-1,.52-2,1-3.05,1.58l-.57.29c-.93.48-1.86,1-2.78,1.46s-2,1.1-3,1.75a11.34,11.34,0,0,0-1.95,1.5.27.27,0,0,1,.06.25.38.38,0,0,1-.22.19,55.55,55.55,0,0,1-5.21,2.28,36.38,36.38,0,0,1-5,1.49,27.83,27.83,0,0,1-5.26.62,25.2,25.2,0,0,1-5.5-.49,30.85,30.85,0,0,1-3-.8c-1-.35-1.89-.69-2.65-1a24.78,24.78,0,0,1-2.29-1.21,49.34,49.34,0,0,1-5.77-4c-1.07-.87-2.09-1.73-3-2.57a34.75,34.75,0,0,1-2.61-2.75,16.64,16.64,0,0,1-1.87-2.71,6.9,6.9,0,0,1-.87-2.54,3.83,3.83,0,0,1,.42-2.25,5,5,0,0,1,2.06-1.83,7.72,7.72,0,0,1,.79-.36h0a5.56,5.56,0,0,1,1.05-.27,10.45,10.45,0,0,1,1.07-.07,10,10,0,0,1,1.08.08c.83.11,1.6.29,2.54.51a19.9,19.9,0,0,0,2.19.45,5.35,5.35,0,0,0,1.05,0,3.24,3.24,0,0,0,.83-.14l.56-.18.6-.27c.2-.12.4-.24.58-.37l.38-.3a5,5,0,0,0,.57-.66,7.91,7.91,0,0,0,.48-.7c.28-.51.51-1,.75-1.57a20.2,20.2,0,0,1,1-2,29.89,29.89,0,0,1,2.57-3.46c.33-.39.69-.78,1-1.15a35.74,35.74,0,0,1-2.48-2.94,39,39,0,0,1-4-1.57,48.25,48.25,0,0,1-8.05-4.54,35.23,35.23,0,0,1-3.12-2.51,15.9,15.9,0,0,1-2.16-2.38,16.15,16.15,0,0,1-3-8.33,17.72,17.72,0,0,1,1.82-8.62,26.87,26.87,0,0,1,12.51-12.07,9.47,9.47,0,0,1-1.74-1.68,5,5,0,0,1-1-2,3.35,3.35,0,0,1-.06-1.06,1.84,1.84,0,0,1,.12-.63.77.77,0,0,1,.2-.51.47.47,0,0,0,.12-.13,1.1,1.1,0,0,1,.34-.37,7.73,7.73,0,0,1,1.76-1.4,9.84,9.84,0,0,1,1.41-.65c-.85-.38-1.73-.72-2.63-1h.07a62.51,62.51,0,0,0-10.51-2.77,33.33,33.33,0,0,1-2.54,2.17,34.05,34.05,0,0,1-7.45,4.33,25.89,25.89,0,0,1-6.33,1.77,35.49,35.49,0,0,1-6.48.3c-.95,0-1.93-.1-2.92-.22a57.65,57.65,0,0,1-7.06.41,72.11,72.11,0,0,1-21.2-3.45,88.55,88.55,0,0,1-20.42-9.45,100.91,100.91,0,0,1-9.23-6.57,88.85,88.85,0,0,1-8-7.14l-.68-.7a26.22,26.22,0,0,1-7.23,2.8,43.77,43.77,0,0,1-7.24,1.07,29.53,29.53,0,0,1-4.93-.1,33.35,33.35,0,0,1-4.85-.89,31,31,0,0,1-4.53-1.54,26.17,26.17,0,0,1-7.38-4.65,10.53,10.53,0,0,1-3.53-6.3,7.14,7.14,0,0,1,.52-3.41,8.28,8.28,0,0,1,1.35-2.12,32.78,32.78,0,0,1-7.78-.91,27.67,27.67,0,0,1-8.86-3.65,15.71,15.71,0,0,1-1.64-1.24,11.88,11.88,0,0,1-1.41-1.48,7.3,7.3,0,0,1-1.5-3.17,6.74,6.74,0,0,1,.4-3.57,9.45,9.45,0,0,1,2.68-3.65l.42-.34a14.74,14.74,0,0,1,5.73-2.51,26.52,26.52,0,0,1,7.74-.41,36,36,0,0,1,8.06,1.63c.78.26,1.56.55,2.32.86a12,12,0,0,1-2.32-3.81,6.34,6.34,0,0,1-.33-1.76,4.21,4.21,0,0,1,.38-1.81,4.63,4.63,0,0,1,1.07-1.52,6.26,6.26,0,0,1,.53-.46,10.36,10.36,0,0,1,1.56-.93,13.22,13.22,0,0,1,2.3-.87,15.33,15.33,0,0,1,2.41-.48,16.84,16.84,0,0,1,4.58.11,20.81,20.81,0,0,1,8.35,3.45A23.54,23.54,0,0,1,2945.12,1917.64Z"/><g id="path266"><path class="cls-21" d="M4177,1330.9l30.47-48.93a10.75,10.75,0,0,0,1.19-9.54l-20.38-56.53-.5-.3s-9-13.91,2-31a58.26,58.26,0,0,1,12.26-14.26,27.44,27.44,0,0,0-2.51-8.08,28.53,28.53,0,0,0-4.31-6.21l.12.19a30.07,30.07,0,0,0-3.15-2.85c-1.43.42-2.87.8-4.27,1.12-2.59.58-5.24,1-7.89,1.38a80.48,80.48,0,0,1-14.1.57,69.47,69.47,0,0,1-12.9-1.84,61.23,61.23,0,0,1-11.54-4,56.41,56.41,0,0,1-10-6,54.85,54.85,0,0,1-8.35-7.74,57.08,57.08,0,0,1-5.24-7.09c-2-.6-3.81-1.15-5.38-1.62l-2.44-.75c-4.66-1.4-9.19-2.81-13.65-4.51a74.13,74.13,0,0,1-12.15-5.76,46,46,0,0,1-10.24-8.27,42.8,42.8,0,0,1-4.16-5.38,29.27,29.27,0,0,1-2.58-4.86,24.56,24.56,0,0,1-1.94-9.68,25.55,25.55,0,0,1,1.91-9.38,33.32,33.32,0,0,1,5.31-8.66,52.29,52.29,0,0,1,18.72-13.64l.61-.27c1.78-.77,3.56-1.45,5.39-2.06a84.9,84.9,0,0,1,8.78-2.38c1.85-.41,3.7-.78,5.57-1.16l.34-.06c4-.8,8.08-1.62,11.88-2.77a56.08,56.08,0,0,0,5.82-2.17c.93-.4,1.82-.82,2.7-1.25,2.63-1.29,5.12-2.69,7.4-4l.88-.5a111.91,111.91,0,0,1,10.52-5.5c1.29-.56,2.55-1,3.89-1.51a46.76,46.76,0,0,1,6.6-1.82,47.66,47.66,0,0,1,6.47-.81,51.52,51.52,0,0,1,12.8,1,83.21,83.21,0,0,1,12.94,3.83c3.91,1.49,8,3.23,12.45,5.35a165.83,165.83,0,0,1,22,12.35,93.44,93.44,0,0,1,17.2,14.64,49.59,49.59,0,0,1,7.77,11.43,37,37,0,0,1,6.31-1.48,38.15,38.15,0,0,1,12.87.26,32.39,32.39,0,0,1,11.25,4.39,25.23,25.23,0,0,1,8,8.07,21.27,21.27,0,0,1,3.11,10.83,23.24,23.24,0,0,1-2.76,11,27.13,27.13,0,0,1-3.41,5,30.51,30.51,0,0,1-4.61,4.4,35.91,35.91,0,0,1-7.37,4.32,40.11,40.11,0,0,1-5.05,1.78,41,41,0,0,1-14,1.4,30.48,30.48,0,0,1-6.5-1.23,20.75,20.75,0,0,1-5.49-2.6,14.78,14.78,0,0,1-4-4.07l-.35-.58c-.16.14-.31.28-.48.41a37.55,37.55,0,0,1-9.44,6c-.53.23-1.08.45-1.62.65.2.49.42,1,.66,1.43a35.16,35.16,0,0,0,5.71,8.1,49,49,0,0,0,9,7.39c.66.41,1.33.81,2,1.21,3.8-1.64,6.29-2.68,6.29-2.68h0c1-.36,11.87-2.19,11.87-2.19l0,0c15.21-2.41,41.85-5.44,61.35-1.1,22.1,4.91,78.26,48.2,85.07,56.27,4.72,5.6,16.85,31.52,22.31,49.55a36.3,36.3,0,0,1,2,7.23l-.1,0c.15.68.28,1.34.38,2,16.07,23.14,42.79,66.52,64.39,105.48,1.12,2,4.45,5.4,8.92,9.53,10.77,9.91,37.5,33.24,37.5,33.24,1.73,2.37-2.2,6.66-9.69,11.86a127.76,127.76,0,0,1,19.4,18.94,141,141,0,0,1,17.15,26h0a44.3,44.3,0,0,1,17,14.48l-55.64,20.65h0l-69.79,25.9c-4.25-6.31,5.13-8.31,11-13.22s12.79-16.39,12.79-16.39h0L4447,1462l-6.33-4.44c-9.06,2.29-17,3.59-23,3.46,0,0-29.26-25.5-49.68-49.69,0,0-70.83-84.42-74.38-106.43a10.88,10.88,0,0,1-2.81-3c-12.74-18.62-10.43-26.37-14.09-29.44-2.19-1.83-9.45-6.68-18.93-12.82-1.53,10.73-3.46,19.48-4.86,22.59a29.78,29.78,0,0,1-2,3.47c-8.52,13-36.52,47.54-50.65,54a8.82,8.82,0,0,1,.3,1.26c.34,2.18-.31,4.25-.55,6.36-.3,2.72-1.77,4.9-3.46,7.22l-.46.62L4367.69,1557l-8.58,3.14-169-203.35a1.77,1.77,0,0,0-.32,0c-1.2-.11-2.39.21-3.56.07a14.77,14.77,0,0,1-6.4-3c-1.38-1.28-1.84-3.86-4-4.62a11.76,11.76,0,0,0-3-.2c-3.05-.16-7.71-.46-9.61-2.59-1-1.1.89-3.69,1.52-4.74a27.91,27.91,0,0,0-9.74,1.76c-17.34,6.35-8.57,18.47-8.57,18.47s.71,1.47-1.71,2.36a3.87,3.87,0,0,1-3.74-.36s-11.37-15.72,11.11-24a36,36,0,0,1,15.73-2.15,48.48,48.48,0,0,1,7.68-5.6A12.85,12.85,0,0,0,4177,1330.9Zm319.69,106.33q-4.38,2-8.89,3.88a131.28,131.28,0,0,1,13.41,13.91,140.94,140.94,0,0,1,17.15,26h0a41.24,41.24,0,0,1,4,2.17,44.72,44.72,0,0,1,7.59,6,26.12,26.12,0,0,0,2.23-1.64c5.81-4.86,12.61-16.11,12.79-16.39l-42.41-29.77Z"/></g><path class="cls-21" d="M3737.86,1189.88a50.22,50.22,0,0,0,3.69,5.65c.24.32.49.64.74,1a48.21,48.21,0,0,1,2.35,5.93c.33,1,.61,2,.9,3s.61,2.09.95,3.12a39,39,0,0,0,4.79,9.78,32.93,32.93,0,0,0,7.67,7.88,38,38,0,0,0,5.11,3.14,46.91,46.91,0,0,0,6.05,2.55,69,69,0,0,0,15.1,3.19,101.85,101.85,0,0,0,16.49.32c1.13-.07,2.27-.14,3.4-.24a76.62,76.62,0,0,0-15.73,12,32.61,32.61,0,0,0-6.32,8.84,18.75,18.75,0,0,0-1.68,10.47,25.14,25.14,0,0,0,4.68,11.44,43.44,43.44,0,0,0,5.92,6.68,64.86,64.86,0,0,0,8.12,6.51,22.77,22.77,0,0,0,5.81,16.91,34.85,34.85,0,0,0,6.88,6,44.37,44.37,0,0,0,4.53,2.73c.47.26.94.51,1.42.75-.24.58-.47,1.17-.69,1.75-1.7.81-3.34,1.7-4.92,2.63l-.11.08c-.55.45-1.08.92-1.59,1.39l.08-.06a19.62,19.62,0,0,0-2.07,2.33,17.72,17.72,0,0,0-1.57,2.5,15.41,15.41,0,0,0-.9,2.2,13.64,13.64,0,0,0-.45,2.29,10.49,10.49,0,0,0,0,2.17,11.81,11.81,0,0,0,.39,2,13.64,13.64,0,0,0,.69,1.76,16.07,16.07,0,0,0,1.06,1.81v0l0-.06v0l0,0a17.28,17.28,0,0,0,1.23,1.54c.28.3.57.6.88.88s.73.53,1.11.78l.25.16c.3.16.6.32.91.47a70.69,70.69,0,0,0,.52,10.58,69.56,69.56,0,0,0,6.17,21.18,78,78,0,0,0,13.53,19.73,101.33,101.33,0,0,0,21.43,17.21,109.61,109.61,0,0,0,12.93,6.8,132.64,132.64,0,0,0,14.31,5.39,145.06,145.06,0,0,0,15.65,4c22,21.89,46.06,44.63,73.54,69.52l1.58,1.43c21.88,19.8,46.15,41.16,76.35,67.22,2.47,2.14,4.94,4.26,7.42,6.39l3.7,3.19,2.84,2.44,2.64,2.29c1.92,1.68,3.81,3.36,5.7,5l1.18,1c6.4,5.71,13.65,12.17,21.36,18,3.94-.67,7.74-1.51,11.33-2.49l.28-.08c3.27,2.71,6.39,5.5,9.45,8.24,1.11,1,2.24,2,3.37,3-1.38,1.42-2.81,2.82-4.26,4.21-1.71,1.65-3.41,3.3-5.09,5-1.41,1.41-2.79,2.83-4.14,4.28-.4.42-.78.84-1.13,1.24h-.05c-.71.79-1.32,1.5-1.85,2.16a24.41,24.41,0,0,0-2.42,3.48,6.71,6.71,0,0,0-1,3,2.68,2.68,0,0,0,1.33,2.36,7.72,7.72,0,0,0,4.17.89,34.69,34.69,0,0,0,7.09-1c2.36-.49,4.72-1.06,7.24-1.74,3.47-.93,6.94-2,10.31-3.29,1.32-.49,2.63-1,3.91-1.53a98.34,98.34,0,0,0,12.91-6.44,64.11,64.11,0,0,0,10.59-7.89,42.36,42.36,0,0,0,3.69-3.88.48.48,0,0,0,.13-.33.64.64,0,0,0-.08-.65q-1.21-1.82-2.51-3.65l0,0a270.76,270.76,0,0,0-18.23-22.79c1.18-.76,2.36-1.55,3.55-2.37-.62-.8-1.24-1.54-1.89-2.28-1.77-2.06-3.58-4.12-5.41-6.17-3.75-4.22-7.55-8.39-11.1-12.27l-3.69-4c-6.21-6.75-12.26-13.36-18.14-20.09-5.13-5.85-10.22-11.86-15.15-17.67l-.39-.46c-7.8-9.2-16.64-19.63-25.75-29.52-1.38-1.5-2.76-3-4.17-4.46,7,6.22,14.19,12.36,21.11,18.3l.45.38,8.34,7.16,2,1.68,1.92,1.65c4.65,4,9.31,8,13.93,12l8.33,7.24,2.51,2.18.83.72,6,5.24c6.38,5.54,13.83,12,21.71,18.7,7.11,6,13,11,18.59,15.55,2.28,1.9,4.5,3.83,6.69,5.76,2.13-.36,4.25-.76,6.34-1.21,3.12,2.6,6.11,5.28,9,7.9l3.37,3c-1.37,1.43-2.81,2.82-4.25,4.22-1.71,1.65-3.42,3.3-5.09,5-1.41,1.41-2.8,2.84-4.15,4.28-.39.43-.77.84-1.13,1.25h0c-.71.79-1.32,1.49-1.85,2.16a24.37,24.37,0,0,0-2.42,3.47,6.79,6.79,0,0,0-1,3.05,2.69,2.69,0,0,0,1.33,2.36,7.64,7.64,0,0,0,4.17.88,34,34,0,0,0,7.09-1c2.36-.49,4.72-1.06,7.24-1.74,3.47-.94,6.94-2,10.31-3.29,1.32-.49,2.63-1,3.91-1.54a97.67,97.67,0,0,0,12.91-6.43,64.11,64.11,0,0,0,10.59-7.89,41.22,41.22,0,0,0,3.69-3.89.44.44,0,0,0,.13-.33.62.62,0,0,0-.08-.64c-.82-1.21-1.65-2.43-2.51-3.66l0,0a265.3,265.3,0,0,0-17.51-22,33.51,33.51,0,0,0,3.23-3.18l.28-.33c-1.7-2-3.39-4.08-5.08-6.13-3-3.62-6.08-7.37-9.23-11-2.75-3.43-5.6-7-8.64-10.87q-3.59-4.5-7.13-9l-2.47-3.15-.83-1.05-4.59-5.82-4.59-5.82c-14.5-18.3-27.84-35-39.65-49.61q-10-12.36-20.07-24.7c-8-9.79-14.27-17.38-20.33-24.62l-5.76-6.85c-11.62-13.83-23.6-28.09-34.42-42.35-2.61-3.45-5.17-6.91-7.74-10.38-7.46-10.1-15.11-20.43-24-30.24.92-1.36,1.8-2.75,2.61-4.18a49.15,49.15,0,0,0,4.66-11,39.83,39.83,0,0,0,1.49-10.95,40.49,40.49,0,0,0-1.58-10.71c-1.91-6.8-5.75-13.63-11.38-20.32a88,88,0,0,0-9.29-9.4,117.68,117.68,0,0,0-11.3-8.73,251.06,251.06,0,0,0-23.44-14.41,187.33,187.33,0,0,0-26.94-12c-4.79-1.69-9.61-3.12-14.32-4.27a124,124,0,0,0-14.69-2.63c-.88-.1-1.77-.2-2.7-.28a146.16,146.16,0,0,0-17.11-1.94,1,1,0,0,0-.24-.2,1.53,1.53,0,0,0-.46-.23,48.09,48.09,0,0,0-11.12-1.87,1.72,1.72,0,0,0-.59.06,1.37,1.37,0,0,0-.53.08.85.85,0,0,0-.47.42c0,.13-.07.26-.11.39l-.61-.08c-1.35-.19-2.69-.33-3.93-.44-1.58-.08-3.16-.14-4.74-.2a132.33,132.33,0,0,0,11.41-8.29,80.21,80.21,0,0,0,13.06-13.2,41.71,41.71,0,0,0,7.42-14.24,27.8,27.8,0,0,0,1-7.35,26,26,0,0,0-1.13-7.41,30.78,30.78,0,0,0-5.15-9.71,45.66,45.66,0,0,0-10.2-9.36,103.55,103.55,0,0,0-13-7.5c-2.7-1.35-5.5-2.67-8.21-4-2.09-1-4.19-2-6.26-3a78.36,78.36,0,0,1-7.27-4.07c-4.73-3-9.08-6.31-13.3-9.54s-8.34-6.39-12.93-9.32a62,62,0,0,0-6.15-3.47,51.86,51.86,0,0,0-6-2.45,47.72,47.72,0,0,0-12-2.34,59,59,0,0,0-19.71,2.28c-2.14.6-4.32,1.31-6.66,2.18-1,.36-1.92.73-2.87,1.11q-2.37,1-4.68,2l-2.31,1.08c-.9.42-1.8.85-2.72,1.26l-.18.07c-.87.37-1.78.73-2.7,1.07-1.55.58-3.23,1.13-5,1.66-2.34.7-4.88,1.35-8.24,2.12-2.2.5-4.41,1-6.62,1.44-3.38.72-6.89,1.47-10.27,2.31-3,.76-5.63,1.54-8.1,2.39-.5.16-1,.34-1.46.51-1.24.46-2.51,1-3.9,1.58a64.31,64.31,0,0,0-9.77,5.3c-6.12,4.06-10.86,8.92-13.7,14.07a23.35,23.35,0,0,0-2.72,8.19,19.64,19.64,0,0,0,.83,8.56,25,25,0,0,0,4.4,8,31.24,31.24,0,0,0,3.8,4,37.59,37.59,0,0,0,5.13,3.74,113.26,113.26,0,0,0,11.69,6.08,117,117,0,0,1,11.47,5.93s.1.06.11,0h0l.09,0h0a36.92,36.92,0,0,1,5.91,4.67,1.28,1.28,0,0,0,.71.27,1.49,1.49,0,0,0,.52-.06c.53.48,1.05,1,1.55,1.48C3737.48,1189.45,3737.67,1189.67,3737.86,1189.88Zm69,146.89,0,0,0,.06Z"/><path class="cls-21" d="M3103,1722.92a17.06,17.06,0,0,0,.45,3.85,10.67,10.67,0,0,0,4.29,6.39,13.43,13.43,0,0,0,4.3,1.89,20.61,20.61,0,0,0,2.63.46,24.78,24.78,0,0,0,3.28.13,30.62,30.62,0,0,0,6.52-.81c.73-.16,1.46-.37,2.18-.6,2.68,5.37,4,11,5.29,16.43.68,2.92,1.5,6.43,2.61,9.77a40.77,40.77,0,0,0,4.31,9.2,34.75,34.75,0,0,0,7.66,8.38,44,44,0,0,0,5.6,3.79,53.28,53.28,0,0,0,6.57,3.23,52.41,52.41,0,0,0,6.72,2.2c1.34.35,2.74.64,4.23.9l.06.16c.52,1.37.37,13.81.08,18.25a78.83,78.83,0,0,0,.53,17,51.19,51.19,0,0,0,2,8.45,36.33,36.33,0,0,0,3.59,7.74,29.58,29.58,0,0,0,5.57,6.57,27.46,27.46,0,0,0,3.64,2.7,29.45,29.45,0,0,0,4.24,2.22,38.83,38.83,0,0,0,10.43,2.74c1,.13,2.11.22,3.2.27a30.19,30.19,0,0,0,3.59-.13,26.13,26.13,0,0,0,6.29-1.43h0a17.65,17.65,0,0,0,5-2.81,11.26,11.26,0,0,0,3.18-3.95,9.62,9.62,0,0,0,.86-3.37c.51,1.94,1.07,3.94,1.67,6a105.82,105.82,0,0,0,10.84,24.87c1.11,1.84,2.35,3.76,3.69,5.72a.41.41,0,0,0,.09.1l2.85.6,2.06.4a139.51,139.51,0,0,0,16.59,1.42c2,2.92,4.13,5.78,6.38,8.59a90.66,90.66,0,0,0,12.43,12.7.63.63,0,0,0,.2.13,1.09,1.09,0,0,0,.54.25c1.29.22,2.6.39,3.92.51,3.27,3,6.56,6.23,10,9.63l.05,0,.1.1c10.45,10.39,20.46,21.24,30.17,32h-.05q4.47,4.95,8.86,9.84l4,4.41-.75.85h-.05l-.17.2a29.2,29.2,0,0,0-2.88,3.64,14.48,14.48,0,0,0-1.76,3.84,6.59,6.59,0,0,0-.12,3.76,3.6,3.6,0,0,0,.93,1.53,3.5,3.5,0,0,0,.8.62,6,6,0,0,0,1.12.54,7.62,7.62,0,0,0,1.19.32,9.52,9.52,0,0,0,1.39.15,15.58,15.58,0,0,0,3.45-.19,33,33,0,0,0,5.9-1.37c.47-.16.92-.31,1.37-.48a43.87,43.87,0,0,0,4.35-1.9,43.36,43.36,0,0,0,5.27-3.15,35.87,35.87,0,0,0,5.9-5,20.31,20.31,0,0,0,3.83-5.37.67.67,0,0,0-.33-.83c-.47-1-1-1.92-1.51-2.89l-.11-.15c-.43-.82-.88-1.63-1.32-2.44v0q-5.11-9.39-10.3-18l0,0c-5.54-9.2-11.18-17.78-17-25.93-4.43-6.18-9.13-12.27-14-18.08a.67.67,0,0,0-.25-.46,1.05,1.05,0,0,0-.29-.17c-.89-1.07-1.8-2.14-2.72-3.21a1.33,1.33,0,0,0-1.37-.35,1.06,1.06,0,0,0-.28.15c-1.17-1.37-2.34-2.62-3.55-3.8.82-.19,1.64-.43,2.44-.7a81.45,81.45,0,0,0,9.08,10,1,1,0,0,0,.53.23,1.22,1.22,0,0,0,.78.28,40.71,40.71,0,0,0,4.32-.27c2.52,2.4,5.08,4.87,7.71,7.49l0,0,.11.1c10.44,10.39,20.45,21.24,30.17,32h-.06q4.47,5,8.86,9.84l4,4.41-.75.84h0l-.17.21a30.78,30.78,0,0,0-2.87,3.63,14.26,14.26,0,0,0-1.77,3.85,6.58,6.58,0,0,0-.12,3.76,4.45,4.45,0,0,0,.37.81,4.12,4.12,0,0,0,.56.72,4,4,0,0,0,.8.62,6.27,6.27,0,0,0,1.12.54,7.46,7.46,0,0,0,1.2.32,9.23,9.23,0,0,0,1.39.15,16.84,16.84,0,0,0,3.44-.19,33.71,33.71,0,0,0,5.9-1.37l1.37-.48a43.87,43.87,0,0,0,4.35-1.9,42.22,42.22,0,0,0,5.27-3.16,35.82,35.82,0,0,0,5.9-5,20.33,20.33,0,0,0,3.84-5.38.67.67,0,0,0-.33-.82c-.48-1-1-1.92-1.52-2.89l-.11-.15c-.43-.82-.87-1.63-1.31-2.45l0,0c-3.41-6.27-6.84-12.25-10.3-18l0,0c-5.54-9.2-11.18-17.79-17-25.93-4.28-6-8.82-11.87-13.48-17.5a11.17,11.17,0,0,0,2.46-4.31.5.5,0,0,0,0-.27.57.57,0,0,0-.13-.53c-5.21-7.67-12.12-14.84-19.11-21.78.15-.17.29-.35.44-.53a49.6,49.6,0,0,0,4.57-6.78c.62-1.09,1.2-2.24,1.77-3.49l.6-1.36.33-.72c.23-.52.42-1,.56-1.41l.33-1.29a.55.55,0,0,0-.14-.43.79.79,0,0,0-.22-.18.69.69,0,0,0-.26-.37c-1.75-1.52-3.6-3-5.57-4.54a9.45,9.45,0,0,0,1.54-1.76,21.21,21.21,0,0,0,2.14-4.22l.47-1.12c.25-.59.5-1.19.72-1.79a19.46,19.46,0,0,0,.63-2.34,18.58,18.58,0,0,0,.34-4.49,20.65,20.65,0,0,0-2.52-8.73c-2.81-5.33-7.85-10.26-14.58-14.25a60.16,60.16,0,0,0-13.05-5.7,14.66,14.66,0,0,0-3.32-6.57,1.32,1.32,0,0,0-.81-.39,1.58,1.58,0,0,0-.45-.21,140.85,140.85,0,0,0-16.27-2.83l-.48-.06c-2.84-.38-5.61-.75-8.37-1.22-1.87-.3-3.73-.65-5.58-1l-1.38-.25c-4.6-.83-10-1.75-15.19-2.19a48.79,48.79,0,0,0-13.57.47c1-.52,2-1.05,3-1.58a112.62,112.62,0,0,0,17.15-11.36,57.62,57.62,0,0,0,11.93-12.74,32.6,32.6,0,0,0,3.45-6.74,20.73,20.73,0,0,0,1.32-9.09A19.66,19.66,0,0,0,3298,1722a25.42,25.42,0,0,0-2.83-5,51.73,51.73,0,0,0-8.79-9.3c-3-2.57-6.18-5.06-9.3-7.47l-1.65-1.27-2.8-2.17c-1.15-.89-2.31-1.79-3.48-2.68-2.22-1.69-4.48-3.36-6.75-5-9.21-6.71-18.83-13.12-28.58-19a93.71,93.71,0,0,0-25-10.78,66.63,66.63,0,0,0-14-2.11,55,55,0,0,0-7.11.17,53.62,53.62,0,0,0-7.75,1.28,66.45,66.45,0,0,0-7.7,2.37c-3.64,1.35-7,2.88-11,4.75-3.67,1.7-7.82,3.63-12,5.2a70.23,70.23,0,0,1-6.87,2.19c-1.48.36-2.82.65-4.09.87s-2.8.51-4.19.78c-2.74.55-5.35,1.13-7.75,1.74a103.4,103.4,0,0,0-10.84,3.3c-1.12.42-2.21.85-3.29,1.3a55.42,55.42,0,0,0-11.85,6.75,39.57,39.57,0,0,0-9,9.56,17.25,17.25,0,0,0-2.4,5.89,21.45,21.45,0,0,0-.38,6.73,17.42,17.42,0,0,0,1.8,6.32,12,12,0,0,0,4.24,4.75,12.26,12.26,0,0,0,3.18,1.4,13.35,13.35,0,0,0,3.72.49A14.71,14.71,0,0,0,3103,1722.92Zm116.73,111.29.32.61-.14-.63Zm-23.5-30.37-3.06-15.33s8.7.85,23.88-4.79C3217.08,1783.72,3202.34,1794.77,3196.26,1803.84Z"/><path class="cls-21" d="M3353.14,1475.51c-.46-.38-.9-.76-1.31-1.15-3.55-3.32-5.74-7.16-6.16-10.82a11.24,11.24,0,0,1,.66-5.51,13.53,13.53,0,0,1,3.57-5.06,23.39,23.39,0,0,1,6.7-4.15l1.52-.59a39.48,39.48,0,0,1,8.79-2.15,48,48,0,0,1,5.79-.38,53.85,53.85,0,0,1,5.9.3,65.06,65.06,0,0,1,11.71,2.33,69.83,69.83,0,0,1,10.93,4.23,59.31,59.31,0,0,1,9.27,5.57,38,38,0,0,1,3.64,3,27.6,27.6,0,0,1,2.89,3.26,22.34,22.34,0,0,1,3.62,7,16.09,16.09,0,0,1,.52,7.08,12.85,12.85,0,0,1-2.91,6.26,15.77,15.77,0,0,1-2.84,2.59,19.46,19.46,0,0,1-3.8,2.08c-.27.12-.54.22-.82.32a29.49,29.49,0,0,1-5.2,1.39l1.65,1.17.14.1q2.4,1.71,4.83,3.39c.82.57,1.65,1.12,2.49,1.67l2.48,1.61a69.71,69.71,0,0,1,10.48,8.13,32.47,32.47,0,0,1,6.91,9.22,22.71,22.71,0,0,1,2.31,10.2,27.16,27.16,0,0,1-1.65,8.79,43.61,43.61,0,0,1-10.85,16.34,49.37,49.37,0,0,1-8,6.4,35,35,0,0,1-6.54,3.26c-.5.19-1,.36-1.52.52-.75.24-1.51.45-2.29.64a26.53,26.53,0,0,0,3.16,4.91,32.9,32.9,0,0,0,4.67,4.61.49.49,0,0,1,.23-.33.61.61,0,0,1,.18-.09,1.48,1.48,0,0,1,.46-.08h.42l.13-.06a.87.87,0,0,1,.22,0,110.14,110.14,0,0,1,18.15.24,136.41,136.41,0,0,1,17.89,3,171.83,171.83,0,0,1,25.28,8.07,217.9,217.9,0,0,1,23.57,11.27,238.39,238.39,0,0,1,20.92,13c3.21,2.24,6.28,4.5,9.13,6.71,3.38,2.62,6.05,4.76,8.41,6.73,3.26,2.73,6,5.21,8.53,7.59a97.18,97.18,0,0,1,7.74,8.25c5.23,6.37,8.21,12.07,9.12,17.43a18.53,18.53,0,0,1-.49,8.71,21.13,21.13,0,0,1-4.47,7.67c-.49.55-1,1.07-1.51,1.58.8.49,1.53,1,2.21,1.47.36.26.71.54,1.06.81l.44.35,1.6,1.27a40.1,40.1,0,0,1,3.66,3.24,16.33,16.33,0,0,1,1.51,1.77,5.85,5.85,0,0,1,.88,1.57,3.24,3.24,0,0,1,.2.87,3.54,3.54,0,0,1-.08.93,2.06,2.06,0,0,1-.78,1.34,1.52,1.52,0,0,1-.38.2,2.67,2.67,0,0,1-1.38.09l-.2-.07.59.72a31.25,31.25,0,0,1,2.28,3.13,10.71,10.71,0,0,1,1.41,3,2.83,2.83,0,0,1-.16,2.23,2.17,2.17,0,0,1-.81.81,3.67,3.67,0,0,1-.63.31,3.51,3.51,0,0,1-.6.15,3.85,3.85,0,0,1-1.41,0,5.79,5.79,0,0,1-1.29-.49,4.86,4.86,0,0,1-1.05-.71c.08.25.16.49.23.74a8.53,8.53,0,0,1,.4,2.48,3.4,3.4,0,0,1-.53,2,2.74,2.74,0,0,1-1.32,1l-.43.13c-1.8.41-3.37-.71-4.38-1.72a11.93,11.93,0,0,1-1.42-1.72,3.13,3.13,0,0,1-1.68,3.09l0,0,20,24,23.42,28.08,21,25.17,0,0,2.56,3.06,19.06,22.86,16.36,19.61,0,0,2.66,3.19.1.13.12.14a.48.48,0,0,1-.08.74.66.66,0,0,1-.17.25,48.71,48.71,0,0,1-8.71,6.53c-1.56.91-3.18,1.8-5,2.72-1.29.65-2.61,1.27-3.93,1.9-2.15,1-4,1.85-5.83,2.66-2.08.89-3.64,1.53-5.05,2-1,.38-2,.74-3.08,1.06s-2.49.75-4,1.06a18.87,18.87,0,0,1-1.94.28,9.47,9.47,0,0,1-1.51.08,6,6,0,0,1-2.83-.6,1.66,1.66,0,0,1-1-1.4,3.4,3.4,0,0,1,.5-1.82,11.36,11.36,0,0,1,1.52-2.11,45.28,45.28,0,0,1,4.87-4.86c1.2-1.08,2.52-2.21,4-3.44h.05l1.23-1,2-1.6c.42-.33.84-.65,1.26-.94l-12.21-11.32-24.44-22.64-4-3.69h0L3546.73,1748l-39.38-36.49c-.84.34-1.7.67-2.55,1-2.15.79-4.37,1.54-6.63,2.21q11.29,13.54,22.58,27.08l23.43,28.08,21,25.18,0,0,2.56,3.07,19.06,22.86,16.36,19.6,0,0,2.66,3.19a1.47,1.47,0,0,0,.1.13l.13.14a.48.48,0,0,1-.08.74.9.9,0,0,1-.17.26,48.68,48.68,0,0,1-8.71,6.52c-1.56.92-3.18,1.8-5,2.72-1.28.65-2.6,1.27-3.92,1.9-2.15,1-4,1.86-5.84,2.67-2.07.89-3.63,1.52-5,2-1,.38-2,.74-3.09,1.07s-2.48.74-4,1a18.87,18.87,0,0,1-1.94.28,8.53,8.53,0,0,1-1.52.08,6,6,0,0,1-2.82-.6,1.64,1.64,0,0,1-1-1.39,3.41,3.41,0,0,1,.5-1.83,11.74,11.74,0,0,1,1.51-2.11,46.45,46.45,0,0,1,4.88-4.86c1.2-1.08,2.52-2.21,4-3.44h.06l1.23-1,2-1.59c.42-.33.84-.66,1.26-1l-12.22-11.32-24.43-22.64-4-3.68h0L3491.73,1765l-35.64-33a3.07,3.07,0,0,1-1,.57l-.27.09a7.94,7.94,0,0,1-4.85-.68,13.37,13.37,0,0,1,1.48,1.72c.76,1.09,1.37,2.57-.09,3.36a2.76,2.76,0,0,1-.39.18,4.63,4.63,0,0,1-1.95.24,9.94,9.94,0,0,1-2.81-.73,20.43,20.43,0,0,1-3-1.53c-.29-.17-.57-.34-.84-.52a3.19,3.19,0,0,1,.37,1,2.13,2.13,0,0,1-.05,1,1.66,1.66,0,0,1-.69.82,1.73,1.73,0,0,1-.51.26,3.9,3.9,0,0,1-.72.2,4.74,4.74,0,0,1-1.46,0,7.67,7.67,0,0,1-3-1.09,17,17,0,0,1-3.08-2.35,38.47,38.47,0,0,1-2.84-2.93l-.61-.71,0,.15a1.36,1.36,0,0,1-.84.74,2.18,2.18,0,0,1-.44.11,5.43,5.43,0,0,1-2.14-.26,10.58,10.58,0,0,1-1.23-.44,8.06,8.06,0,0,1-1-.57,8.81,8.81,0,0,1-1.55-1.32,15.72,15.72,0,0,1-1.5-1.78,29.67,29.67,0,0,1-2.24-3.76l-.8-1.57-.21-.44c-.17-.34-.34-.68-.49-1a17.58,17.58,0,0,1-1.05-3.29c-.06-.29-.11-.59-.16-.88a43.71,43.71,0,0,1-6.57-1.21,50.25,50.25,0,0,1-10.43-4,61.81,61.81,0,0,1-9.12-5.88A80.09,80.09,0,0,1,3376,1691.1c-1.92-2.52-3.73-5.15-5.41-7.85a90.63,90.63,0,0,1-5-9.18,80.45,80.45,0,0,1-6.11-18.78,76.23,76.23,0,0,1,2.2-37.48,90.72,90.72,0,0,1,15.79-29.31c.24-.32.48-.62.73-.92.47-.65.95-1.28,1.46-1.9a10.52,10.52,0,0,1,.72-.93c.24-.27.49-.54.81-.86l.09-.1a1.18,1.18,0,0,1,.22-.2.41.41,0,0,1,.18-.12.91.91,0,0,1,.27,0,1,1,0,0,1,.17-.1,1.33,1.33,0,0,1,1.07.14,10.67,10.67,0,0,0-.5-2.7,8.27,8.27,0,0,0-1.24-2.19,10.63,10.63,0,0,0-1.87-1.78l-.33-.24-.83.31c-1.43.53-2.89,1-4.32,1.46-.7.21-1.39.41-2.1.6s-1.15.31-1.73.45c-1.25.31-2.51.58-3.73.81-2.25.42-4.55.73-6.84.94a71.34,71.34,0,0,1-12,.14,57.43,57.43,0,0,1-10.73-1.81,48.51,48.51,0,0,1-9.34-3.58,42.11,42.11,0,0,1-7.83-5.15,38.26,38.26,0,0,1-10.74-14.23l-.05-.12c-.68-1.55-1.35-3.1-2.08-4.65s-1.56-3.24-2.36-4.86l-.21-.42c-1-2-2-4.13-3-6.23l-.41.16-.63.22a26.17,26.17,0,0,1-5.06,1.18,17.17,17.17,0,0,1-4.19.11,10.73,10.73,0,0,1-3.29-.9,7.32,7.32,0,0,1-2.29-1.65,7.61,7.61,0,0,1-.88-1.14,8.29,8.29,0,0,1-.6-1.19,9.76,9.76,0,0,1-.69-2.68,18.35,18.35,0,0,1,.37-6.14,9.65,9.65,0,0,1,.32-1.17,16.69,16.69,0,0,1-2.13,1.56,12.41,12.41,0,0,1-2.2,1.08,11.45,11.45,0,0,1-2.18.56,10.4,10.4,0,0,1-4-.21,12.29,12.29,0,0,1-4.14-1.94,8.51,8.51,0,0,1-3.44-6.94,19.55,19.55,0,0,1,1.35-7.78,20.19,20.19,0,0,1,1.67-3.46,23.83,23.83,0,0,1,3.15-4.11c4.27-4.51,10.81-8.39,20-11.84l.69-.26c3.94-1.46,8.29-2.84,13.28-4.2q3.81-1,7.65-2c2.48-.64,5-1.28,7.41-2,2.19-.6,4.08-1.13,5.8-1.65,1.76-.72,3.54-1.44,5.32-2.13.93-.36,1.86-.72,2.79-1.06,2.65-1,5.06-1.81,7.39-2.53a85.36,85.36,0,0,1,10.56-2.59Zm92.77,245.13.52.49,1.18.77c-.19-.37-.37-.73-.56-1.08-.3-.06-.6-.14-.87-.21l-.41-.11Z"/><path class="cls-19" d="M3258.46,2050.52a6.25,6.25,0,0,0-8.06-3.64l-181.6,69.48a6.27,6.27,0,0,0,4.45,11.72l181.61-69.48A6.28,6.28,0,0,0,3258.46,2050.52Z"/><path class="cls-19" d="M3532.49,1945.68a6.26,6.26,0,0,0-8.07-3.64l-181.6,69.48a6.27,6.27,0,0,0,4.46,11.72l181.6-69.48A6.28,6.28,0,0,0,3532.49,1945.68Z"/><path class="cls-19" d="M3806.51,1840.84a6.25,6.25,0,0,0-8.06-3.64l-181.6,69.48a6.27,6.27,0,0,0,4.45,11.72l181.6-69.48A6.27,6.27,0,0,0,3806.51,1840.84Z"/><path class="cls-19" d="M4080.54,1736a6.28,6.28,0,0,0-8.07-3.64l-181.6,69.48a6.27,6.27,0,0,0,4.46,11.72l181.6-69.47A6.31,6.31,0,0,0,4080.54,1736Z"/><path class="cls-19" d="M4354.56,1631.16a6.27,6.27,0,0,0-8.06-3.64L4164.9,1697a6.27,6.27,0,0,0,4.45,11.73l181.6-69.48A6.3,6.3,0,0,0,4354.56,1631.16Z"/><path class="cls-19" d="M4628.58,1526.33a6.25,6.25,0,0,0-8.06-3.64l-181.6,69.48a6.27,6.27,0,0,0,4.45,11.72L4625,1534.41A6.28,6.28,0,0,0,4628.58,1526.33Z"/><path class="cls-22" d="M1698.92-286.67,426.83,179.39l-103.35,901.3,13,13.48,1259.1-479.55Z"/><polygon class="cls-23" points="439.09 192.89 1711.17 -273.17 1607.82 628.12 335.74 1094.19 439.09 192.89"/><path class="cls-24" d="M335.52,1093.7l149.05-54.3-45.76-73Z"/><path class="cls-25" d="M440.35,951.44l141.51-33.33,28,290.11Z"/><path class="cls-26" d="M1710.51-274.46,438.42,191.6,592.66,1204.26l19.48,4.92,1252.61-471Z"/><polygon class="cls-22" points="456.88 196.66 1728.97 -269.4 1883.2 743.25 611.12 1209.32 456.88 196.66"/><path class="cls-22" d="M324.56,1081.92,440.86,950.8l171.36,260.1-20.08-6.45L436,976.12,335.65,1094.31Z"/><path class="cls-27" d="M1586.36,569.6l-141.28,51.76,23.17,152.15,141.28-51.76ZM1743.46,512,1602.18,563.8,1625.36,716l141.28-51.76ZM957.94,799.84,816.66,851.6l23.17,152.15L981.11,952Zm471.31-172.68L1288,678.92l23.18,152.15,141.28-51.76ZM800.84,857.4,659.56,909.16l23.17,152.15L824,1009.54ZM1115,742.28,973.77,794l23.17,152.15,141.28-51.76Zm157.11-57.56-141.28,51.76L1154,888.63l141.28-51.76Zm288.1-286.57L1419,449.92l23.17,152.15,141.28-51.77Zm157.1-57.55-141.28,51.76,23.17,152.15,141.28-51.77ZM931.83,628.39,790.55,680.16,813.72,832.3,955,780.54Zm471.31-172.67-141.28,51.76L1285,659.62l141.28-51.76ZM774.72,686,633.44,737.72l23.18,152.14L797.9,838.1Zm314.21-115.12L947.65,622.6l23.18,152.14L1112.11,723ZM1246,513.27,1104.76,565l23.17,152.14,141.28-51.76Zm288.09-286.56-141.28,51.76L1416,430.62l141.28-51.76Zm157.11-57.56L1550,220.91l23.17,152.15,141.28-51.76ZM905.72,457,764.44,508.71l23.17,152.15L928.89,609.1ZM1377,284.27,1235.75,336l23.17,152.15,141.28-51.76ZM748.61,514.51,607.33,566.27l23.18,152.15,141.27-51.76Zm314.21-115.12L921.54,451.15,944.71,603.3,1086,551.54Zm157.1-57.56-141.28,51.76,23.18,152.15L1243.1,494ZM722.5,343.06,581.22,394.82,604.39,547l141.28-51.76ZM1508,55.26,1366.74,107l23.17,152.14,141.29-51.76ZM1665.12-2.3,1523.84,49.47,1547,201.61l141.28-51.76ZM879.6,285.5,738.32,337.26,761.5,489.41l141.28-51.76Zm471.32-172.68-141.28,51.77,23.17,152.14L1374.09,265ZM1036.71,227.94,895.43,279.7,918.6,431.85l141.28-51.76Zm157.1-57.56-141.28,51.77,23.17,152.14L1217,322.53Z"/><path class="cls-28" d="M800.84,857.4,659.56,909.16l23.17,152.15L824,1009.54ZM774.72,686,633.44,737.72l23.18,152.14L797.9,838.1ZM748.61,514.51,607.33,566.27l23.18,152.15,141.27-51.76ZM722.5,343.06,581.22,394.82,604.39,547l141.28-51.76ZM1665.12-2.3,1523.84,49.47Z"/><path class="cls-27" d="M1773,700.7c-.8-5.3-5.44-8.13-10.35-6.33l-197.21,72.26a12.21,12.21,0,0,0-7.44,12.85c.8,5.28,5.45,8.11,10.36,6.31l197.21-72.25A12.21,12.21,0,0,0,1773,700.7Z"/><path class="cls-27" d="M1170.56,93.16c-2.94-19.29-19.87-29.63-37.79-23.07L592.66,268c-17.92,6.56-30.08,27.56-27.14,46.86s19.87,29.63,37.79,23.06L1143.42,140C1161.34,133.45,1173.5,112.46,1170.56,93.16Z"/><ellipse class="cls-29" cx="1237.3" cy="72.78" rx="23.95" ry="19.56" transform="translate(602.72 1137.44) rotate(-62.57)"/><ellipse class="cls-30" cx="1319.81" cy="42.54" rx="23.95" ry="19.56" transform="translate(674.06 1194.38) rotate(-62.57)"/><ellipse class="cls-31" cx="1402.33" cy="12.31" rx="23.95" ry="19.56" transform="translate(745.39 1251.31) rotate(-62.57)"/><path class="cls-28" d="M1433.63,459a314.18,314.18,0,0,0-19.54,27.5c-1.64,2.56-1.32,5.81.72,7.25a3.54,3.54,0,0,0,2.25.68l-.52,1.36c-13.47,36.39-16.56,72.55-2.59,96,9.42,15.85,26.57,26.2,54,26.79,59.54,1.29,114.76-56.43,134.84-119.75a160.66,160.66,0,0,0,6.46-34.43c2.48-28.48-3.78-47-15.39-57.84-17.09-16-46.5-15.34-79-3.68a197,197,0,0,0-48.32,24.82c-.67.48-1.34,1-2,1.45a191.63,191.63,0,0,1,18.83-20.33c15.48-14.35,31.91-23.92,47.43-25.06,2.61-.19,4.93-2.73,5.2-5.66s-1.65-5.16-4.26-5c-17.52,1.29-36.17,11.75-53.65,27.94C1461.55,416.36,1446.07,436.79,1433.63,459Zm7.21,5.59a248,248,0,0,0-15.61,33.84c-12.13,32.73-15.69,65.39-3.12,86.51,8.26,13.89,23.53,22.5,47.52,23,55,1.19,105.68-52.64,124.22-111.13a146.34,146.34,0,0,0,5.9-31.7c2.14-24.46-2.71-40.61-12.69-49.93-15.27-14.29-41.73-12.62-70.74-2.19a185.79,185.79,0,0,0-45.72,23.44A152,152,0,0,0,1440.84,464.57Zm77.36,71a14.79,14.79,0,0,1,.2,2.31,59.53,59.53,0,0,1-.77,7.11c-.71,5-1.42,10.17-1,13.9.5,4,2.16,6.76,5.12,8,4.26,1.79,9.2.35,14-2.95,5.41-3.71,10.73-9.87,14-13.19,2.09-2.12,2.51-5.49.94-7.53s-4.54-1.94-6.64.19c-2.45,2.48-6.14,6.79-10.12,10.08a19,19,0,0,1-4.85,3.11,3.75,3.75,0,0,1-2.86.23c-.26-.11-.17-.52-.23-.86a17.37,17.37,0,0,1,0-3.34c.27-4.18,1.27-9.15,1.67-13.37.6-6.67-.74-11.66-4.19-13.51a9,9,0,0,0-6.47-.52c-2.79.64-6.68,2.43-11.93,5.95a49.69,49.69,0,0,0-10.39,8.86c-3.3,4-6.18,9.09-8.9,13.48-1.59,2.59-1.21,5.82.86,7.22s5,.41,6.66-2.18c2.39-3.89,4.89-8.48,7.8-12A49.42,49.42,0,0,1,1516.45,536,8.47,8.47,0,0,1,1518.2,535.57Zm-32.93-44.17c0,.2,0,.4-.08.6a54.55,54.55,0,0,0-.78,9.8,10.67,10.67,0,0,0,2.48,6.84c4.7,5,12.56,4,21.74-1.7,16.32-10.16,37.87-35.19,45.6-41.11a6.25,6.25,0,0,0,2-7.46c-1.21-2.34-4.09-2.79-6.4-1-6.58,5-23.22,24.05-38,35.72-4.39,3.46-8.58,6.27-12.22,7.58-2.24.8-4.22,1.12-5.54-.21a5.05,5.05,0,0,1-.15-.76,16.87,16.87,0,0,1,0-2.25c.19-2.74.75-5.85,1.06-8.63a22.85,22.85,0,0,0-.15-7.87,6.6,6.6,0,0,0-3.84-4.79c-1.07-.43-2.87-.66-5.15,1.05-1.57,1.17-4.82,5-8.85,10.13-6,7.63-14.22,18.41-21.58,25.22a30.92,30.92,0,0,1-5.93,4.51,10.26,10.26,0,0,1-1.06.52c0-.12,0-.25,0-.37a36.58,36.58,0,0,1,1.3-5c4.5-13.92,16.74-36.53,20.84-41.7,1.89-2.37,1.93-5.69.11-7.44s-4.83-1.24-6.71,1.12c-3.87,4.87-14.43,23.77-20.47,38.73-3.16,7.83-5,14.73-4.68,18.56.26,3.6,1.83,5.66,4.19,6.47a10.35,10.35,0,0,0,7.23-.48,34.56,34.56,0,0,0,9.8-6.65C1468.79,512.94,1478.88,499.41,1485.27,491.4Zm87.84-48.8A137.93,137.93,0,0,0,1553.75,471c-1.41,2.71-.76,5.83,1.46,7s5.14-.12,6.55-2.81a123.25,123.25,0,0,1,17.39-25.62c2-2.22,2.31-5.59.64-7.52S1575.12,440.38,1573.11,442.6Z"/><ellipse class="cls-32" cx="554.08" cy="229.38" rx="9.6" ry="13.26"/><path class="cls-33" d="M525,171.55l13.7-4.83,16.58,49.4c-8,.85-10,6.25-10.78,12.51Z"/><path class="cls-16" d="M475.33,163.24q-1.12-4.16-2-8.39c-5.9-27.39-3.28-50.69,4.69-64.25,6.65-11.32,16.74-16.92,29.22-15.25,10.64,1.41,22.11,8.66,32.4,20.44,13.88,15.91,26,40.16,31.66,66.5,5.9,27.39,3.28,50.69-4.69,64.24-3.53,6-8,10.42-13.35,13-7.11-4.39-9.06-10-4-17.22a24.34,24.34,0,0,0,5.69-9.57c4.09-11.49,4.35-28.05.28-47-5-23.38-15.63-45-28-59.11-7.19-8.24-14.76-14-22.2-15s-12.45,4.42-15.42,12.75c-4.09,11.49-4.35,28.06-.28,47,.45,2.09.94,4.17,1.48,6.22Z"/><path class="cls-34" d="M553.46,158.52a150,150,0,0,1,4.37,16c4.07,18.9,3.81,35.46-.28,47a24.37,24.37,0,0,1-5.69,9.56,15.94,15.94,0,0,0-2.59,5.4c-3.68-3.85-4-8.49,0-14.12a24.34,24.34,0,0,0,5.69-9.57c4.09-11.49,4.35-28.05.28-47C554.69,163.33,554.1,160.91,553.46,158.52Zm-77.66,4.55-.47.16q-1.12-4.14-2-8.38c-5.9-27.39-3.28-50.69,4.69-64.25,6.65-11.32,16.74-16.92,29.22-15.25,10.64,1.41,22.11,8.66,32.4,20.44C552,110,563,130.85,569.22,153.9c-6.46-19.55-16.19-37-27-49.39-10.29-11.78-21.76-19-32.4-20.45C497.34,82.4,487.25,88,480.6,99.32,472.68,112.8,470.05,135.89,475.8,163.07Z"/><ellipse class="cls-32" cx="678.8" cy="182.85" rx="9.6" ry="13.26"/><path class="cls-33" d="M649.74,125l13.69-4.84L680,169.59c-8,.85-10,6.25-10.78,12.51Z"/><path class="cls-16" d="M600,116.71q-1.12-4.15-2-8.39c-5.89-27.4-3.27-50.69,4.69-64.25,6.65-11.33,16.74-16.92,29.22-15.26,10.64,1.42,22.11,8.67,32.4,20.45,13.89,15.91,26,40.16,31.66,66.49,5.9,27.4,3.28,50.69-4.68,64.25-3.54,6-8,10.42-13.36,13-7.11-4.39-9.06-10-4-17.22a24.34,24.34,0,0,0,5.69-9.57c4.1-11.49,4.35-28.05.28-46.95-5-23.38-15.63-45-28-59.12-7.2-8.24-14.77-14-22.21-15s-12.45,4.42-15.41,12.75c-4.1,11.49-4.36,28.05-.29,47,.45,2.09,1,4.16,1.48,6.22Z"/><path class="cls-35" d="M678.18,112a152.42,152.42,0,0,1,4.36,16c4.07,18.9,3.82,35.45-.28,47a24.3,24.3,0,0,1-5.69,9.56,16,16,0,0,0-2.59,5.41c-3.68-3.85-4-8.49,0-14.12a24.34,24.34,0,0,0,5.69-9.57c4.09-11.49,4.35-28.05.28-47C679.4,116.8,678.82,114.38,678.18,112Zm-77.66,4.55-.48.16q-1.12-4.15-2-8.38c-5.89-27.4-3.27-50.69,4.69-64.25,6.65-11.33,16.74-16.92,29.22-15.26,10.65,1.42,22.11,8.67,32.4,20.45,12.4,14.2,23.38,35.06,29.62,58.11-6.45-19.55-16.19-37-27-49.39-10.29-11.79-21.75-19-32.4-20.45-12.48-1.66-22.57,3.93-29.22,15.26C597.39,66.27,594.76,89.36,600.52,116.54Z"/><ellipse class="cls-32" cx="803.51" cy="136.32" rx="9.6" ry="13.26"/><path class="cls-33" d="M774.45,78.49l13.7-4.84,16.58,49.41c-8,.84-10,6.25-10.78,12.51Z"/><path class="cls-16" d="M724.76,70.18c-.75-2.77-1.44-5.57-2-8.39-5.9-27.4-3.28-50.69,4.68-64.26,6.65-11.32,16.75-16.91,29.22-15.25C767.27-16.3,778.73-9.06,789,2.73c13.89,15.91,26,40.16,31.67,66.49,5.89,27.4,3.27,50.69-4.69,64.25-3.53,6-8,10.42-13.36,13-7.1-4.4-9.06-10-4-17.22a24.4,24.4,0,0,0,5.68-9.57c4.1-11.49,4.36-28.05.29-46.95-5-23.38-15.64-45-28-59.12-7.19-8.24-14.77-14-22.21-15S742,3,739.05,11.35c-4.1,11.5-4.35,28.06-.28,47q.68,3.13,1.48,6.22Z"/><path class="cls-36" d="M802.89,65.46a151.78,151.78,0,0,1,4.37,16c4.06,18.9,3.81,35.45-.29,47a24.29,24.29,0,0,1-5.68,9.56,15.66,15.66,0,0,0-2.59,5.4c-3.68-3.85-4-8.48,0-14.11a24.33,24.33,0,0,0,5.68-9.57c4.1-11.49,4.36-28.06.29-47C804.11,70.27,803.53,67.84,802.89,65.46ZM725.23,70l-.47.17c-.75-2.77-1.44-5.56-2-8.38-5.9-27.4-3.28-50.69,4.68-64.26,6.65-11.32,16.75-16.91,29.22-15.25C767.27-16.3,778.73-9.06,789,2.73c12.4,14.2,23.38,35.06,29.63,58.1-6.46-19.55-16.19-37-27-49.38C781.35-.34,769.89-7.58,759.24-9,746.77-10.66,736.67-5.07,730,6.25,722.11,19.73,719.47,42.82,725.23,70Z"/><ellipse class="cls-32" cx="929.87" cy="90.68" rx="9.6" ry="13.26"/><path class="cls-33" d="M900.81,32.85,914.51,28l16.58,49.41c-8,.85-10,6.25-10.78,12.51Z"/><path class="cls-16" d="M851.12,24.54q-1.12-4.16-2-8.39c-5.9-27.4-3.28-50.69,4.69-64.25C860.41-59.43,870.51-65,883-63.36c10.65,1.42,22.11,8.67,32.4,20.45,13.89,15.91,26,40.16,31.67,66.49,5.89,27.4,3.28,50.69-4.69,64.25-3.53,6-8,10.42-13.36,13-7.1-4.39-9.06-10-4-17.22A24.21,24.21,0,0,0,930.71,74c4.1-11.49,4.36-28.05.29-46.95-5-23.38-15.64-45-28-59.12-7.19-8.24-14.77-14-22.21-15s-12.44,4.42-15.41,12.75c-4.09,11.49-4.35,28.05-.28,47q.68,3.14,1.48,6.22Z"/><path class="cls-37" d="M929.25,19.82a150,150,0,0,1,4.37,16c4.07,18.9,3.81,35.45-.29,47a24.17,24.17,0,0,1-5.68,9.56,15.61,15.61,0,0,0-2.59,5.41c-3.68-3.85-4-8.49,0-14.12A24.21,24.21,0,0,0,930.71,74c4.1-11.49,4.36-28.05.29-47C930.47,24.63,929.89,22.21,929.25,19.82Zm-77.66,4.55-.47.16q-1.12-4.16-2-8.38c-5.9-27.4-3.28-50.69,4.69-64.25C860.41-59.43,870.51-65,883-63.36c10.65,1.42,22.11,8.67,32.4,20.45C927.78-28.71,938.76-7.85,945,15.2c-6.46-19.55-16.19-37-27-49.39-10.29-11.79-21.75-19-32.4-20.45C873.13-56.3,863-50.71,856.39-39.38,848.47-25.9,845.83-2.81,851.59,24.37Z"/><ellipse class="cls-32" cx="1055.96" cy="45.11" rx="9.6" ry="13.26"/><path class="cls-33" d="M1026.9-12.72l13.7-4.83,16.58,49.4c-8,.85-10,6.25-10.79,12.51Z"/><path class="cls-16" d="M977.2-21q-1.12-4.16-2-8.39c-5.9-27.39-3.28-50.69,4.68-64.25,6.65-11.32,16.74-16.92,29.22-15.25,10.65,1.41,22.11,8.66,32.4,20.44,13.89,15.91,26,40.16,31.66,66.49,5.9,27.4,3.28,50.7-4.68,64.25-3.54,6-8,10.42-13.36,13-7.1-4.39-9.06-10-4-17.22a24.33,24.33,0,0,0,5.68-9.57c4.1-11.49,4.35-28,.29-46.95-5-23.38-15.64-45-28-59.11-7.19-8.24-14.77-14-22.21-15s-12.45,4.42-15.41,12.75c-4.1,11.49-4.35,28.06-.29,46.95.45,2.09.95,4.17,1.48,6.22Z"/><path class="cls-38" d="M1055.34-25.75a154.94,154.94,0,0,1,4.37,16c4.06,18.9,3.81,35.45-.29,47a24.33,24.33,0,0,1-5.69,9.55,16.07,16.07,0,0,0-2.59,5.41c-3.68-3.85-4-8.49,0-14.12a24.45,24.45,0,0,0,5.68-9.57c4.1-11.49,4.35-28,.29-46.95C1056.56-20.94,1056-23.36,1055.34-25.75ZM977.68-21.2l-.48.16c-.74-2.76-1.43-5.55-2-8.38-5.9-27.39-3.28-50.69,4.68-64.25,6.65-11.32,16.74-16.92,29.22-15.26,10.65,1.42,22.11,8.67,32.4,20.45,12.4,14.21,23.38,35.06,29.63,58.11-6.46-19.55-16.2-37-27-49.39-10.29-11.78-21.75-19-32.4-20.45-12.48-1.66-22.57,3.94-29.22,15.26C974.56-71.47,971.92-48.38,977.68-21.2Z"/><ellipse class="cls-32" cx="1178.7" cy="-0.95" rx="9.6" ry="13.26"/><path class="cls-16" d="M1100-67.09q-1.12-4.16-2-8.39c-5.9-27.39-3.28-50.69,4.69-64.25,6.64-11.32,16.74-16.92,29.22-15.25,10.64,1.41,22.1,8.66,32.39,20.44,13.89,15.91,26,40.17,31.67,66.5,5.9,27.39,3.28,50.69-4.69,64.24-3.53,6-8,10.42-13.35,13-7.11-4.4-9.07-10-4-17.23a24.34,24.34,0,0,0,5.69-9.57c4.09-11.49,4.35-28,.28-46.94-5-23.39-15.63-45-28-59.12-7.19-8.24-14.76-14-22.2-15s-12.45,4.42-15.42,12.75c-4.09,11.49-4.35,28.06-.28,47,.45,2.09.94,4.17,1.48,6.22Z"/><path class="cls-39" d="M1178.08-71.81a150,150,0,0,1,4.37,16c4.07,18.9,3.81,35.46-.28,47a24.3,24.3,0,0,1-5.69,9.56,15.76,15.76,0,0,0-2.59,5.4c-3.68-3.85-4-8.49,0-14.12a24.34,24.34,0,0,0,5.69-9.57c4.09-11.49,4.35-28,.28-46.95C1179.31-67,1178.72-69.42,1178.08-71.81Zm-77.66,4.55-.47.16q-1.12-4.14-2-8.38c-5.9-27.39-3.28-50.69,4.69-64.25,6.65-11.32,16.74-16.92,29.21-15.25,10.65,1.41,22.11,8.66,32.4,20.44,12.4,14.21,23.38,35.06,29.63,58.11-6.46-19.55-16.19-37-27-49.39-10.29-11.78-21.75-19-32.39-20.45-12.48-1.66-22.58,3.94-29.22,15.26C1097.3-117.53,1094.67-94.44,1100.42-67.26Z"/><ellipse class="cls-40" cx="3748.77" cy="2401.02" rx="711.98" ry="40.04" transform="translate(-570.89 1324.57) rotate(-18.65)"/><path class="cls-8" d="M3054.64,2516.39l1114.73-389.21,214.68-30.4a19.12,19.12,0,0,1,12.41,35.37L4225,2234.5,3340.58,2551Z"/><path class="cls-19" d="M4401.14,2103.21a18.74,18.74,0,0,1,3.55,6.16,19.12,19.12,0,0,1-8.23,22.78L4225,2234.49,3340.58,2551l-116.72-14.14L4198,2200.57c4.48-23.58-17.09-50.5-17.09-50.5,20.08,13.53,31.64,39.53,31.64,39.53s81.4-28.63,129.37-51.13A370.69,370.69,0,0,0,4401.14,2103.21Z"/><path class="cls-41" d="M920,1742.25c-10.2-9.79-27.3-14.43-38.16-10.34L-390.67,2211.05c-10.85,4.09-11.38,15.36-1.18,25.15L324,2923.11c10.21,9.79,27.31,14.42,38.17,10.33l1226.39-459.71,31.65-75.94Z"/><path class="cls-42" d="M899.94,1694.61c-10.2-9.79-27.3-14.42-38.16-10.34L-410.76,2163.41c-10.86,4.09-11.39,15.37-1.18,25.16l715.83,686.9c10.2,9.79,27.3,14.43,38.16,10.34L1614.6,2406.67c10.86-4.09,11.38-15.36,1.17-25.15Z"/><path class="cls-43" d="M905.75,1679.65c-10.2-9.79-27.3-14.43-38.16-10.34L-419,2016.83c-10.85,4.09,2.64,147,12.84,156.77l715.83,686.91c10.21,9.79,27.31,14.42,38.17,10.33L1620.41,2391.7c-37.4-5.66-32.92-144.62-.55-153Z"/><path class="cls-44" d="M-400.84,2117.2l-1.23.46c-10.87,4.09-11.39,15.36-1.18,25.16l715.82,686.9c10.2,9.79,27.3,14.42,38.17,10.34l1249.7-470.54c-2.8-11.11-4.83-23.1-4.83-23.1L353,2814.29c-10.85,4.09-28-.54-38.15-10.34Z"/><path class="cls-44" d="M-400.84,2063.78l-1.23.47c-10.87,4.08-11.39,15.35-1.18,25.15l715.82,686.9c10.2,9.79,27.3,14.43,38.17,10.34L1594,2318.28a95.88,95.88,0,0,1,1.58-25.28L353,2760.87c-10.85,4.09-28-.54-38.15-10.34Z"/><path class="cls-45" d="M899.94,1541.62c-10.2-9.79-27.3-14.42-38.16-10.34L-410.76,2010.42c-10.86,4.09-11.39,15.37-1.18,25.16l715.83,686.9c10.2,9.79,27.3,14.43,38.16,10.34L1614.6,2253.68c10.86-4.09,11.38-15.36,1.17-25.15Z"/><path class="cls-42" d="M-409.53,2010l-1.23.46c-10.86,4.09-11.39,15.36-1.18,25.15l715.82,686.9c10.2,9.8,27.31,14.43,38.17,10.34L1614.6,2253.68c10.85-4.09,11.37-15.36,1.17-25.15l-.15-.15L344.29,2707.06c-10.84,4.08-28-.55-38.15-10.34Z"/><path class="cls-42" d="M-335.36,2016l1129-380.48-14-11.25Z"/><path class="cls-46" d="M1215.38,2237.25l25-50.11L1165,2127.58,854.72,1677l-1174,415.61,553.9,545.51Z"/><path class="cls-42" d="M586.24,1551c-9.22-8.85-24.67-13-34.49-9.34l-1150,433c-9.82,3.7-10.29,13.89-1.07,22.74L47.58,2618.19c9.22,8.85,24.67,13,34.49,9.34l1150-433c9.82-3.7,10.29-13.88,1.07-22.73Z"/><path class="cls-43" d="M591.49,1537.51c-9.22-8.85-24.67-13-34.49-9.34l-1162.69,314c-9.81,3.7,2.39,132.83,11.61,141.68l646.9,620.77c9.22,8.85,24.68,13,34.49,9.34l1150-433c-33.79-5.11-29.74-130.69-.49-138.29Z"/><path class="cls-44" d="M-589.3,1932.93l-1.11.42c-9.82,3.69-10.29,13.88-1.07,22.73l646.9,620.76c9.22,8.85,24.68,13,34.49,9.35L1219.29,2161c-2.53-10-4.36-20.87-4.36-20.87L91.94,2562.9c-9.8,3.7-25.26-.49-34.48-9.34Z"/><path class="cls-44" d="M-589.3,1884.66l-1.11.41c-9.82,3.7-10.29,13.88-1.07,22.73l646.9,620.77c9.22,8.85,24.68,13,34.49,9.34l1123.58-423.26a86.61,86.61,0,0,1,1.44-22.85l-1123,422.83c-9.8,3.69-25.26-.5-34.48-9.35Z"/><path class="cls-47" d="M586.24,1412.77c-9.22-8.84-24.67-13-34.49-9.34l-1150,433c-9.82,3.69-10.29,13.88-1.07,22.73L47.58,2479.93c9.22,8.85,24.67,13,34.49,9.34l1150-433c9.82-3.7,10.29-13.88,1.07-22.73Z"/><path class="cls-42" d="M-597.15,1836l-1.11.42c-9.82,3.69-10.29,13.88-1.07,22.73l646.9,620.76c9.22,8.85,24.67,13,34.49,9.35l1150-433c9.8-3.69,10.27-13.88,1.05-22.73l-.14-.14L84.09,2466c-9.8,3.7-25.26-.49-34.48-9.34Z"/><path class="cls-42" d="M-530.13,1841.47,544.42,1451.69l-13.36-11.53Z"/><polygon class="cls-48" points="545.37 1535.13 1011.59 1991.75 691.42 2105.1 225.2 1648.47 545.37 1535.13"/><path class="cls-49" d="M3600.93-562.27c-9.22-8.84-24.67-13-34.48-9.34l-1150,433c-9.81,3.69-10.29,13.88-1.07,22.73l646.91,620.76c9.22,8.85,24.68,13,34.49,9.34l1150-433c9.81-3.7,10.28-13.88,1.06-22.73Z"/><path class="cls-50" d="M3619.34-592.88c-9.22-8.85-24.67-13-34.49-9.34l-1150,433c-9.81,3.7-10.28,13.89-1.06,22.73l646.9,620.77c9.22,8.85,24.68,13,34.49,9.34l1150-433c9.82-3.69,10.28-13.87,1.06-22.72Z"/><path class="cls-51" d="M3624.59-606.4c-9.23-8.85-24.68-13-34.49-9.35L2427.4-301.69C2417.6-298,2429.79-168.86,2439-160l646.91,620.77c9.22,8.84,24.68,13,34.49,9.34l1150-433c-33.79-5.11-29.75-130.69-.49-138.29Z"/><path class="cls-52" d="M2443.8-211l-1.11.42c-9.82,3.69-10.29,13.88-1.07,22.73l646.9,620.76c9.22,8.85,24.67,13,34.49,9.35L4252.38,17C4249.85,7,4248-3.83,4248-3.83L3125,419c-9.8,3.7-25.26-.49-34.48-9.34Z"/><path class="cls-52" d="M2443.8-259.25l-1.11.41c-9.82,3.7-10.29,13.88-1.07,22.73l646.9,620.77c9.22,8.85,24.67,13,34.49,9.34L4246.59-29.26A86.61,86.61,0,0,1,4248-52.11L3125,370.72c-9.8,3.69-25.26-.5-34.48-9.35Z"/><path class="cls-28" d="M3619.34-731.14c-9.22-8.85-24.67-13-34.49-9.34l-1150,433c-9.81,3.7-10.28,13.89-1.06,22.73L3080.67,336c9.22,8.85,24.68,13,34.49,9.34l1150-433c9.82-3.7,10.28-13.88,1.06-22.73Z"/><path class="cls-50" d="M2436-307.89l-1.12.42c-9.81,3.69-10.29,13.88-1.06,22.73L3080.66,336c9.23,8.85,24.68,13,34.5,9.35l1150-433c9.8-3.7,10.27-13.88,1.05-22.73l-.14-.14L3117.19,322.08c-9.81,3.69-25.26-.49-34.48-9.34Z"/></g></g></svg>