<svg id="Layer_1" data-name="Layer 1" xmlns="http://www.w3.org/2000/svg" xmlns:xlink="http://www.w3.org/1999/xlink" viewBox="0 0 5717.49 3674.41"><defs><style>.cls-1{fill:none;}.cls-2{fill:#aed3f0;}.cls-3{fill:#c3dcf3;}.cls-10,.cls-11,.cls-12,.cls-13,.cls-14,.cls-15,.cls-16,.cls-17,.cls-18,.cls-19,.cls-21,.cls-22,.cls-23,.cls-24,.cls-25,.cls-26,.cls-27,.cls-3,.cls-32,.cls-33,.cls-34,.cls-35,.cls-36,.cls-37,.cls-38,.cls-39,.cls-40,.cls-41,.cls-42,.cls-44,.cls-45,.cls-46,.cls-47,.cls-48,.cls-49,.cls-5,.cls-50,.cls-51,.cls-52,.cls-53,.cls-54,.cls-55,.cls-6,.cls-7,.cls-8{fill-rule:evenodd;}.cls-4{clip-path:url(#clip-path);}.cls-5{fill-opacity:0.1;}.cls-6{fill:#e8f6ff;}.cls-11,.cls-12,.cls-7,.cls-9{fill:#fff;}.cls-8{fill:#bbe3f8;}.cls-10{fill:#bae4ff;}.cls-11{fill-opacity:0.45;}.cls-12{fill-opacity:0.55;}.cls-13{fill-opacity:0.11;}.cls-14{fill-opacity:0.06;}.cls-15{fill:#4067b1;}.cls-16{fill:#2d4584;}.cls-17,.cls-28{fill:#8ebbe5;}.cls-18,.cls-20{fill:#d9effb;}.cls-19{fill:#adddf6;}.cls-21{fill:#ebd063;}.cls-22,.cls-31{fill:#987e14;}.cls-23{fill:#64530d;}.cls-24{fill:#bd9d19;}.cls-25{fill:#c3a119;}.cls-26{fill:#f9f2d4;}.cls-27,.cls-29{fill:#ec6198;}.cls-30,.cls-50{fill:#44ae9e;}.cls-32{fill:#e4c02e;}.cls-33{fill:url(#linear-gradient);}.cls-34{fill:url(#linear-gradient-2);}.cls-35{fill:url(#linear-gradient-3);}.cls-36{fill:url(#linear-gradient-4);}.cls-37{fill:url(#linear-gradient-5);}.cls-38{fill:url(#linear-gradient-6);}.cls-39{fill:url(#linear-gradient-7);}.cls-40{fill:url(#linear-gradient-8);}.cls-41{fill:url(#linear-gradient-9);}.cls-42{fill:url(#linear-gradient-10);}.cls-43{fill-opacity:0.13;}.cls-44{fill-opacity:0.16;}.cls-45{fill:#05837c;}.cls-46{fill:#d5efeb;}.cls-47{fill:#b1e1da;}.cls-48{fill:#3fa092;}.cls-49{fill:#35887c;}.cls-51{fill:#66c3b5;}.cls-52{fill-opacity:0.09;}.cls-53{fill:#a0506f;}.cls-54{fill:#ffdfec;}.cls-55{fill:#ffc2db;}</style><clipPath id="clip-path"><rect class="cls-1" x="609.02" y="741.35" width="4497.79" height="2498.4"/></clipPath><linearGradient id="linear-gradient" x1="1909.29" y1="2535.82" x2="1910.48" y2="2535.82" gradientTransform="matrix(-57.71, -100.03, -100.03, 57.71, 364981.17, 45549.61)" gradientUnits="userSpaceOnUse"><stop offset="0" stop-color="#fff" stop-opacity="0"/><stop offset="1" stop-color="#fff"/></linearGradient><linearGradient id="linear-gradient-2" x1="1909.26" y1="2535.65" x2="1910.45" y2="2535.65" gradientTransform="matrix(-57.71, -100.03, -100.03, 57.71, 365086.65, 45510.38)" xlink:href="#linear-gradient"/><linearGradient id="linear-gradient-3" x1="1909.23" y1="2535.47" x2="1910.42" y2="2535.47" gradientTransform="matrix(-57.71, -100.03, -100.03, 57.71, 365192.12, 45471.15)" xlink:href="#linear-gradient"/><linearGradient id="linear-gradient-4" x1="1909.2" y1="2535.3" x2="1910.39" y2="2535.3" gradientTransform="matrix(-57.71, -100.03, -100.03, 57.71, 365298.99, 45432.68)" xlink:href="#linear-gradient"/><linearGradient id="linear-gradient-5" x1="1909.17" y1="2535.12" x2="1910.36" y2="2535.12" gradientTransform="matrix(-57.71, -100.03, -100.03, 57.71, 365405.62, 45394.26)" xlink:href="#linear-gradient"/><linearGradient id="linear-gradient-6" x1="1909.15" y1="2534.95" x2="1910.33" y2="2534.95" gradientTransform="matrix(-57.71, -100.03, -100.03, 57.71, 365509.43, 45355.43)" xlink:href="#linear-gradient"/><linearGradient id="linear-gradient-7" x1="1909.12" y1="2534.77" x2="1910.3" y2="2534.77" gradientTransform="matrix(-57.71, -100.03, -100.03, 57.71, 365615.24, 45316.86)" xlink:href="#linear-gradient"/><linearGradient id="linear-gradient-8" x1="1909.09" y1="2534.6" x2="1910.27" y2="2534.6" gradientTransform="matrix(-57.71, -100.03, -100.03, 57.71, 365719.89, 45278.97)" xlink:href="#linear-gradient"/><linearGradient id="linear-gradient-9" x1="1909.06" y1="2534.42" x2="1910.24" y2="2534.42" gradientTransform="matrix(-57.71, -100.03, -100.03, 57.71, 365826.39, 45240.44)" xlink:href="#linear-gradient"/><linearGradient id="linear-gradient-10" x1="1909.03" y1="2534.25" x2="1910.21" y2="2534.25" gradientTransform="matrix(-57.71, -100.03, -100.03, 57.71, 365932.14, 45201.05)" xlink:href="#linear-gradient"/></defs><rect class="cls-2" x="609.02" y="741.35" width="4497.79" height="2498.4"/><path class="cls-3" d="M609,2517.34v722.41H3230.43a710.18,710.18,0,0,1-91.54-91c-49.49-59.33-89.89-127.52-147-180.42-168.29-155.94-405-229.32-623.62-273.46C1819,2584,1122.67,2768.39,609,2517.34ZM5106.82,1500V741.35H3108c200.1,111,392.72,237,579.24,362.26,121.15,81.36,213.69,189.07,350.65,248.26C4342.49,1483.49,4748.38,1561.76,5106.82,1500Z"/><rect class="cls-1" x="609.02" y="741.35" width="4497.79" height="2498.4"/><g class="cls-4"><path class="cls-5" d="M2686.62,1694.14,2203.35,1704,1374.9,2241.44l1408.39,882.15,1073.57-696.46Z"/><path class="cls-6" d="M2690.27,1682.38,2207,1692.25l-828.45,537.44,1408.39,882.14,1073.57-696.46Z"/><path class="cls-7" d="M2445.23,2717.27c-9.62-5.91-9.33-16,.65-22.57l747-489.74c10-6.54,25.89-7.05,35.51-1.14s9.33,16-.65,22.57l-747,489.74C2470.76,2722.67,2454.85,2723.18,2445.23,2717.27Z"/><path class="cls-7" d="M2667.62,2856.57c-9.62-5.92-9.33-16,.65-22.57l747-489.74c10-6.54,25.88-7.05,35.5-1.14s9.34,16-.64,22.57l-747,489.73C2693.15,2862,2677.24,2862.48,2667.62,2856.57Z"/><polygon class="cls-8" points="2602.2 1851.54 2493.02 1923.12 2970.6 2216.65 3079.78 2145.07 2602.2 1851.54"/><polygon class="cls-8" points="2589.95 2046 2480.77 2117.58 2811.58 2320.9 2920.76 2249.32 2589.95 2046"/><polygon class="cls-8" points="2551.03 2224.07 2441.85 2295.65 2652.57 2425.16 2761.74 2353.58 2551.03 2224.07"/><polygon class="cls-8" points="2255.42 2244.37 2146.24 2315.95 2493.55 2529.41 2602.72 2457.83 2255.42 2244.37"/><polygon class="cls-8" points="1943.33 2254.55 1834.15 2326.13 2334.53 2633.66 2443.7 2562.09 1943.33 2254.55"/><ellipse class="cls-9" cx="3256.14" cy="2322.64" rx="80.71" ry="51.07" transform="translate(-160.16 242.74) rotate(-4.17)"/><ellipse class="cls-9" cx="3478.55" cy="2461.93" rx="80.71" ry="51.07" transform="translate(-169.7 259.27) rotate(-4.17)"/><ellipse class="cls-9" cx="3097.07" cy="2426.93" rx="80.71" ry="51.07" transform="translate(-168.16 231.46) rotate(-4.17)"/><ellipse class="cls-9" cx="3319.44" cy="2566.24" rx="80.71" ry="51.07" transform="translate(-177.7 247.98) rotate(-4.17)"/><ellipse class="cls-9" cx="2937.96" cy="2531.24" rx="80.71" ry="51.07" transform="translate(-176.16 220.17) rotate(-4.17)"/><ellipse class="cls-9" cx="3160.36" cy="2670.53" rx="80.71" ry="51.07" transform="translate(-185.7 236.7) rotate(-4.17)"/><ellipse class="cls-9" cx="2774.76" cy="2638.24" rx="80.71" ry="51.07" transform="translate(-184.37 208.6) rotate(-4.17)"/><ellipse class="cls-9" cx="2997.16" cy="2777.53" rx="80.71" ry="51.07" transform="translate(-193.9 225.13) rotate(-4.17)"/><ellipse class="cls-9" cx="2611.56" cy="2745.23" rx="80.71" ry="51.07" transform="translate(-192.57 197.02) rotate(-4.17)"/><ellipse class="cls-9" cx="2833.96" cy="2884.52" rx="80.71" ry="51.07" transform="matrix(1, -0.07, 0.07, 1, -202.11, 213.55)"/><polygon class="cls-7" points="1617.98 2230.47 2088.95 1924.93 2114.19 1940.74 1643.21 2246.27 1617.98 2230.47"/><polygon class="cls-7" points="1677.21 2267.57 2148.19 1962.03 2173.43 1977.84 1702.45 2283.38 1677.21 2267.57"/><path class="cls-10" d="M2207,1692.25l254.21,172,240-180.86Z"/><path class="cls-6" d="M2207,1692.25l233.51,154.53,260.68-163.39Z"/><path class="cls-5" d="M2982.21,1618.05l-475.13-89.2-920.3,356.66L2786.2,3037.22,3978.82,2575Z"/><path class="cls-6" d="M2988.17,1607.28l-475.12-89.2-920.31,356.67L2792.17,3026.46l1192.62-462.2Z"/><path class="cls-7" d="M2537.86,2570.29c-8.21-7.76-5.87-17.6,5.23-22L3374,2221.7c11.09-4.37,26.77-1.61,35,6.15s5.88,17.59-5.22,22l-830.87,326.63C2561.76,2580.8,2546.08,2578.05,2537.86,2570.29Z"/><path class="cls-7" d="M2727.26,2752.15c-8.21-7.75-5.87-17.59,5.23-22l830.87-326.63c11.1-4.36,26.78-1.61,35,6.15s5.87,17.6-5.22,22L2762.26,2758.3C2751.16,2762.66,2735.48,2759.91,2727.26,2752.15Z"/><polygon class="cls-8" points="2867.55 1754.87 2746.12 1802.61 3153.98 2187.66 3275.42 2139.93 2867.55 1754.87"/><polygon class="cls-8" points="2816.03 1942.74 2694.59 1990.47 2977.11 2257.2 3098.55 2209.46 2816.03 1942.74"/><polygon class="cls-8" points="2741.72 2109.1 2620.28 2156.84 2800.24 2326.73 2921.67 2278.99 2741.72 2109.1"/><polygon class="cls-8" points="2448.19 2068.51 2326.76 2116.24 2623.36 2396.26 2744.8 2348.52 2448.19 2068.51"/><polygon class="cls-8" points="2412.83 2271.63 2291.39 2319.37 2446.49 2465.8 2567.92 2418.06 2412.83 2271.63"/><ellipse class="cls-9" cx="3411.97" cy="2349.84" rx="51.06" ry="80.72" transform="translate(627.02 5416.98) rotate(-82.32)"/><ellipse class="cls-9" cx="3601.38" cy="2531.7" rx="51.06" ry="80.72" transform="translate(610.88 5762.23) rotate(-82.32)"/><ellipse class="cls-9" cx="3235.04" cy="2419.4" rx="51.06" ry="80.72" transform="translate(404.81 5301.89) rotate(-82.32)"/><ellipse class="cls-9" cx="3424.4" cy="2601.27" rx="51.06" ry="80.72" transform="translate(388.61 5647.12) rotate(-82.32)"/><ellipse class="cls-9" cx="3058.06" cy="2488.97" rx="51.06" ry="80.72" transform="matrix(0.13, -0.99, 0.99, 0.13, 182.55, 5186.77)"/><ellipse class="cls-9" cx="3247.47" cy="2670.83" rx="51.06" ry="80.72" transform="matrix(0.13, -0.99, 0.99, 0.13, 166.41, 5532.03)"/><ellipse class="cls-9" cx="2876.54" cy="2560.33" rx="51.06" ry="80.72" transform="translate(-45.42 5068.7) rotate(-82.32)"/><ellipse class="cls-9" cx="3065.95" cy="2742.19" rx="51.06" ry="80.72" transform="translate(-61.56 5413.95) rotate(-82.32)"/><ellipse class="cls-9" cx="2695.01" cy="2631.69" rx="51.06" ry="80.72" transform="translate(-273.4 4950.62) rotate(-82.32)"/><ellipse class="cls-9" cx="2884.42" cy="2813.55" rx="51.06" ry="80.72" transform="translate(-289.54 5295.88) rotate(-82.32)"/><polygon class="cls-7" points="1826.98 1924.49 2350.18 1721.72 2371.67 1742.36 1848.47 1945.13 1826.98 1924.49"/><polygon class="cls-7" points="1877.42 1972.93 2400.63 1770.16 2422.12 1790.8 1898.92 1993.57 1877.42 1972.93"/><path class="cls-10" d="M2513.05,1518.08l213.89,220.39,271.72-128Z"/><path class="cls-6" d="M2513.05,1518.08l197.18,199.05,288.43-106.62Z"/><polygon class="cls-11" points="2705.39 854.59 4486.07 182.34 4496.44 192.31 2715.76 864.57 2705.39 854.59"/><polygon class="cls-11" points="2801.61 947.18 4582.29 274.92 4592.66 284.9 2811.98 957.15 2801.61 947.18"/><polygon class="cls-11" points="2897.82 1039.76 4678.5 367.51 4688.87 377.49 2908.19 1049.74 2897.82 1039.76"/><polygon class="cls-11" points="2994.03 1132.36 4774.71 460.11 4785.08 470.09 3004.4 1142.34 2994.03 1132.36"/><polygon class="cls-11" points="3090.25 1224.95 4870.93 552.7 4881.3 562.68 3100.62 1234.93 3090.25 1224.95"/><polygon class="cls-11" points="3186.46 1317.54 4967.14 645.28 4977.51 655.26 3196.83 1327.52 3186.46 1317.54"/><polygon class="cls-11" points="3282.67 1410.12 5063.35 737.87 5073.72 747.85 3293.04 1420.1 3282.67 1410.12"/><polygon class="cls-12" points="2717.84 708.57 2727.73 704.84 3531.75 1478.56 3521.86 1482.29 2717.84 708.57"/><polygon class="cls-12" points="2834.09 664.68 2843.98 660.95 3648 1434.68 3638.11 1438.41 2834.09 664.68"/><polygon class="cls-12" points="2950.34 620.8 2960.22 617.06 3764.24 1390.79 3754.36 1394.52 2950.34 620.8"/><polygon class="cls-12" points="3066.59 576.91 3076.47 573.18 3880.49 1346.9 3870.61 1350.64 3066.59 576.91"/><polygon class="cls-12" points="3182.84 533.02 3192.72 529.29 3996.74 1303.02 3986.86 1306.75 3182.84 533.02"/><polygon class="cls-12" points="3299.09 489.14 3308.97 485.41 4112.99 1259.13 4103.11 1262.86 3299.09 489.14"/><polygon class="cls-12" points="3415.34 445.25 3425.22 441.52 4229.24 1215.25 4219.36 1218.98 3415.34 445.25"/><polygon class="cls-12" points="3531.58 401.37 3541.47 397.63 4345.49 1171.36 4335.6 1175.09 3531.58 401.37"/><polygon class="cls-12" points="3647.83 357.48 3657.72 353.75 4461.74 1127.47 4451.85 1131.21 3647.83 357.48"/><polygon class="cls-12" points="3764.08 313.59 3773.97 309.86 4577.98 1083.58 4568.1 1087.32 3764.08 313.59"/><polygon class="cls-12" points="3880.34 269.7 3890.22 265.97 4694.24 1039.7 4684.36 1043.43 3880.34 269.7"/><polygon class="cls-12" points="3996.58 225.82 4006.47 222.08 4810.49 995.81 4800.6 999.54 3996.58 225.82"/><polygon class="cls-12" points="4112.83 181.93 4122.71 178.2 4926.73 951.92 4916.85 955.65 4112.83 181.93"/><polygon class="cls-12" points="4229.07 138.04 4238.96 134.31 5042.98 908.04 5033.09 911.77 4229.07 138.04"/><path class="cls-13" d="M4432.28,1209.7c-17.45-16.75-47.51-24.38-67.05-17l-2154,810.92c-19.55,7.36-21.25,26.94-3.79,43.69L3432,3222.24c17.46,16.75,47.52,24.38,67.07,17l2154-810.92c19.54-7.35,21.24-26.93,3.78-43.68Z"/><path class="cls-13" d="M4432.28,1209.7c-17.45-16.75-47.51-24.38-67.05-17l-2154,810.92c-19.55,7.36-21.25,26.94-3.79,43.69L3432,3222.24c17.46,16.75,47.52,24.38,67.07,17l2154-810.92c19.54-7.35,21.24-26.93,3.78-43.68Z"/><path class="cls-14" d="M2485.47,1487.88l-1890,823.36-78.7-271.95,554.8-358.18Z"/><path class="cls-14" d="M2485.47,1487.88,865.53,2124l69.35-294.82,136.73-148Z"/><path class="cls-15" d="M4470,1143.49c-17.46-16.75-47.51-24.38-67.06-17L2253.27,1876.88c-19.55,7.36-25.61,87.45-8.15,104.2L3469.74,3156c17.46,16.75,47.51,24.38,67.07,17l2154-810.92c19.55-7.36,33.91-88.23,16.45-105Z"/><path class="cls-16" d="M4480.82,1077.77c-17.46-16.74-47.52-24.37-67.06-17l-2154,810.92c-19.55,7.37-21.25,26.95-3.79,43.7l1224.62,1175c17.45,16.75,47.51,24.37,67.06,17l2154-810.92c19.54-7.35,21.24-26.94,3.78-43.68Z"/><path class="cls-17" d="M4471.52,1143.23c-16.2-15.55-43.35-22.91-60.58-16.42L2390.6,1887.4c-17.24,6.49-18.08,24.38-1.88,39.92L3525.2,3017.71c16.2,15.54,43.36,22.9,60.59,16.41l2020.34-760.58c17.24-6.49,18.07-24.38,1.87-39.93Z"/><path class="cls-18" d="M3384.65,1690.58c-29.77-29.31-82.7-42-118.13-28.39l-654.22,252c-35.43,13.65-40,48.52-10.23,77.83l353.76,348.2c29.78,29.31,82.71,42,118.13,28.38l654.23-252c35.43-13.65,40-48.52,10.22-77.83Z"/><polygon class="cls-7" points="2840.93 2085.38 2949.6 2040.2 3031.36 2122.37 2922.69 2167.54 2840.93 2085.38"/><polygon class="cls-7" points="2961.66 2206.68 3425.38 2013.93 3507.14 2096.1 3043.42 2288.85 2961.66 2206.68"/><polygon class="cls-7" points="2716.26 1960.1 2824.94 1914.93 2906.7 1997.09 2798.03 2042.27 2716.26 1960.1"/><polygon class="cls-7" points="3080.39 1985.84 3189.07 1940.66 3270.83 2022.83 3162.16 2068 3080.39 1985.84"/><polygon class="cls-7" points="3085.23 1806.74 3193.9 1761.57 3275.66 1843.73 3166.99 1888.9 3085.23 1806.74"/><polygon class="cls-7" points="2959.9 2035.92 3068.58 1990.75 3150.34 2072.92 3041.66 2118.09 2959.9 2035.92"/><polygon class="cls-7" points="2835.24 1910.65 2943.92 1865.47 3025.68 1947.64 2917 1992.81 2835.24 1910.65"/><polygon class="cls-7" points="3199.37 1936.38 3308.05 1891.21 3389.81 1973.38 3281.13 2018.55 3199.37 1936.38"/><polygon class="cls-7" points="3204.2 1757.28 3312.88 1712.11 3394.64 1794.28 3285.96 1839.45 3204.2 1757.28"/><path class="cls-19" d="M2585.66,1937.11c-7.38,16.12-2.2,36.61,16.43,54.93l353.74,348.21c29.79,29.3,82.72,42,118.14,28.37l654.22-252c20.63-7.95,30.79-23.09,29.82-40.13-4.43,9.67-13.37,17.77-26.65,22.89l-654.22,252c-35.44,13.64-88.37.93-118.13-28.37L2605.24,1974.8C2592.82,1962.55,2586.36,1949.34,2585.66,1937.11Z"/><path class="cls-15" d="M3885.05,1471.82a7.2,7.2,0,0,0-6.93-1.64l-379.73,153.26c-2,.82-2.2,2.87-.4,4.59l6.54,6.23a7.17,7.17,0,0,0,6.92,1.64l379.73-153.26c2-.82,2.2-2.87.4-4.59Z"/><path class="cls-15" d="M4411.56,1253.13a7.16,7.16,0,0,0-6.93-1.63L4024.9,1404.75c-2,.82-2.2,2.87-.4,4.59l6.54,6.23a7.17,7.17,0,0,0,6.92,1.64L4417.69,1264c2-.81,2.2-2.87.4-4.59Z"/><path class="cls-15" d="M3914.61,1500a7.2,7.2,0,0,0-6.93-1.64L3528,1651.63c-2,.82-2.2,2.87-.4,4.59l6.54,6.23a7.17,7.17,0,0,0,6.92,1.64l379.73-153.26c2-.82,2.2-2.87.4-4.59Z"/><path class="cls-15" d="M4441.12,1281.32a7.17,7.17,0,0,0-6.93-1.63l-379.73,153.25c-2,.82-2.2,2.87-.4,4.59l6.54,6.23a7.17,7.17,0,0,0,6.92,1.64l379.73-153.26c2-.82,2.2-2.87.4-4.59Z"/><path class="cls-15" d="M3944.16,1528.19a7.19,7.19,0,0,0-6.92-1.63L3557.5,1679.82c-2,.81-2.19,2.87-.39,4.59l6.53,6.23a7.15,7.15,0,0,0,6.92,1.63L3950.3,1539c2-.82,2.2-2.88.4-4.6Z"/><path class="cls-15" d="M4470.68,1309.51a7.17,7.17,0,0,0-6.93-1.63L4084,1461.14c-2,.81-2.2,2.86-.4,4.58l6.54,6.23a7.15,7.15,0,0,0,6.92,1.64l379.73-153.26c2-.81,2.2-2.87.4-4.59Z"/><path class="cls-15" d="M3838.78,1610.84a7.14,7.14,0,0,0-6.92-1.63l-244.8,98.8c-2,.81-2.19,2.87-.39,4.59l6.53,6.23a7.15,7.15,0,0,0,6.92,1.63l244.8-98.8c2-.81,2.2-2.87.4-4.59Z"/><path class="cls-15" d="M4365.3,1392.16a7.18,7.18,0,0,0-6.92-1.64l-244.8,98.8c-2,.82-2.2,2.87-.4,4.59l6.54,6.23a7.17,7.17,0,0,0,6.92,1.64l244.8-98.8c2-.82,2.19-2.87.39-4.59Z"/><path class="cls-15" d="M3884.36,1757.55a39.67,39.67,0,0,0,12.48-65.47l-5.49-5.24a39.44,39.44,0,0,0-42-8l-164.23,66.28a39.67,39.67,0,0,0-12.48,65.47l5.49,5.24a39.42,39.42,0,0,0,42,8Z"/><path class="cls-15" d="M4410.88,1538.85a39.69,39.69,0,0,0,12.48-65.47l-5.5-5.24a39.42,39.42,0,0,0-41.95-8l-164.23,66.28a39.68,39.68,0,0,0-12.49,65.47l5.5,5.24a39.42,39.42,0,0,0,42,8Z"/><path class="cls-18" d="M2385.12,1923.51c.62-.27,1.25-.54,1.91-.79l2020.34-760.58c17.23-6.49,44.38.86,60.58,16.41L5604.43,2268.94a48.79,48.79,0,0,1,3.6,3.81c15.38-7.05,15.55-24.18,0-39.13L4471.52,1143.23c-16.21-15.55-43.35-22.9-60.58-16.41L2390.59,1887.41C2374.75,1893.38,2372.76,1909,2385.12,1923.51Z"/><path class="cls-20" d="M4109.55,2104.34a42.38,42.38,0,0,0,4.52,7.52,40.3,40.3,0,0,0,4.21,4.73c1,2.72,1.76,5.35,2.39,7.71.48,1.83.93,3.66,1.38,5.49.57,2.32,1.16,4.73,1.82,7.09a75.37,75.37,0,0,0,3.74,10.68,44.35,44.35,0,0,0,6.22,10.28,36.25,36.25,0,0,0,4.39,4.47,34.13,34.13,0,0,0,5.44,3.78,34.62,34.62,0,0,0,4.27,2c0,.15,0,.29-.07.44a37.57,37.57,0,0,0,.25,12.21,46.14,46.14,0,0,0,4.23,12.42,59.38,59.38,0,0,0,3.51,6c1.61,2.43,3.44,4.76,5.34,7.12,7,8.77,15.21,17.29,23.13,25.53l6.2,6.49c4.57,4.82,10.5,11.18,15.88,17.73a127.46,127.46,0,0,1,13,18.58l-.05-.15c4.47,8.14,7.63,16.65,10.69,24.88l1.41,3.77c1.51,4,3.56,9.3,6,14.5a93.64,93.64,0,0,0,8.05,14,1.06,1.06,0,0,0,.9.35,46,46,0,0,0,13.42.47c1.66,2.25,3.36,4.45,5.08,6.58,1.88,2.31,3.92,4.67,6.06,7,1.14,1.24,2.2,2.35,3.24,3.39s2.24,2.15,3.82,3.58l.14.08,3.07.25c9.73.28,19.23.12,28.31-.49,13.54,11.57,28.12,24.16,44.83,38.71,15.14,13.18,30.47,26.61,45.29,39.61l13.26,11.61,6.61,5.79,4.69,4.1h0l4.76,4.18c1.45,1.28,2.89,2.57,4.32,3.85,3.78,3.38,7.68,6.87,11.8,10.16a.53.53,0,0,0,.2.1,93.06,93.06,0,0,0-7.94,8.16c-1.1,1.26-2.3,2.71-3.77,4.57-.35.45-.75.9-1.15,1.34l-.64.74a26.69,26.69,0,0,0-2.24,2.93,7.33,7.33,0,0,0-1.26,2.93,2.4,2.4,0,0,0,1.05,2.37,5.53,5.53,0,0,0,2.91.82,18.31,18.31,0,0,0,4.55-.51,49.27,49.27,0,0,0,5.15-1.5l1.59-.57c1.73-.64,3.5-1.38,4.93-2l1.34-.55-.24,0,.36-.13c1.11-.41,2.18-.86,3.25-1.32,1.39-.61,2.76-1.26,4.1-1.91,2.62-1.3,5.31-2.76,8-4.35a119.46,119.46,0,0,0,14-9.84.39.39,0,0,0,.14-.48.63.63,0,0,0-.12-.25l-27.92-33.09,0,0-82.86-98.21,1.26-.51,1.13-.48c12.31,10.54,25.54,22,40.47,35,15.14,13.19,30.47,26.62,45.3,39.61l13.25,11.62,6.62,5.79,4.69,4.1h0l4.75,4.18q2.19,1.92,4.33,3.85c3.77,3.38,7.67,6.87,11.79,10.16l.2.1a96,96,0,0,0-7.94,8.16c-1.09,1.26-2.29,2.71-3.76,4.56-.36.46-.76.91-1.16,1.35l-.64.74a26.17,26.17,0,0,0-2.23,2.92,7.32,7.32,0,0,0-1.26,2.93,2.37,2.37,0,0,0,1.05,2.38,5.5,5.5,0,0,0,2.9.82,17.91,17.91,0,0,0,4.56-.52,47.48,47.48,0,0,0,5.14-1.5c.53-.18,1.07-.37,1.6-.57,1.73-.64,3.49-1.38,4.92-2l.18-.07,1.16-.47-.23,0,.35-.13c1.11-.41,2.18-.86,3.25-1.32q2.09-.93,4.11-1.92c2.61-1.29,5.31-2.75,8-4.34a121.64,121.64,0,0,0,14-9.85.37.37,0,0,0,.13-.47.45.45,0,0,0-.12-.25L4508.28,2421l0,0-94.45-111.95a44.54,44.54,0,0,0,8.5-15.24,55.91,55.91,0,0,0,1.63-6.68,22.85,22.85,0,0,0,.28-6.76l0,0c0-.22-.09-.44-.12-.66a1.43,1.43,0,0,0-.24-.16c-2-.88-4-1.79-5.84-2.68a32.38,32.38,0,0,0,5.16-14.8.53.53,0,0,0-.13-.41.86.86,0,0,0-.38-.29,366,366,0,0,1-45.33-21.24c-5.68-3.13-11.46-6.49-17.14-10-2.76-1.69-5.51-3.42-8.18-5.13-1.45-.93-2.71-1.79-3.86-2.63-.61-.44-1.21-.91-1.82-1.41a33.21,33.21,0,0,0,3.45-15.12,42.44,42.44,0,0,0-3.58-16,74.33,74.33,0,0,0-9.46-16,111.53,111.53,0,0,0-11.13-12.58,116.89,116.89,0,0,0-14.27-11.88,94.44,94.44,0,0,0-12.24-7.35,114,114,0,0,0-11.6-5.73c-1.33-.58-2.73-1.15-4.2-1.73a46.79,46.79,0,0,0,7.33-11.77,31.53,31.53,0,0,0,2.35-9.13,25.59,25.59,0,0,0-.84-9.27,28.22,28.22,0,0,0-5.48-10.26A51.18,51.18,0,0,0,4275,2084a102.18,102.18,0,0,0-15-8c-2.46-1.1-5.09-2.18-8-3.29l-1.78-.67-2.22-.84c-1.43-.54-2.86-1.1-4.28-1.66-5.85-2.32-11.14-4.64-16.16-7.08s-10-5.15-14.63-8c-2.22-1.36-4.36-2.75-6.63-4.28s-4.64-3.27-6.36-4.54c-3.29-2.42-6.82-5-10.56-7.33a67.29,67.29,0,0,0-11.57-5.89,50,50,0,0,0-6.36-2,45.54,45.54,0,0,0-6.85-1.08,48,48,0,0,0-7.41,0,53.38,53.38,0,0,0-8.37,1.3,78.49,78.49,0,0,0-8.19,2.4c-1,.33-1.91.68-2.86,1-1.71.63-3.4,1.29-5.09,2l-.8.31c-1.84.72-3.68,1.44-5.54,2.13a94.72,94.72,0,0,1-9.68,3.1c-1,.26-2,.48-3,.71l-1,.21-3.76.84-.56.13c-2.39.54-5.22,1.2-8,1.94-3.06.81-5.74,1.65-8.19,2.56a56.49,56.49,0,0,0-6,2.63,36,36,0,0,0-6,3.8,29.52,29.52,0,0,0-4.87,4.87,21.62,21.62,0,0,0-3,5,17.1,17.1,0,0,0-1.2,4.84,18.62,18.62,0,0,0,1.89,9.74c2.4,5.08,6.9,9.85,13,13.77a51.12,51.12,0,0,0,4.7,2.67c1.91,1,3.84,1.83,6.16,2.84l1,.43a96.33,96.33,0,0,1,11,5.35Z"/><path class="cls-20" d="M3552.7,2657.77a29.33,29.33,0,0,1,3.48-4.75,36.81,36.81,0,0,1,5.16-4.72c.72-.56,1.49-1.11,2.26-1.64a89.58,89.58,0,0,1,11.46-6.34l2.13-1a104,104,0,0,0,11.17-5.93l-.11.15c.88-.65,1.73-1.26,2.52-1.87.48-.36.94-.72,1.37-1.09a26.85,26.85,0,0,0,3.47-3.52,28.75,28.75,0,0,0,1.79-2.46l1.23-2a31.13,31.13,0,0,1,2.51-3.57,19.58,19.58,0,0,1,3.46-3.47,15.47,15.47,0,0,1,3.77-2.14,16.64,16.64,0,0,1,5.22-1.1,19.94,19.94,0,0,1,2.94.07,24.06,24.06,0,0,1,3.66.61,18,18,0,0,1,6.22,2.73,10.54,10.54,0,0,1,3.14,3.36c2.6,3.83,4.8,7.81,6.9,11.67.15.25.27.5.42.74l1.55.46a6.1,6.1,0,0,1,.65-.56,10.13,10.13,0,0,1,1.38-.89A14.49,14.49,0,0,1,3647,2629a30.86,30.86,0,0,1,9.43,1.54.8.8,0,0,1,.64.72c.46.09.94.21,1.41.34a17.78,17.78,0,0,1,3.19,1.35,19,19,0,0,1,2.84,1.92,19.29,19.29,0,0,1,4.3,4.93,15.48,15.48,0,0,1,2.06,4.93l2.06.86c2.26,1,4.53,1.86,6.81,2.77l.18.07a87.33,87.33,0,0,1,11.07,5.33,58.32,58.32,0,0,1,8.82,6.24,38.51,38.51,0,0,1,6.34,7,24.69,24.69,0,0,1,3.55,7.66,20.9,20.9,0,0,1,.5,8.15,25.79,25.79,0,0,1-2.84,8.53,31.41,31.41,0,0,1-3,4.64,27.71,27.71,0,0,1-2.07,2.44.28.28,0,0,0,.08.06c-1.2,1.21-2.45,2.41-3.75,3.58-1.08.8-2.22,1.59-3.36,2.39l-.36.24a21.75,21.75,0,0,1,3.73-1.82c.54-.2,1.12-.38,1.71-.54a17.81,17.81,0,0,1,5.5-.73,12.94,12.94,0,0,1,2.57.34,10.7,10.7,0,0,1,2.24.86,6.9,6.9,0,0,1,2.22,1.92q3.55.69,7.11,1.57a134.9,134.9,0,0,1,13.9,4.3,115.13,115.13,0,0,1,23.36,11.75,81.83,81.83,0,0,1,9.47,7.28,55,55,0,0,1,7.28,7.89,38.12,38.12,0,0,1,4.76,8.31,34.32,34.32,0,0,1,2.4,8.66,22.49,22.49,0,0,1,.16,5.15,11.28,11.28,0,0,1-.05,3.67,15.19,15.19,0,0,1-1.48,4.23,24.08,24.08,0,0,1-6.84,7.81,43,43,0,0,1-6.54,4c-1.14.58-2.29,1.15-3.55,1.77l-.66.31-.22.12c-1,.49-2,1-3,1.51s-2.29,1.19-3.5,1.93a20,20,0,0,0-2.28,1.6.24.24,0,0,1,0,.28.65.65,0,0,1-.27.24c-2.39,1.11-4.31,1.94-6.05,2.58a47.61,47.61,0,0,1-5.78,1.77,36.39,36.39,0,0,1-6,.87,30.39,30.39,0,0,1-6.11-.28c-1.17-.19-2.26-.43-3.29-.7a27.27,27.27,0,0,1-2.86-.95,26.48,26.48,0,0,1-2.45-1.15c-1.25-.68-2.51-1.43-3.72-2.23l-1.23,0h-.27c-.45.43-.88.83-1.35,1.23a34.45,34.45,0,0,1-5.53,3.61c-1,.52-2,1-3.06,1.59l-.56.28c-.93.48-1.86,1-2.78,1.46s-2,1.1-3,1.75a10.42,10.42,0,0,0-1.94,1.5.29.29,0,0,1,.06.25.41.41,0,0,1-.23.19,56.63,56.63,0,0,1-5.2,2.28,35.33,35.33,0,0,1-5,1.48,27.87,27.87,0,0,1-5.26.63,25.82,25.82,0,0,1-5.5-.5,28.26,28.26,0,0,1-3-.8,27.33,27.33,0,0,1-2.64-1,20.79,20.79,0,0,1-2.3-1.21,48,48,0,0,1-5.76-4c-1.07-.87-2.09-1.73-3-2.57a33.39,33.39,0,0,1-2.62-2.75,16.81,16.81,0,0,1-1.87-2.7,7,7,0,0,1-.87-2.55,3.75,3.75,0,0,1,.43-2.24,4.89,4.89,0,0,1,2.05-1.83,7.55,7.55,0,0,1,.79-.36h0a5.77,5.77,0,0,1,1-.27,10.45,10.45,0,0,1,1.07-.07,10,10,0,0,1,1.08.08c.83.11,1.6.29,2.54.51a19.44,19.44,0,0,0,2.19.45,6.21,6.21,0,0,0,1.05,0,3.8,3.8,0,0,0,.46,0,1.55,1.55,0,0,0,.36-.1,5.53,5.53,0,0,0,.57-.17l.6-.27c.2-.12.4-.24.58-.37l.37-.3a5.08,5.08,0,0,0,.58-.66,7.78,7.78,0,0,0,.47-.7c.28-.51.52-1,.76-1.57a18.15,18.15,0,0,1,1-2,28.13,28.13,0,0,1,2.57-3.47c.32-.39.68-.78,1-1.14-.89-1-1.72-1.94-2.48-2.94a41.27,41.27,0,0,1-4-1.57,48.25,48.25,0,0,1-8-4.54,38.76,38.76,0,0,1-3.12-2.5,16.47,16.47,0,0,1-2.16-2.38,16.08,16.08,0,0,1-2.95-8.33,17.6,17.6,0,0,1,1.81-8.62,26.9,26.9,0,0,1,12.51-12.06,9.4,9.4,0,0,1-1.74-1.67,5.1,5.1,0,0,1-1-2,3.35,3.35,0,0,1-.06-1.06,1.8,1.8,0,0,1,.12-.63.81.81,0,0,1,.19-.51.83.83,0,0,0,.13-.14,1.17,1.17,0,0,1,.34-.36,7.47,7.47,0,0,1,1.76-1.4,9.37,9.37,0,0,1,1.41-.65c-.85-.38-1.74-.72-2.63-1h.06a62.15,62.15,0,0,0-10.5-2.77,29.6,29.6,0,0,1-2.54,2.17,34,34,0,0,1-7.44,4.33,25.87,25.87,0,0,1-6.33,1.76,35.33,35.33,0,0,1-6.48.31c-.95,0-1.93-.11-2.92-.22a59.44,59.44,0,0,1-7,.4,71.76,71.76,0,0,1-21.2-3.44,89.51,89.51,0,0,1-10.45-4,88.23,88.23,0,0,1-10-5.4,102,102,0,0,1-9.22-6.56,90.26,90.26,0,0,1-7.95-7.14l-.67-.7a26.22,26.22,0,0,1-7.23,2.8,43.77,43.77,0,0,1-7.24,1.07,29.41,29.41,0,0,1-4.92-.1,33.11,33.11,0,0,1-4.85-.89,32.21,32.21,0,0,1-4.53-1.53,25.91,25.91,0,0,1-7.37-4.66,10.51,10.51,0,0,1-3.53-6.29,7.13,7.13,0,0,1,.51-3.41,8.8,8.8,0,0,1,1.36-2.12,32.78,32.78,0,0,1-7.78-.91,27.66,27.66,0,0,1-8.86-3.64,15.71,15.71,0,0,1-1.64-1.24,11.3,11.3,0,0,1-1.4-1.49,7.34,7.34,0,0,1-1.51-3.16,6.77,6.77,0,0,1,.41-3.57,9.35,9.35,0,0,1,2.68-3.64l.42-.35a14.83,14.83,0,0,1,5.72-2.5,26.2,26.2,0,0,1,7.74-.41,35.52,35.52,0,0,1,8.05,1.63c.78.26,1.56.54,2.33.85a11.73,11.73,0,0,1-2.32-3.81,5.62,5.62,0,0,1-.33-1.75,4.23,4.23,0,0,1,.37-1.82,4.65,4.65,0,0,1,1.07-1.51,6.13,6.13,0,0,1,.54-.45,9,9,0,0,1,1.55-.94,13.22,13.22,0,0,1,2.3-.87,15.33,15.33,0,0,1,2.41-.48,16.84,16.84,0,0,1,4.58.11,20.9,20.9,0,0,1,8.34,3.45A22.84,22.84,0,0,1,3552.7,2657.77Z"/><g id="path266"><path class="cls-20" d="M4784,2071.4l30.46-48.9a10.74,10.74,0,0,0,1.18-9.54l-20.36-56.49-.5-.3s-9-13.89,2-31a58.79,58.79,0,0,1,12.25-14.25,27.07,27.07,0,0,0-2.5-8.07,28.22,28.22,0,0,0-4.31-6.2l.12.18a29,29,0,0,0-3.15-2.84c-1.42.42-2.86.8-4.27,1.11a83.2,83.2,0,0,1-22,2,67.72,67.72,0,0,1-12.9-1.84,61.47,61.47,0,0,1-11.54-4,56.67,56.67,0,0,1-10-6,54.74,54.74,0,0,1-8.34-7.74,56.89,56.89,0,0,1-5.24-7.07c-1.95-.61-3.81-1.16-5.38-1.63l-2.44-.75c-4.65-1.4-9.18-2.81-13.64-4.5a74.13,74.13,0,0,1-12.15-5.76,46.19,46.19,0,0,1-10.23-8.27,42.8,42.8,0,0,1-4.16-5.38,29.56,29.56,0,0,1-2.58-4.85,24.66,24.66,0,0,1-1.94-9.67,25.66,25.66,0,0,1,1.91-9.37,33.53,33.53,0,0,1,5.31-8.66,52.27,52.27,0,0,1,18.72-13.63l.6-.27c1.79-.77,3.56-1.46,5.39-2.07a87.56,87.56,0,0,1,8.78-2.37c1.84-.41,3.69-.78,5.57-1.16l.33-.06c4-.8,8.08-1.62,11.88-2.77a56.86,56.86,0,0,0,5.82-2.16c.92-.41,1.81-.82,2.69-1.26,2.63-1.29,5.12-2.69,7.4-4l.88-.5a108.39,108.39,0,0,1,10.52-5.49c1.29-.56,2.54-1.06,3.88-1.52a46.93,46.93,0,0,1,6.59-1.81,44.87,44.87,0,0,1,6.47-.81,51.49,51.49,0,0,1,12.8,1,81.94,81.94,0,0,1,12.93,3.82c3.91,1.49,8,3.23,12.44,5.35a164.08,164.08,0,0,1,22,12.34,92.17,92.17,0,0,1,17.18,14.64,49.18,49.18,0,0,1,7.77,11.41,37,37,0,0,1,6.31-1.48,38.6,38.6,0,0,1,12.86.26,32.58,32.58,0,0,1,11.25,4.39,25.51,25.51,0,0,1,8,8.06,21.31,21.31,0,0,1,3.1,10.83,23.31,23.31,0,0,1-2.75,11,27.63,27.63,0,0,1-3.41,5,31.53,31.53,0,0,1-4.61,4.4,35.43,35.43,0,0,1-7.37,4.31,37.53,37.53,0,0,1-5,1.78,40.7,40.7,0,0,1-14,1.4,30.48,30.48,0,0,1-6.5-1.23,20.37,20.37,0,0,1-5.48-2.6,14.75,14.75,0,0,1-4-4.06c-.12-.19-.23-.39-.35-.59-.16.15-.31.28-.48.42a37.79,37.79,0,0,1-9.44,6c-.53.23-1.07.45-1.61.65.2.49.42,1,.65,1.43a35.37,35.37,0,0,0,5.71,8.1,49.39,49.39,0,0,0,9,7.38c.65.41,1.33.81,2,1.21,3.8-1.64,6.28-2.68,6.28-2.68h0c1-.36,11.87-2.18,11.87-2.18l0,0c15.2-2.41,41.83-5.43,61.32-1.1,22.09,4.92,78.22,48.18,85,56.24,4.72,5.6,16.85,31.5,22.3,49.52a35.84,35.84,0,0,1,2,7.22l-.1.05c.14.68.27,1.34.38,2,16,23.12,42.76,66.48,64.35,105.41,1.12,2,4.45,5.4,8.92,9.52,10.76,9.91,37.48,33.23,37.48,33.23,1.73,2.37-2.19,6.65-9.69,11.85a127.68,127.68,0,0,1,19.4,18.92,141.31,141.31,0,0,1,17.14,26h0a44.23,44.23,0,0,1,17,14.47l-55.61,20.64h0l-69.76,25.88c-4.25-6.3,5.13-8.3,11-13.21s12.78-16.38,12.78-16.38h0l-42.38-29.75-6.33-4.44c-9.05,2.29-17,3.59-23,3.46,0,0-29.25-25.48-49.65-49.66,0,0-70.8-84.37-74.34-106.36a10.88,10.88,0,0,1-2.82-3c-12.73-18.6-10.42-26.35-14.08-29.42-2.19-1.83-9.44-6.68-18.92-12.81-1.53,10.72-3.45,19.47-4.86,22.57a26.42,26.42,0,0,1-2,3.47c-8.51,13-36.49,47.51-50.62,54a8.94,8.94,0,0,1,.3,1.27c.34,2.17-.31,4.24-.55,6.35-.3,2.72-1.77,4.9-3.46,7.21-.14.2-.28.4-.46.62l171.57,201.68-8.57,3.14-168.95-203.23-.32,0c-1.19-.11-2.38.21-3.55.07a14.89,14.89,0,0,1-6.4-3c-1.38-1.28-1.84-3.86-4-4.62a11.76,11.76,0,0,0-3-.2c-3.05-.15-7.7-.46-9.6-2.59-1-1.1.89-3.69,1.51-4.74a28.16,28.16,0,0,0-9.73,1.77c-17.33,6.34-8.56,18.45-8.56,18.45s.71,1.47-1.71,2.36a3.87,3.87,0,0,1-3.74-.36s-11.37-15.71,11.1-23.94a35.82,35.82,0,0,1,15.72-2.15,48.27,48.27,0,0,1,7.68-5.59A14.19,14.19,0,0,0,4784,2071.4Zm319.54,106.26q-4.39,2-8.9,3.88a129.32,129.32,0,0,1,13.41,13.91,140.11,140.11,0,0,1,17.14,26h0a41.24,41.24,0,0,1,4,2.17,43.72,43.72,0,0,1,7.58,6,22.86,22.86,0,0,0,2.23-1.64c5.81-4.85,12.62-16.1,12.79-16.38l-42.39-29.75Z"/></g><path class="cls-20" d="M4345.06,1930.47a48.87,48.87,0,0,0,3.69,5.65c.24.32.48.64.73,1a46.09,46.09,0,0,1,2.35,5.93c.33,1,.61,2,.9,3s.61,2.08,1,3.11a39,39,0,0,0,4.79,9.78,32.7,32.7,0,0,0,7.67,7.87,37.79,37.79,0,0,0,5.11,3.14,44.86,44.86,0,0,0,6,2.54,69,69,0,0,0,15.09,3.2,101.89,101.89,0,0,0,16.49.31c1.13-.06,2.26-.14,3.4-.24a76.62,76.62,0,0,0-15.73,12,32.37,32.37,0,0,0-6.31,8.83,18.62,18.62,0,0,0-1.69,10.46,25.25,25.25,0,0,0,4.68,11.44,43.91,43.91,0,0,0,5.92,6.68,64,64,0,0,0,8.12,6.49,22.76,22.76,0,0,0,5.8,16.91,34.81,34.81,0,0,0,6.88,6,47.21,47.21,0,0,0,4.52,2.74l1.43.74c-.24.58-.47,1.17-.69,1.75-1.71.81-3.35,1.7-4.92,2.63l-.11.08c-.55.45-1.08.91-1.59,1.39l.08-.07a20.44,20.44,0,0,0-2.07,2.33,18.41,18.41,0,0,0-1.57,2.51,13.77,13.77,0,0,0-.89,2.19,12.91,12.91,0,0,0-.46,2.29,10.49,10.49,0,0,0,0,2.17,11.81,11.81,0,0,0,.39,2,13,13,0,0,0,.69,1.75,14.47,14.47,0,0,0,1.06,1.81v0l0-.05v0l0,0a14.82,14.82,0,0,0,1.23,1.54c.29.3.57.6.88.89s.73.52,1.11.77l.25.16.91.48a70.62,70.62,0,0,0,.52,10.57,69.36,69.36,0,0,0,6.17,21.16,77.51,77.51,0,0,0,13.52,19.72,101.47,101.47,0,0,0,21.41,17.2,109.76,109.76,0,0,0,12.94,6.8,134.41,134.41,0,0,0,14.29,5.38,145.06,145.06,0,0,0,15.65,4c22,21.88,46,44.6,73.51,69.48l1.57,1.43c21.87,19.78,46.13,41.12,76.32,67.18q3.69,3.2,7.41,6.38l3.7,3.19,2.83,2.44,2.64,2.29c1.92,1.67,3.81,3.35,5.71,5l1.17,1c6.4,5.71,13.65,12.16,21.35,18,3.93-.67,7.74-1.51,11.33-2.49l.28-.08c3.27,2.71,6.38,5.5,9.44,8.23,1.11,1,2.24,2,3.36,3-1.37,1.42-2.8,2.82-4.25,4.21-1.71,1.65-3.41,3.3-5.08,5-1.41,1.41-2.8,2.84-4.15,4.28l-1.13,1.24h0c-.71.79-1.31,1.5-1.84,2.16a24.41,24.41,0,0,0-2.42,3.48,6.71,6.71,0,0,0-1,3,2.69,2.69,0,0,0,1.33,2.36,7.64,7.64,0,0,0,4.17.88,34,34,0,0,0,7.09-1c2.35-.5,4.71-1.06,7.23-1.74,3.47-.93,6.94-2,10.3-3.29,1.33-.49,2.63-1,3.91-1.53a99,99,0,0,0,12.91-6.44,63.43,63.43,0,0,0,10.58-7.88,42.36,42.36,0,0,0,3.69-3.88.48.48,0,0,0,.13-.33.64.64,0,0,0-.08-.65c-.81-1.21-1.65-2.42-2.51-3.65l0,0a270.47,270.47,0,0,0-18.22-22.77c1.18-.76,2.36-1.55,3.55-2.37-.62-.8-1.24-1.54-1.89-2.28-1.77-2.06-3.58-4.12-5.41-6.17-3.75-4.21-7.55-8.38-11.1-12.26l-3.68-4c-6.2-6.74-12.26-13.35-18.13-20.07-5.13-5.85-10.22-11.85-15.14-17.66l-.39-.46c-7.8-9.19-16.64-19.61-25.74-29.5-1.38-1.5-2.76-3-4.17-4.46,7,6.22,14.18,12.35,21.1,18.29l.45.38,8.34,7.16,1.95,1.67,1.92,1.66c4.65,4,9.31,8,13.93,12l8.33,7.24,2.5,2.18.83.71,6,5.24c6.37,5.54,13.82,12,21.7,18.69,7.1,6,13,11,18.57,15.54,2.29,1.9,4.51,3.83,6.69,5.77,2.14-.37,4.25-.77,6.34-1.22,3.12,2.6,6.1,5.27,9,7.89q1.68,1.51,3.37,3c-1.38,1.42-2.81,2.82-4.26,4.21-1.7,1.65-3.41,3.3-5.08,5-1.41,1.41-2.8,2.84-4.14,4.28-.4.43-.78.84-1.13,1.24h-.05c-.71.79-1.32,1.5-1.85,2.16a23.86,23.86,0,0,0-2.42,3.48,7,7,0,0,0-1,3,2.69,2.69,0,0,0,1.34,2.36,7.58,7.58,0,0,0,4.16.88,34.73,34.73,0,0,0,7.09-1c2.36-.5,4.72-1.06,7.23-1.74,3.47-.94,6.94-2,10.31-3.29,1.32-.49,2.62-1,3.91-1.54a97.55,97.55,0,0,0,12.9-6.43,63.52,63.52,0,0,0,10.59-7.88,42.36,42.36,0,0,0,3.69-3.88.52.52,0,0,0,.12-.33.6.6,0,0,0-.08-.65q-1.22-1.82-2.51-3.65l0,0a268.82,268.82,0,0,0-17.5-22,33.39,33.39,0,0,0,3.22-3.18l.28-.32q-2.55-3.06-5.08-6.13c-3-3.62-6.08-7.37-9.22-11-2.75-3.43-5.6-7-8.64-10.87q-3.57-4.5-7.12-9l-2.47-3.14-.83-1.05-4.59-5.82-4.59-5.82c-14.49-18.29-27.82-35-39.62-49.57q-10-12.36-20.06-24.69c-8-9.78-14.27-17.36-20.33-24.6l-5.75-6.85c-11.62-13.82-23.59-28.07-34.4-42.32-2.62-3.45-5.18-6.91-7.74-10.38-7.46-10.08-15.11-20.41-24-30.21q1.38-2,2.61-4.18a48.91,48.91,0,0,0,4.65-10.95,39,39,0,0,0-.08-21.64c-1.92-6.79-5.75-13.62-11.38-20.31a87.82,87.82,0,0,0-9.28-9.39,119.31,119.31,0,0,0-11.3-8.73,252.94,252.94,0,0,0-23.43-14.4,187.76,187.76,0,0,0-26.93-12c-4.78-1.69-9.6-3.12-14.3-4.27a126,126,0,0,0-14.69-2.63l-2.7-.28a147.89,147.89,0,0,0-17.1-1.93,1,1,0,0,0-.24-.2,1.53,1.53,0,0,0-.46-.23,48,48,0,0,0-11.11-1.87,1.7,1.7,0,0,0-.59.06,1.42,1.42,0,0,0-.54.08.8.8,0,0,0-.46.42l-.12.39-.6-.09c-1.36-.18-2.69-.32-3.93-.43-1.58-.08-3.16-.14-4.74-.2a130.55,130.55,0,0,0,11.4-8.28,80.21,80.21,0,0,0,13.06-13.2,41.64,41.64,0,0,0,7.41-14.23,27.27,27.27,0,0,0,1-7.34,26,26,0,0,0-1.13-7.41,30.34,30.34,0,0,0-5.15-9.7,45.6,45.6,0,0,0-10.19-9.36,104.16,104.16,0,0,0-13-7.49c-2.7-1.36-5.5-2.67-8.21-4-2.09-1-4.18-2-6.25-3a83.28,83.28,0,0,1-7.27-4.07c-4.72-3-9.08-6.31-13.29-9.54s-8.34-6.39-12.92-9.31a62.08,62.08,0,0,0-6.16-3.47,51.69,51.69,0,0,0-6-2.45,47.72,47.72,0,0,0-12-2.34,58.66,58.66,0,0,0-19.69,2.29c-2.15.59-4.33,1.3-6.66,2.17-1,.36-1.92.73-2.87,1.11q-2.37,1-4.68,2l-2.31,1.07c-.9.43-1.8.85-2.72,1.26l-.17.08c-.88.37-1.79.72-2.71,1.07-1.55.57-3.22,1.13-5,1.65-2.33.7-4.87,1.36-8.23,2.12-2.2.5-4.4,1-6.61,1.44-3.39.72-6.89,1.47-10.27,2.32-3,.75-5.63,1.53-8.1,2.38-.49.16-1,.33-1.45.51-1.24.46-2.52,1-3.9,1.58a62.15,62.15,0,0,0-9.77,5.3c-6.12,4-10.86,8.91-13.69,14.06a23.3,23.3,0,0,0-2.72,8.18,19.64,19.64,0,0,0,.82,8.56,25.26,25.26,0,0,0,4.4,8,30.64,30.64,0,0,0,3.81,4,37.66,37.66,0,0,0,5.12,3.74,115.19,115.19,0,0,0,11.69,6.07,115.72,115.72,0,0,1,11.46,5.93l.11,0h0l.09,0h0a35.83,35.83,0,0,1,5.9,4.67,1.42,1.42,0,0,0,.72.26,1.3,1.3,0,0,0,.52-.05c.53.48,1,1,1.55,1.48Zm69,146.8v0Z"/><path class="cls-20" d="M3710.54,2463.18a17,17,0,0,0,.45,3.84,10.63,10.63,0,0,0,4.29,6.39,13.27,13.27,0,0,0,4.29,1.88,20.61,20.61,0,0,0,2.63.46,26.42,26.42,0,0,0,3.28.14,30.7,30.7,0,0,0,6.52-.81c.73-.17,1.46-.37,2.17-.6,2.68,5.36,4,11,5.29,16.42.68,2.91,1.5,6.42,2.61,9.75a40.36,40.36,0,0,0,4.31,9.2,34.9,34.9,0,0,0,7.65,8.38,42.94,42.94,0,0,0,5.6,3.78,55.57,55.57,0,0,0,6.57,3.24,51.41,51.41,0,0,0,6.72,2.19c1.33.35,2.73.65,4.22.9l.07.16c.51,1.37.37,13.81.07,18.24a78.74,78.74,0,0,0,.53,17,51.19,51.19,0,0,0,2,8.45,36.24,36.24,0,0,0,3.59,7.73,29.31,29.31,0,0,0,5.57,6.56,28.32,28.32,0,0,0,3.63,2.71,30.48,30.48,0,0,0,4.24,2.21,38.83,38.83,0,0,0,10.43,2.74c1,.13,2.11.22,3.19.26a28,28,0,0,0,3.59-.12,26,26,0,0,0,6.29-1.43h0a17.65,17.65,0,0,0,5-2.81,11.22,11.22,0,0,0,3.18-3.94,9.51,9.51,0,0,0,.85-3.38c.52,2,1.07,3.94,1.67,6a106.69,106.69,0,0,0,10.84,24.85c1.11,1.83,2.35,3.76,3.68,5.71a.47.47,0,0,0,.1.1c.95.2,1.9.41,2.85.6.68.14,1.37.28,2.05.4a139.51,139.51,0,0,0,16.59,1.42c2,2.92,4.12,5.78,6.38,8.58a89.52,89.52,0,0,0,12.42,12.7.86.86,0,0,0,.2.13,1.09,1.09,0,0,0,.54.25c1.29.22,2.6.39,3.92.51,3.27,3,6.55,6.22,10,9.62l.05.05.11.1c10.44,10.38,20.44,21.22,30.15,32h0q4.47,4.95,8.85,9.84l4,4.4-.75.85h-.05l-.17.2a30.09,30.09,0,0,0-2.87,3.64,14.07,14.07,0,0,0-1.77,3.84,6.48,6.48,0,0,0-.11,3.75,3.59,3.59,0,0,0,.36.81,3.78,3.78,0,0,0,.56.72,3.66,3.66,0,0,0,.8.62,6,6,0,0,0,1.13.54,6.44,6.44,0,0,0,1.19.32,9.23,9.23,0,0,0,1.39.15,15.52,15.52,0,0,0,3.44-.19,33,33,0,0,0,5.9-1.37c.46-.15.92-.31,1.37-.48a39.5,39.5,0,0,0,4.34-1.9,43.36,43.36,0,0,0,5.27-3.15,35.82,35.82,0,0,0,5.9-5,20.31,20.31,0,0,0,3.83-5.37.67.67,0,0,0-.33-.83c-.47-.94-1-1.92-1.51-2.88l-.11-.16-1.32-2.43v0q-5.11-9.39-10.3-18l0,0c-5.54-9.2-11.18-17.77-17-25.91-4.42-6.18-9.13-12.26-14-18.07a.65.65,0,0,0-.24-.46,1.05,1.05,0,0,0-.29-.17c-.89-1.07-1.8-2.14-2.72-3.21a1.32,1.32,0,0,0-1.37-.35,1.06,1.06,0,0,0-.28.15c-1.17-1.37-2.34-2.62-3.54-3.8a25,25,0,0,0,2.43-.7,81.36,81.36,0,0,0,9.07,10,1.08,1.08,0,0,0,.53.23,1.21,1.21,0,0,0,.79.28,41,41,0,0,0,4.32-.26c2.52,2.39,5.07,4.86,7.7,7.48l.05,0,.11.1c10.44,10.38,20.44,21.22,30.15,32h0c3,3.29,5.93,6.58,8.85,9.83l4,4.41-.75.84h-.05l-.17.21a30,30,0,0,0-2.87,3.63,14.26,14.26,0,0,0-1.77,3.85,6.48,6.48,0,0,0-.11,3.75,3.71,3.71,0,0,0,.92,1.53,4,4,0,0,0,.8.62,6,6,0,0,0,1.13.54,7.33,7.33,0,0,0,1.19.32,9.23,9.23,0,0,0,1.39.15,16.84,16.84,0,0,0,3.44-.19,33.92,33.92,0,0,0,5.9-1.37c.46-.16.92-.31,1.37-.48a43.16,43.16,0,0,0,9.61-5,35.38,35.38,0,0,0,5.9-5,20.31,20.31,0,0,0,3.83-5.37.66.66,0,0,0-.33-.82c-.47-.95-1-1.92-1.51-2.89l-.11-.15-1.32-2.44v0c-3.41-6.26-6.84-12.23-10.3-18l0,0c-5.54-9.19-11.18-17.77-17-25.91-4.28-6-8.81-11.86-13.48-17.49a10.94,10.94,0,0,0,2.47-4.31.49.49,0,0,0,0-.27.52.52,0,0,0-.12-.52c-5.21-7.67-12.12-14.84-19.1-21.76l.43-.54a50.17,50.17,0,0,0,4.58-6.77c.61-1.1,1.19-2.24,1.76-3.49l.61-1.36.32-.72c.24-.52.42-1,.57-1.41s.21-.86.32-1.28a.56.56,0,0,0-.14-.44.79.79,0,0,0-.22-.18.69.69,0,0,0-.26-.37c-1.75-1.51-3.59-3-5.57-4.53a10.15,10.15,0,0,0,1.54-1.76,21.48,21.48,0,0,0,2.14-4.22l.47-1.12c.25-.59.5-1.19.72-1.79a19.46,19.46,0,0,0,.63-2.34,18.54,18.54,0,0,0,.34-4.48,20.77,20.77,0,0,0-2.51-8.73c-2.81-5.32-7.85-10.25-14.58-14.24a60.08,60.08,0,0,0-13-5.7,14.73,14.73,0,0,0-3.33-6.57,1.34,1.34,0,0,0-.8-.38,1.58,1.58,0,0,0-.45-.21,140.85,140.85,0,0,0-16.27-2.83l-.47-.06c-2.84-.38-5.61-.75-8.37-1.22-1.87-.3-3.73-.64-5.58-1l-1.37-.25c-4.61-.82-10-1.75-15.19-2.19a49.12,49.12,0,0,0-13.56.47c1-.52,2-1,3-1.58a112.48,112.48,0,0,0,17.14-11.35,57.83,57.83,0,0,0,11.93-12.73,33.23,33.23,0,0,0,3.44-6.73,20.75,20.75,0,0,0,1.32-9.09,19.66,19.66,0,0,0-1.37-5.37,25.7,25.7,0,0,0-2.83-5,51.72,51.72,0,0,0-8.79-9.28c-2.95-2.58-6.17-5.06-9.29-7.47l-1.65-1.28-2.79-2.16c-1.16-.89-2.32-1.79-3.49-2.67q-3.33-2.54-6.74-5c-9.21-6.71-18.82-13.12-28.57-19a93.93,93.93,0,0,0-25-10.77,66.53,66.53,0,0,0-14-2.11,57,57,0,0,0-7.11.17,52.58,52.58,0,0,0-7.75,1.29,66.8,66.8,0,0,0-7.69,2.36c-3.64,1.35-7,2.88-11,4.75-3.66,1.7-7.81,3.63-12,5.2a71.83,71.83,0,0,1-6.87,2.18c-1.48.37-2.82.65-4.09.88s-2.8.51-4.19.78c-2.74.55-5.35,1.13-7.75,1.73a104.88,104.88,0,0,0-10.84,3.3c-1.11.42-2.2.85-3.28,1.3a54.92,54.92,0,0,0-11.84,6.75,39.34,39.34,0,0,0-9,9.55,17.36,17.36,0,0,0-2.4,5.89,21.37,21.37,0,0,0-.38,6.72,17.31,17.31,0,0,0,1.8,6.31,11.63,11.63,0,0,0,7.42,6.15,13.28,13.28,0,0,0,3.71.49A14.84,14.84,0,0,0,3710.54,2463.18Zm116.67,111.22.32.6-.14-.63ZM3803.72,2544l-3-15.32s8.69.85,23.86-4.79C3824.53,2523.93,3809.79,2535,3803.72,2544Z"/><path class="cls-20" d="M3960.52,2215.92c-.46-.38-.89-.76-1.3-1.15-3.55-3.31-5.74-7.16-6.16-10.82a11.22,11.22,0,0,1,.65-5.5,13.84,13.84,0,0,1,3.57-5.06,23.65,23.65,0,0,1,6.7-4.14c.5-.21,1-.4,1.52-.6a40.07,40.07,0,0,1,8.78-2.14,48,48,0,0,1,5.8-.38,56.22,56.22,0,0,1,5.89.29,66.34,66.34,0,0,1,11.71,2.34,69.69,69.69,0,0,1,10.92,4.22,59.49,59.49,0,0,1,9.26,5.57,38.28,38.28,0,0,1,3.65,3,27.59,27.59,0,0,1,2.88,3.26,22.23,22.23,0,0,1,3.62,7.05,16,16,0,0,1,.52,7.07,12.81,12.81,0,0,1-2.91,6.25,15.1,15.1,0,0,1-2.84,2.59,20,20,0,0,1-3.8,2.09l-.82.32a30,30,0,0,1-5.19,1.38l1.64,1.17.14.1c1.61,1.13,3.21,2.27,4.84,3.39.82.56,1.64,1.12,2.48,1.67l2.48,1.61a69.72,69.72,0,0,1,10.48,8.12,32.66,32.66,0,0,1,6.91,9.22,22.78,22.78,0,0,1,2.3,10.19,27.35,27.35,0,0,1-1.64,8.78,43.76,43.76,0,0,1-10.86,16.34,48.72,48.72,0,0,1-8,6.38,34.15,34.15,0,0,1-6.54,3.27c-.49.18-1,.35-1.51.52-.75.24-1.51.45-2.29.63a26,26,0,0,0,3.16,4.91,32.76,32.76,0,0,0,4.66,4.6.66.66,0,0,1,.42-.41,1.42,1.42,0,0,1,.45-.08h.42a.35.35,0,0,1,.14-.06.54.54,0,0,1,.21-.05,110.14,110.14,0,0,1,18.15.24,136.5,136.5,0,0,1,17.88,2.94,172.48,172.48,0,0,1,25.26,8.08,215.8,215.8,0,0,1,23.56,11.26,240.62,240.62,0,0,1,20.92,13c3.2,2.25,6.27,4.5,9.11,6.71,3.38,2.62,6.06,4.76,8.42,6.73,3.25,2.72,6,5.2,8.51,7.59a94.14,94.14,0,0,1,7.74,8.24c5.23,6.37,8.21,12.06,9.12,17.42a18.53,18.53,0,0,1-.49,8.71,21.06,21.06,0,0,1-4.47,7.65c-.48.55-1,1.08-1.51,1.59.8.48,1.54,1,2.21,1.46l1.06.82.44.34,1.61,1.27a41.39,41.39,0,0,1,3.65,3.24,16.33,16.33,0,0,1,1.51,1.77,5.85,5.85,0,0,1,.88,1.57,3.56,3.56,0,0,1,.2.87,4.08,4.08,0,0,1-.08.93,2.06,2.06,0,0,1-.78,1.34,1.5,1.5,0,0,1-.38.19,2.57,2.57,0,0,1-1.38.1l-.2-.07c.2.23.39.47.59.71a34.26,34.26,0,0,1,2.28,3.14,11,11,0,0,1,1.41,3,2.83,2.83,0,0,1-.16,2.23,2.2,2.2,0,0,1-.82.81,3.59,3.59,0,0,1-.62.31,3.76,3.76,0,0,1-.6.15,3.69,3.69,0,0,1-1.42-.05,5.4,5.4,0,0,1-1.28-.48,4.86,4.86,0,0,1-1.05-.71c.08.25.16.49.23.74a8.47,8.47,0,0,1,.4,2.48,3.41,3.41,0,0,1-.53,2,2.81,2.81,0,0,1-1.32,1,3,3,0,0,1-.43.12c-1.8.41-3.37-.7-4.38-1.71a12.18,12.18,0,0,1-1.42-1.73,3.13,3.13,0,0,1-1.67,3.1l-.05,0q10,12,20,24l23.41,28.06,21,25.16,0,0,2.56,3.07,19.06,22.84,16.35,19.6,0,0,2.66,3.19.1.12.12.15a.48.48,0,0,1-.07.74.92.92,0,0,1-.18.25,48.23,48.23,0,0,1-8.7,6.52c-1.56.91-3.18,1.8-4.95,2.72-1.29.64-2.61,1.27-3.93,1.9-2.15,1-3.95,1.85-5.83,2.66-2.07.89-3.63,1.52-5,2-1,.37-2,.73-3.09,1.06s-2.48.75-4,1.05a19.11,19.11,0,0,1-1.93.28,8.57,8.57,0,0,1-1.52.08,6,6,0,0,1-2.83-.6,1.66,1.66,0,0,1-1-1.39,3.41,3.41,0,0,1,.5-1.83,12.79,12.79,0,0,1,1.52-2.11,46.25,46.25,0,0,1,4.87-4.85c1.2-1.08,2.52-2.21,4-3.44h.06l1.23-1,2-1.59c.42-.33.85-.66,1.27-.94l-12.21-11.32-24.42-22.62-4-3.69h.05L4154,2488.21l-39.36-36.47q-1.27.51-2.55,1c-2.15.79-4.37,1.53-6.63,2.21l22.57,27.06,23.42,28.06,21,25.16,0,0,2.56,3.06,19.05,22.85,16.35,19.59,0,0,2.66,3.19.1.12.13.15a.48.48,0,0,1-.08.74,1.07,1.07,0,0,1-.17.25,48.68,48.68,0,0,1-8.71,6.52c-1.55.91-3.17,1.8-5,2.72-1.28.65-2.6,1.27-3.93,1.9-2.14,1-3.95,1.85-5.83,2.66-2.07.89-3.63,1.52-5,2.05-1,.37-2,.73-3.08,1.06s-2.49.75-4,1.05a19.55,19.55,0,0,1-1.94.29,9.44,9.44,0,0,1-1.52.07,6.11,6.11,0,0,1-2.82-.59,1.67,1.67,0,0,1-1-1.4,3.4,3.4,0,0,1,.5-1.82,11.74,11.74,0,0,1,1.51-2.11,47.22,47.22,0,0,1,4.87-4.86c1.2-1.08,2.53-2.21,4-3.44h.05l1.23-1,2-1.59c.42-.33.84-.66,1.26-.94l-12.21-11.32-24.42-22.62-4-3.69h0L4099,2505.26l-35.62-33a3.11,3.11,0,0,1-1,.56,1.43,1.43,0,0,1-.27.09,7.91,7.91,0,0,1-4.86-.67,12.61,12.61,0,0,1,1.48,1.71c.77,1.1,1.38,2.57-.09,3.37a2.32,2.32,0,0,1-.39.18,4.78,4.78,0,0,1-1.94.23,9.62,9.62,0,0,1-2.81-.73,20.45,20.45,0,0,1-3-1.52l-.84-.52a3.19,3.19,0,0,1,.37,1,2.08,2.08,0,0,1,0,1,1.68,1.68,0,0,1-.69.83,2,2,0,0,1-.51.25,3.9,3.9,0,0,1-.72.2,4.73,4.73,0,0,1-1.46,0,7.6,7.6,0,0,1-2.95-1.08,17.93,17.93,0,0,1-3.09-2.35,36.9,36.9,0,0,1-2.83-2.94c-.21-.23-.41-.46-.61-.7l0,.15a1.38,1.38,0,0,1-.84.73,1.65,1.65,0,0,1-.45.11,5.41,5.41,0,0,1-2.13-.25,10.63,10.63,0,0,1-1.23-.45,6.16,6.16,0,0,1-1-.57,8.47,8.47,0,0,1-1.56-1.31,17.9,17.9,0,0,1-1.49-1.78,30.9,30.9,0,0,1-2.24-3.76l-.79-1.57-.22-.43c-.17-.34-.33-.68-.49-1a17.34,17.34,0,0,1-1-3.29,8.85,8.85,0,0,1-.16-.87,44.76,44.76,0,0,1-6.57-1.21,50.25,50.25,0,0,1-10.43-4,61.94,61.94,0,0,1-9.11-5.87,79.7,79.7,0,0,1-14.07-14.33c-1.92-2.51-3.74-5.15-5.41-7.84a90.63,90.63,0,0,1-5-9.18,80.07,80.07,0,0,1-6.11-18.77,76.12,76.12,0,0,1,2.2-37.45,90.69,90.69,0,0,1,15.79-29.3c.23-.31.47-.61.72-.92.47-.64,1-1.27,1.46-1.89a10.52,10.52,0,0,1,.72-.93c.24-.27.49-.54.81-.86l.08-.1a2,2,0,0,1,.23-.2.41.41,0,0,1,.18-.12.91.91,0,0,1,.27,0,.56.56,0,0,1,.17-.09,1.29,1.29,0,0,1,1.07.13,10.6,10.6,0,0,0-.5-2.69,8.79,8.79,0,0,0-1.24-2.2,10.24,10.24,0,0,0-1.87-1.77c-.09-.08-.2-.15-.33-.25l-.83.32c-1.43.53-2.89,1-4.32,1.45l-2.1.61c-.57.16-1.14.31-1.73.45-1.25.31-2.5.58-3.72.81-2.25.41-4.55.73-6.84.94a71.28,71.28,0,0,1-12,.13,57.46,57.46,0,0,1-10.72-1.81,48.15,48.15,0,0,1-9.33-3.57,42.11,42.11,0,0,1-7.83-5.15,38.45,38.45,0,0,1-10.73-14.22l-.06-.12c-.67-1.55-1.34-3.1-2.07-4.64s-1.56-3.25-2.36-4.87l-.21-.42c-1-2-2-4.12-3-6.22l-.42.16-.62.22a26.17,26.17,0,0,1-5.06,1.18,16.56,16.56,0,0,1-4.18.1,10.44,10.44,0,0,1-3.3-.89,7.39,7.39,0,0,1-2.28-1.65,8,8,0,0,1-.88-1.13,10.42,10.42,0,0,1-.61-1.2,10.15,10.15,0,0,1-.68-2.67,18.32,18.32,0,0,1,.37-6.14,7.11,7.11,0,0,1,.32-1.18,16.19,16.19,0,0,1-2.14,1.57,12.63,12.63,0,0,1-2.19,1.07,10.34,10.34,0,0,1-6.18.35,12.55,12.55,0,0,1-4.14-1.93,8.54,8.54,0,0,1-3.44-6.94,19.49,19.49,0,0,1,1.36-7.77,20.17,20.17,0,0,1,1.66-3.46,24.88,24.88,0,0,1,3.15-4.11c4.27-4.51,10.8-8.38,20-11.84l.68-.25c3.94-1.46,8.28-2.84,13.28-4.2,2.53-.69,5.09-1.35,7.64-2s5-1.28,7.41-1.95c2.19-.59,4.07-1.13,5.8-1.65,1.75-.72,3.53-1.44,5.31-2.13l2.79-1.06c2.65-1,5.06-1.8,7.39-2.52a85.36,85.36,0,0,1,10.56-2.59Zm92.73,245,.52.49,1.18.77-.56-1.07-.88-.21-.41-.11Z"/><path class="cls-18" d="M3865.89,2790.56a6.27,6.27,0,0,0-8.06-3.64l-181.51,69.44a6.26,6.26,0,0,0,4.45,11.71l181.52-69.43A6.28,6.28,0,0,0,3865.89,2790.56Z"/><path class="cls-18" d="M4139.78,2685.79a6.26,6.26,0,0,0-8.06-3.64l-181.51,69.44a6.26,6.26,0,0,0,4.45,11.71l181.52-69.43A6.28,6.28,0,0,0,4139.78,2685.79Z"/><path class="cls-18" d="M4413.67,2581a6.25,6.25,0,0,0-8.06-3.64l-181.51,69.43a6.27,6.27,0,0,0,4.46,11.72l181.51-69.43A6.28,6.28,0,0,0,4413.67,2581Z"/><path class="cls-18" d="M4687.56,2476.25a6.25,6.25,0,0,0-8.06-3.64L4498,2542a6.27,6.27,0,0,0,4.45,11.72L4684,2484.33A6.28,6.28,0,0,0,4687.56,2476.25Z"/><path class="cls-18" d="M4961.46,2371.48a6.26,6.26,0,0,0-8.07-3.64l-181.51,69.43a6.27,6.27,0,0,0,4.46,11.72l181.51-69.44A6.28,6.28,0,0,0,4961.46,2371.48Z"/><path class="cls-18" d="M5235.34,2266.7a6.25,6.25,0,0,0-8.06-3.63l-181.51,69.43a6.27,6.27,0,0,0,4.46,11.72l181.51-69.44A6.28,6.28,0,0,0,5235.34,2266.7Z"/><path class="cls-18" d="M5156.31,2361.91l37.56-14.48-39.09-18.95Z"/><path class="cls-21" d="M2307.11,454.86,1035.65,920.63,932.34,1821.35l13,13.48,1258.48-479.25Z"/><polygon class="cls-22" points="1047.9 934.12 2319.36 468.36 2216.06 1369.07 944.59 1834.84 1047.9 934.12"/><path class="cls-23" d="M944.38,1834.35l149-54.26-45.73-72.93Z"/><path class="cls-24" d="M1049.15,1692.18l141.45-33.31,28,289.94Z"/><path class="cls-25" d="M2318.7,467.06,1047.23,932.83l154.16,1012,19.47,4.92,1252-470.69Z"/><polygon class="cls-21" points="1065.68 937.89 2337.14 472.12 2491.3 1484.13 1219.84 1949.9 1065.68 937.89"/><path class="cls-21" d="M933.42,1822.58l116.25-131,171.27,259.94-20.06-6.45-156.05-228.18L944.51,1835Z"/><path class="cls-26" d="M2194.61,1310.59l-141.22,51.73,23.17,152,141.21-51.73Zm157-57.53-141.21,51.73,23.16,152,141.21-51.73ZM1566.5,1540.68l-141.22,51.73,23.17,152,141.21-51.73Zm471.08-172.57-141.21,51.73,23.16,152.05,141.21-51.73ZM1409.47,1598.2l-141.21,51.73,23.16,152,141.21-51.73Zm314-115-141.21,51.72,23.16,152.06,141.21-51.73Zm157-57.53-141.21,51.73,23.16,152.05,141.21-51.73Zm288-286.38L2027.29,1191l23.17,152,141.21-51.73Zm157-57.52-141.21,51.73,23.16,152,141.21-51.73ZM1540.4,1369.34l-141.22,51.73,23.17,152,141.21-51.72Zm471.08-172.56-141.21,51.73,23.16,152,141.21-51.73Zm-628.11,230.09-141.21,51.73,23.16,152.05,141.21-51.73Zm314.05-115-141.21,51.73,23.16,152,141.21-51.73Zm157-57.52L1713.24,1306l23.16,152,141.21-51.73Zm288-286.38-141.22,51.73,23.17,152.05L2165.57,1120Zm157-57.52-141.21,51.72,23.16,152.06,141.21-51.73ZM1514.3,1198l-141.22,51.73,23.17,152,141.21-51.73Zm471.08-172.57-141.21,51.73,23.16,152,141.21-51.73Zm-628.11,230.09-141.21,51.73,23.16,152,141.21-51.73Zm314-115-141.21,51.73,23.16,152,141.21-51.73Zm157-57.53-141.21,51.73,23.16,152.06L1851.51,1235Zm-497.18,1.23L1190,1135.92l23.16,152,141.21-51.72Zm785.14-287.61-141.22,51.73,23.17,152.05,141.21-51.73Zm157-57.52-141.21,51.73,23.16,152.05,141.21-51.73ZM1488.2,1026.67,1347,1078.4l23.17,152,141.21-51.73ZM1959.28,854.1l-141.21,51.73,23.16,152.05,141.21-51.73Zm-314.06,115L1504,1020.88l23.16,152.05,141.21-51.73Zm157-57.52L1661,963.36l23.16,152.05,141.21-51.73Z"/><path class="cls-27" d="M1409.47,1598.2l-141.21,51.73,23.16,152,141.21-51.73Zm-26.1-171.33-141.21,51.73,23.16,152.05,141.21-51.73Zm-26.1-171.34-141.21,51.73,23.16,152,141.21-51.73Zm-26.1-171.34L1190,1135.92l23.16,152,141.21-51.72Zm942.16-345.13-141.21,51.73Z"/><path class="cls-26" d="M2381.19,1441.61c-.81-5.3-5.44-8.13-10.35-6.33l-197.11,72.21a12.21,12.21,0,0,0-7.44,12.84c.8,5.28,5.45,8.11,10.35,6.31l197.12-72.21A12.2,12.2,0,0,0,2381.19,1441.61Z"/><path class="cls-26" d="M1779,834.45c-2.93-19.28-19.86-29.61-37.77-23.05l-539.85,197.76c-17.91,6.56-30.06,27.54-27.12,46.83s19.86,29.61,37.77,23l539.84-197.76C1769.8,874.72,1782,853.74,1779,834.45Z"/><ellipse class="cls-28" cx="1845.71" cy="814.08" rx="23.93" ry="19.55" transform="translate(272.51 2076.78) rotate(-62.55)"/><ellipse class="cls-29" cx="1928.19" cy="783.87" rx="23.93" ry="19.55" transform="translate(343.78 2133.69) rotate(-62.55)"/><ellipse class="cls-30" cx="2010.67" cy="753.66" rx="23.93" ry="19.55" transform="translate(415.05 2190.59) rotate(-62.55)"/><path class="cls-27" d="M2042,1200a309.62,309.62,0,0,0-19.54,27.48c-1.64,2.56-1.32,5.8.72,7.25a3.66,3.66,0,0,0,2.25.68l-.52,1.36c-13.46,36.36-16.55,72.5-2.59,96,9.42,15.83,26.56,26.18,53.92,26.77,59.51,1.29,114.71-56.39,134.78-119.67a159.94,159.94,0,0,0,6.45-34.42c2.49-28.46-3.78-47-15.38-57.8-17.08-16-46.47-15.33-78.93-3.67a196.73,196.73,0,0,0-48.29,24.8l-2,1.44a192.28,192.28,0,0,1,18.82-20.31c15.47-14.34,31.89-23.9,47.4-25.05,2.61-.19,4.93-2.72,5.2-5.65s-1.64-5.16-4.25-5c-17.51,1.29-36.16,11.74-53.63,27.92C2069.86,1157.45,2054.38,1177.86,2042,1200Zm7.2,5.59a248.88,248.88,0,0,0-15.61,33.81c-12.12,32.71-15.68,65.35-3.11,86.46,8.25,13.88,23.51,22.49,47.49,23,55,1.19,105.63-52.61,124.16-111.06a146.06,146.06,0,0,0,5.9-31.68c2.14-24.44-2.71-40.58-12.69-49.89-15.25-14.28-41.7-12.61-70.7-2.2a185.84,185.84,0,0,0-45.7,23.44A151.51,151.51,0,0,0,2049.16,1205.63Zm77.32,70.95a14.79,14.79,0,0,1,.2,2.31,61.13,61.13,0,0,1-.76,7.1c-.72,5-1.43,10.16-1,13.9.5,4,2.16,6.75,5.12,8,4.26,1.79,9.2.35,14-3,5.41-3.71,10.73-9.86,14-13.18,2.09-2.12,2.52-5.49.94-7.52s-4.53-2-6.63.18c-2.45,2.49-6.14,6.79-10.12,10.08a18.87,18.87,0,0,1-4.85,3.11,3.77,3.77,0,0,1-2.85.23c-.26-.11-.18-.52-.23-.86a15.9,15.9,0,0,1-.05-3.34c.27-4.17,1.27-9.15,1.66-13.36.6-6.67-.74-11.65-4.19-13.5a9,9,0,0,0-6.46-.53c-2.79.65-6.68,2.44-11.92,6A49.94,49.94,0,0,0,2103,1281c-3.3,4-6.18,9.09-8.89,13.48-1.6,2.58-1.21,5.82.85,7.21s5.05.41,6.66-2.18c2.39-3.88,4.89-8.47,7.8-12a49.24,49.24,0,0,1,15.28-10.62A8.47,8.47,0,0,1,2126.48,1276.58Zm-32.91-44.15c0,.21-.05.41-.08.6a53.64,53.64,0,0,0-.78,9.8,10.67,10.67,0,0,0,2.47,6.83c4.7,5,12.56,4,21.74-1.69,16.3-10.15,37.85-35.17,45.57-41.08a6.25,6.25,0,0,0,2-7.46c-1.21-2.34-4.09-2.79-6.39-1-6.59,5-23.22,24-38,35.69-4.38,3.46-8.57,6.27-12.21,7.58-2.24.8-4.22,1.13-5.54-.21a5.05,5.05,0,0,1-.15-.76,15.27,15.27,0,0,1,0-2.24c.18-2.74.74-5.85,1.05-8.63a22.85,22.85,0,0,0-.15-7.87,6.59,6.59,0,0,0-3.83-4.78c-1.08-.43-2.87-.66-5.16,1-1.56,1.17-4.81,5-8.84,10.12-6,7.63-14.21,18.4-21.57,25.21a30.12,30.12,0,0,1-5.93,4.5,11.27,11.27,0,0,1-1.05.52c0-.12,0-.25.05-.37a36.3,36.3,0,0,1,1.29-5c4.5-13.92,16.74-36.51,20.84-41.68,1.88-2.36,1.93-5.69.11-7.43s-4.83-1.25-6.71,1.12c-3.87,4.87-14.43,23.75-20.46,38.7-3.16,7.82-5,14.72-4.68,18.55.26,3.6,1.83,5.66,4.19,6.47a10.41,10.41,0,0,0,7.23-.48,34.74,34.74,0,0,0,9.79-6.65C2077.09,1254,2087.18,1240.44,2093.57,1232.43Zm87.79-48.76a137.75,137.75,0,0,0-19.35,28.41c-1.41,2.71-.75,5.83,1.46,7s5.14-.12,6.54-2.81a123.57,123.57,0,0,1,17.39-25.61c2-2.22,2.31-5.58.64-7.51S2183.37,1181.46,2181.36,1183.67Z"/><ellipse class="cls-31" cx="1162.83" cy="970.59" rx="9.6" ry="13.26"/><path class="cls-32" d="M1133.79,912.8l13.69-4.84,16.57,49.38c-8,.84-10,6.24-10.77,12.5Z"/><path class="cls-15" d="M1084.12,904.49q-1.12-4.15-2-8.39c-5.89-27.37-3.27-50.65,4.69-64.21,6.64-11.31,16.73-16.9,29.2-15.24,10.64,1.42,22.1,8.66,32.38,20.44,13.89,15.89,26,40.13,31.65,66.44,5.9,27.38,3.28,50.66-4.68,64.21-3.53,6-8,10.41-13.35,13-7.1-4.39-9.06-10-4-17.21a24.48,24.48,0,0,0,5.68-9.56c4.09-11.48,4.35-28,.28-46.92-5-23.37-15.62-45-28-59.08-7.19-8.23-14.76-14-22.2-15s-12.44,4.41-15.4,12.73c-4.1,11.49-4.35,28-.29,46.93.45,2.09,1,4.16,1.48,6.21Z"/><path class="cls-33" d="M1162.21,899.77a149.86,149.86,0,0,1,4.37,16c4.07,18.89,3.81,35.43-.28,46.93a24.33,24.33,0,0,1-5.69,9.55,16,16,0,0,0-2.59,5.4c-3.67-3.85-4-8.48,0-14.11a24.41,24.41,0,0,0,5.68-9.56c4.09-11.48,4.35-28,.28-46.93C1163.44,904.58,1162.86,902.16,1162.21,899.77Zm-77.62,4.55-.47.16q-1.12-4.14-2-8.38c-5.89-27.37-3.27-50.65,4.69-64.21,6.64-11.31,16.73-16.9,29.2-15.24,10.64,1.42,22.1,8.66,32.38,20.43,12.4,14.2,23.37,35,29.62,58.07-6.46-19.54-16.19-37-27-49.35-10.28-11.78-21.74-19-32.38-20.44-12.47-1.66-22.56,3.93-29.2,15.25C1081.47,854.08,1078.84,877.15,1084.59,904.32Z"/><ellipse class="cls-31" cx="1287.49" cy="924.08" rx="9.6" ry="13.26"/><path class="cls-32" d="M1258.44,866.29l13.69-4.83,16.57,49.37c-8,.85-10,6.25-10.77,12.51Z"/><path class="cls-15" d="M1208.77,858q-1.12-4.15-2-8.39c-5.89-27.38-3.27-50.65,4.69-64.21,6.64-11.32,16.73-16.9,29.2-15.24,10.64,1.41,22.1,8.65,32.39,20.43,13.88,15.9,26,40.14,31.65,66.45,5.89,27.38,3.27,50.66-4.69,64.21-3.53,6-8,10.41-13.35,13-7.1-4.39-9.06-10-4-17.21a24.36,24.36,0,0,0,5.68-9.56c4.09-11.49,4.35-28,.28-46.92-5-23.37-15.62-45-27.95-59.08-7.19-8.24-14.76-14-22.2-15s-12.44,4.42-15.4,12.74c-4.09,11.49-4.35,28-.29,46.93.45,2.08,1,4.16,1.48,6.21Z"/><path class="cls-34" d="M1286.87,853.27a151.57,151.57,0,0,1,4.36,16c4.07,18.89,3.81,35.43-.28,46.93a24.44,24.44,0,0,1-5.68,9.55,15.57,15.57,0,0,0-2.59,5.4c-3.68-3.85-4-8.48,0-14.11a24.36,24.36,0,0,0,5.68-9.56c4.09-11.49,4.35-28,.28-46.93C1288.09,858.08,1287.51,855.66,1286.87,853.27Zm-77.63,4.54-.47.17c-.75-2.77-1.43-5.55-2-8.38-5.89-27.38-3.27-50.65,4.69-64.21,6.64-11.31,16.73-16.9,29.2-15.24,10.64,1.41,22.1,8.65,32.39,20.43,12.39,14.2,23.36,35,29.61,58.07-6.46-19.54-16.19-37-27-49.35-10.28-11.78-21.74-19-32.38-20.44-12.47-1.66-22.56,3.93-29.2,15.24C1206.13,807.58,1203.49,830.65,1209.24,857.81Z"/><ellipse class="cls-31" cx="1412.14" cy="877.58" rx="9.6" ry="13.26"/><path class="cls-32" d="M1383.09,819.79l13.69-4.83,16.58,49.37c-8,.85-10,6.25-10.78,12.5Z"/><path class="cls-15" d="M1333.42,811.48c-.75-2.76-1.43-5.56-2-8.38-5.9-27.38-3.28-50.66,4.68-64.21,6.65-11.32,16.73-16.91,29.21-15.25,10.63,1.42,22.09,8.66,32.38,20.44,13.88,15.9,26,40.13,31.65,66.45,5.89,27.38,3.27,50.66-4.69,64.2-3.53,6-8,10.42-13.35,13-7.1-4.39-9-10-4-17.21a24.33,24.33,0,0,0,5.68-9.57c4.09-11.48,4.35-28,.29-46.91-5-23.37-15.63-45-28-59.09-7.19-8.23-14.76-14-22.19-15s-12.44,4.42-15.41,12.74c-4.09,11.49-4.35,28-.28,46.92q.67,3.14,1.48,6.22Z"/><path class="cls-35" d="M1411.52,806.77a151.57,151.57,0,0,1,4.36,16c4.07,18.89,3.81,35.43-.28,46.92a24.17,24.17,0,0,1-5.68,9.55,15.66,15.66,0,0,0-2.59,5.4c-3.68-3.84-4-8.47,0-14.1a24.33,24.33,0,0,0,5.68-9.57c4.09-11.48,4.35-28,.29-46.92C1412.74,811.58,1412.16,809.15,1411.52,806.77Zm-77.62,4.54-.48.16c-.74-2.76-1.43-5.55-2-8.37-5.9-27.38-3.28-50.66,4.68-64.21,6.65-11.32,16.73-16.91,29.2-15.25,10.65,1.42,22.1,8.66,32.39,20.44,12.39,14.19,23.37,35,29.61,58.07-6.45-19.54-16.18-37-27-49.36-10.29-11.78-21.75-19-32.39-20.43-12.47-1.66-22.56,3.93-29.2,15.24C1330.78,761.07,1328.14,784.15,1333.9,811.31Z"/><ellipse class="cls-31" cx="1538.44" cy="831.97" rx="9.6" ry="13.26"/><path class="cls-32" d="M1509.39,774.18l13.69-4.83,16.58,49.37c-8,.85-10,6.25-10.78,12.51Z"/><path class="cls-15" d="M1459.72,765.87c-.75-2.76-1.43-5.56-2-8.38-5.9-27.38-3.28-50.65,4.68-64.21,6.64-11.32,16.73-16.91,29.2-15.24,10.64,1.41,22.1,8.65,32.39,20.43,13.88,15.9,26,40.14,31.65,66.45,5.89,27.38,3.27,50.66-4.69,64.21-3.53,6-8,10.41-13.35,13-7.1-4.39-9.06-10-4-17.21a24.33,24.33,0,0,0,5.68-9.57c4.09-11.48,4.35-28,.29-46.91-5-23.37-15.63-45-28-59.08-7.19-8.24-14.76-14-22.19-15S1477,698.77,1474,707.09c-4.09,11.49-4.35,28-.28,46.92q.68,3.13,1.48,6.22Z"/><path class="cls-36" d="M1537.82,761.16a151.57,151.57,0,0,1,4.36,16c4.07,18.89,3.81,35.43-.28,46.92a24.29,24.29,0,0,1-5.68,9.56,15.57,15.57,0,0,0-2.59,5.4c-3.68-3.85-4-8.48,0-14.11a24.36,24.36,0,0,0,5.68-9.56c4.09-11.49,4.35-28,.29-46.93C1539,766,1538.46,763.54,1537.82,761.16Zm-77.62,4.54-.48.17q-1.12-4.15-2-8.38c-5.9-27.38-3.28-50.66,4.68-64.21,6.65-11.32,16.73-16.91,29.2-15.25,10.64,1.42,22.1,8.66,32.39,20.44,12.39,14.19,23.37,35,29.61,58.07-6.45-19.54-16.18-37-27-49.36-10.29-11.77-21.75-19-32.39-20.43-12.47-1.66-22.56,3.93-29.2,15.24C1457.08,715.47,1454.44,738.54,1460.2,765.7Z"/><ellipse class="cls-31" cx="1664.46" cy="786.43" rx="9.6" ry="13.26"/><path class="cls-32" d="M1635.42,728.64l13.69-4.83,16.57,49.37c-8,.85-10,6.25-10.78,12.51Z"/><path class="cls-15" d="M1585.75,720.34q-1.12-4.15-2-8.39c-5.89-27.38-3.27-50.65,4.69-64.21,6.64-11.32,16.73-16.9,29.2-15.24,10.64,1.41,22.1,8.65,32.38,20.43,13.88,15.9,26,40.14,31.65,66.45,5.9,27.38,3.28,50.66-4.68,64.21-3.53,6-8,10.41-13.35,13-7.1-4.39-9.06-10-4-17.21a24.37,24.37,0,0,0,5.69-9.56c4.09-11.49,4.35-28,.28-46.92-5-23.37-15.63-45-27.95-59.08-7.19-8.24-14.76-14-22.2-15s-12.44,4.42-15.4,12.74c-4.1,11.49-4.35,28-.29,46.93.45,2.08.94,4.16,1.48,6.21Z"/><path class="cls-37" d="M1663.84,715.62a149.21,149.21,0,0,1,4.37,16c4.07,18.89,3.81,35.43-.28,46.93a24.33,24.33,0,0,1-5.69,9.55,15.94,15.94,0,0,0-2.59,5.4c-3.67-3.85-4-8.48,0-14.11a24.37,24.37,0,0,0,5.69-9.56c4.09-11.49,4.35-28,.28-46.93C1665.07,720.43,1664.48,718,1663.84,715.62Zm-77.62,4.54-.47.17c-.75-2.77-1.43-5.55-2-8.38-5.89-27.38-3.28-50.65,4.69-64.21,6.64-11.31,16.73-16.9,29.2-15.24,10.64,1.41,22.1,8.65,32.38,20.43,12.4,14.2,23.37,35,29.61,58.07-6.45-19.54-16.18-37-27-49.35-10.28-11.78-21.74-19-32.38-20.44-12.47-1.66-22.56,3.93-29.21,15.24C1583.1,669.93,1580.47,693,1586.22,720.16Z"/><ellipse class="cls-31" cx="1787.15" cy="740.41" rx="9.6" ry="13.26"/><path class="cls-32" d="M1758.1,682.61l13.69-4.83,16.58,49.37c-8,.85-10,6.25-10.78,12.51Z"/><path class="cls-15" d="M1708.43,674.31q-1.12-4.15-2-8.39c-5.9-27.38-3.28-50.65,4.68-64.21,6.64-11.31,16.73-16.9,29.2-15.24,10.64,1.41,22.1,8.65,32.39,20.43,13.88,15.9,26,40.14,31.65,66.45,5.89,27.38,3.27,50.66-4.69,64.21-3.53,6-8,10.41-13.35,13-7.1-4.39-9.06-10-4-17.21a24.36,24.36,0,0,0,5.68-9.56c4.09-11.49,4.35-28,.29-46.92-5-23.37-15.63-45-28-59.08-7.19-8.24-14.76-14-22.19-15s-12.44,4.42-15.41,12.74c-4.09,11.49-4.35,28-.28,46.93.45,2.08.94,4.16,1.48,6.21Z"/><path class="cls-38" d="M1786.53,669.59a151.57,151.57,0,0,1,4.36,15.95c4.07,18.89,3.81,35.43-.28,46.93a24.32,24.32,0,0,1-5.68,9.55,15.57,15.57,0,0,0-2.59,5.4c-3.68-3.85-4-8.48,0-14.11a24.36,24.36,0,0,0,5.68-9.56c4.09-11.49,4.35-28,.29-46.93C1787.75,674.4,1787.17,672,1786.53,669.59Zm-77.62,4.54-.48.17c-.75-2.77-1.43-5.55-2-8.38-5.9-27.38-3.28-50.65,4.68-64.21,6.65-11.31,16.73-16.9,29.2-15.24,10.64,1.41,22.1,8.65,32.39,20.43,12.39,14.2,23.37,35,29.61,58.07-6.45-19.54-16.18-37-27-49.35-10.29-11.78-21.75-19-32.39-20.44-12.47-1.66-22.56,3.93-29.2,15.24C1705.79,623.9,1703.15,647,1708.91,674.13Z"/><ellipse class="cls-31" cx="1912.2" cy="694.68" rx="9.6" ry="13.26"/><path class="cls-32" d="M1883.15,636.89l13.7-4.83,16.57,49.37c-8,.84-10,6.24-10.78,12.5Z"/><path class="cls-15" d="M1833.49,628.58c-.75-2.76-1.43-5.56-2-8.38-5.9-27.38-3.28-50.66,4.68-64.21,6.65-11.32,16.74-16.91,29.21-15.25,10.64,1.42,22.1,8.66,32.38,20.44,13.88,15.9,26,40.13,31.65,66.45,5.89,27.38,3.28,50.65-4.69,64.2-3.53,6-8,10.42-13.35,13-7.1-4.4-9-10-4-17.21A24.21,24.21,0,0,0,1913,678c4.1-11.48,4.35-28,.29-46.92-5-23.37-15.63-45-27.95-59.08-7.19-8.23-14.76-14-22.2-15s-12.44,4.42-15.41,12.74c-4.09,11.48-4.35,28-.28,46.92q.67,3.13,1.48,6.22Z"/><path class="cls-39" d="M1911.58,623.87a149.21,149.21,0,0,1,4.37,16c4.06,18.88,3.81,35.43-.29,46.92a24.13,24.13,0,0,1-5.68,9.55,16,16,0,0,0-2.59,5.4c-3.68-3.85-4-8.48,0-14.1A24.21,24.21,0,0,0,1913,678c4.1-11.48,4.36-28,.29-46.92C1912.8,628.67,1912.22,626.25,1911.58,623.87ZM1834,628.41l-.47.16q-1.12-4.14-2-8.37c-5.9-27.38-3.28-50.66,4.68-64.21,6.65-11.32,16.74-16.91,29.21-15.25,10.64,1.42,22.1,8.66,32.38,20.44,12.39,14.19,23.37,35,29.61,58.07-6.45-19.54-16.18-37-27-49.36-10.29-11.78-21.74-19-32.38-20.43-12.47-1.66-22.56,3.92-29.21,15.24C1830.84,578.17,1828.21,601.25,1834,628.41Z"/><ellipse class="cls-31" cx="2035.87" cy="649.77" rx="9.6" ry="13.26"/><path class="cls-32" d="M2006.82,592l13.7-4.84,16.57,49.38c-8,.84-10,6.24-10.78,12.5Z"/><path class="cls-15" d="M1957.16,583.67q-1.12-4.15-2-8.38c-5.9-27.38-3.28-50.66,4.68-64.22,6.65-11.31,16.74-16.9,29.21-15.24,10.64,1.42,22.1,8.66,32.38,20.44,13.88,15.89,26,40.13,31.65,66.44,5.89,27.38,3.28,50.66-4.68,64.21-3.54,6-8,10.41-13.35,13-7.11-4.4-9.06-10-4-17.22a24.3,24.3,0,0,0,5.69-9.56c4.09-11.48,4.35-28,.28-46.92-5-23.37-15.63-45-28-59.08-7.19-8.23-14.76-14-22.2-15s-12.44,4.42-15.41,12.74c-4.09,11.48-4.35,28-.28,46.92q.67,3.13,1.48,6.21Z"/><path class="cls-40" d="M2035.25,579a150.51,150.51,0,0,1,4.37,15.95c4.06,18.89,3.81,35.43-.29,46.93a24.2,24.2,0,0,1-5.68,9.55,16,16,0,0,0-2.59,5.4c-3.68-3.85-4-8.48,0-14.11a24.17,24.17,0,0,0,5.68-9.56c4.1-11.48,4.36-28,.29-46.93C2036.48,583.76,2035.89,581.34,2035.25,579Zm-77.62,4.55-.47.16q-1.12-4.14-2-8.37c-5.9-27.38-3.28-50.66,4.68-64.22,6.65-11.31,16.74-16.9,29.21-15.24,10.64,1.42,22.1,8.66,32.38,20.44,12.39,14.19,23.37,35,29.61,58.06-6.45-19.53-16.18-37-27-49.35-10.29-11.78-21.74-19-32.38-20.44-12.47-1.66-22.56,3.93-29.21,15.25C1954.51,533.26,1951.88,556.33,1957.63,583.5Z"/><ellipse class="cls-31" cx="2161.73" cy="604.09" rx="9.6" ry="13.26"/><path class="cls-32" d="M2132.69,546.29l13.69-4.83L2163,590.83c-8,.85-10,6.25-10.78,12.51Z"/><path class="cls-15" d="M2083,538q-1.12-4.15-2-8.39c-5.89-27.38-3.27-50.65,4.69-64.21,6.64-11.32,16.73-16.9,29.2-15.24,10.64,1.41,22.1,8.65,32.38,20.43,13.88,15.9,26,40.14,31.65,66.45,5.9,27.38,3.28,50.66-4.68,64.21-3.53,6-8,10.41-13.35,13-7.1-4.39-9.06-10-4-17.21a24.37,24.37,0,0,0,5.69-9.56c4.09-11.49,4.35-28,.28-46.92-5-23.37-15.63-45-28-59.08-7.19-8.24-14.76-14-22.2-15s-12.44,4.42-15.4,12.74c-4.1,11.49-4.35,28-.29,46.93.45,2.08.94,4.16,1.48,6.21Z"/><path class="cls-41" d="M2161.11,533.27a149.21,149.21,0,0,1,4.37,16c4.07,18.89,3.81,35.43-.28,46.93a24.33,24.33,0,0,1-5.69,9.55,15.94,15.94,0,0,0-2.59,5.4c-3.67-3.85-4-8.48,0-14.11a24.37,24.37,0,0,0,5.69-9.56c4.09-11.49,4.35-28,.28-46.93C2162.34,538.08,2161.75,535.66,2161.11,533.27Zm-77.62,4.54-.47.17c-.75-2.77-1.43-5.55-2-8.38-5.89-27.38-3.28-50.65,4.69-64.21,6.64-11.31,16.73-16.9,29.2-15.24,10.64,1.41,22.1,8.65,32.38,20.43,12.4,14.2,23.37,35,29.61,58.07-6.45-19.54-16.18-37-27-49.35-10.28-11.78-21.74-19-32.38-20.44-12.47-1.66-22.56,3.93-29.21,15.24C2080.37,487.58,2077.74,510.65,2083.49,537.81Z"/><ellipse class="cls-31" cx="2286.71" cy="557.39" rx="9.6" ry="13.26"/><path class="cls-32" d="M2257.66,499.6l13.7-4.83,16.57,49.37c-8,.85-10,6.25-10.78,12.5Z"/><path class="cls-15" d="M2208,491.29c-.75-2.76-1.43-5.56-2-8.38-5.9-27.38-3.28-50.66,4.68-64.21,6.65-11.32,16.74-16.91,29.21-15.25,10.64,1.42,22.1,8.66,32.38,20.44,13.88,15.9,26,40.13,31.65,66.45,5.89,27.38,3.28,50.66-4.69,64.2-3.53,6-8,10.42-13.35,13-7.1-4.39-9.05-10-4-17.21a24.21,24.21,0,0,0,5.68-9.57c4.1-11.48,4.36-28,.29-46.92-5-23.36-15.63-45-28-59.08-7.19-8.23-14.76-14-22.2-15s-12.44,4.42-15.41,12.74c-4.09,11.49-4.35,28-.28,46.92q.67,3.13,1.48,6.22Z"/><path class="cls-42" d="M2286.09,486.58a149.21,149.21,0,0,1,4.37,15.95c4.06,18.89,3.81,35.43-.29,46.92a24.06,24.06,0,0,1-5.68,9.55,16,16,0,0,0-2.59,5.4c-3.68-3.84-4-8.48,0-14.1a24.21,24.21,0,0,0,5.68-9.57c4.1-11.48,4.36-28,.29-46.92C2287.32,491.38,2286.73,489,2286.09,486.58Zm-77.62,4.54-.47.16q-1.12-4.14-2-8.37c-5.9-27.38-3.28-50.66,4.68-64.21,6.65-11.32,16.74-16.91,29.21-15.25,10.64,1.42,22.1,8.66,32.38,20.44,12.39,14.19,23.37,35,29.61,58.07-6.45-19.54-16.18-37-27-49.36-10.29-11.78-21.74-19-32.38-20.43-12.47-1.66-22.56,3.93-29.21,15.24C2205.35,440.88,2202.72,464,2208.47,491.12Z"/><ellipse class="cls-43" cx="4355.96" cy="3140.84" rx="711.62" ry="40.01" transform="translate(-775.48 1557.3) rotate(-18.64)"/><path class="cls-7" d="M3662.17,3256.13l1114.18-389,214.57-30.39a19.11,19.11,0,0,1,12.41,35.35L4832,2974.42l-884,316.33Z"/><path class="cls-18" d="M5008,2843.22a19.19,19.19,0,0,1-4.68,28.93L4832,2974.41l-884,316.34-116.67-14.13L4805,2940.52c4.48-23.56-17.08-50.47-17.08-50.47,20.07,13.52,31.63,39.51,31.63,39.51s81.36-28.62,129.3-51.11A370.22,370.22,0,0,0,5008,2843.22Z"/><path class="cls-44" d="M1528.61,2482.49c-10.2-9.79-27.28-14.42-38.14-10.33L218.55,2951c-10.86,4.09-11.38,15.35-1.18,25.14l715.48,686.46c10.2,9.79,27.29,14.42,38.15,10.33L2196.79,3213.5l31.63-75.89Z"/><path class="cls-45" d="M1508.53,2434.88c-10.2-9.78-27.29-14.41-38.14-10.33L198.46,2903.39c-10.85,4.08-11.38,15.35-1.18,25.13L912.76,3615c10.2,9.78,27.3,14.41,38.15,10.33l1271.92-478.84c10.86-4.08,11.37-15.35,1.18-25.13Z"/><path class="cls-46" d="M1514.33,2419.93c-10.2-9.78-27.29-14.42-38.14-10.33L190.24,2756.89c-10.84,4.09,2.65,146.89,12.85,156.68L918.57,3600c10.19,9.79,27.29,14.42,38.14,10.33l1271.93-478.83c-37.38-5.66-32.9-144.53-.55-152.93Z"/><path class="cls-47" d="M208.38,2857.2l-1.23.47c-10.86,4.08-11.38,15.34-1.18,25.13l715.47,686.46c10.2,9.79,27.29,14.42,38.15,10.34l1249.09-470.24c-2.8-11.1-4.82-23.09-4.82-23.09l-1242,467.58c-10.84,4.08-27.94-.55-38.13-10.34Z"/><path class="cls-47" d="M208.38,2803.82l-1.23.46c-10.86,4.08-11.38,15.35-1.18,25.14l715.47,686.46c10.2,9.79,27.29,14.42,38.15,10.33l1242.68-468.05a96,96,0,0,1,1.59-25.27l-1242,467.57c-10.84,4.09-27.94-.54-38.13-10.33Z"/><path class="cls-48" d="M1508.53,2282c-10.2-9.78-27.29-14.42-38.14-10.33L198.46,2750.49c-10.85,4.09-11.38,15.35-1.18,25.14l715.48,686.46c10.2,9.79,27.3,14.42,38.15,10.34l1271.92-478.84c10.86-4.08,11.37-15.35,1.18-25.13Z"/><path class="cls-45" d="M199.69,2750l-1.23.46c-10.86,4.08-11.38,15.35-1.18,25.13L912.75,3462.1c10.2,9.78,27.3,14.41,38.15,10.33l1271.94-478.84c10.84-4.08,11.36-15.34,1.16-25.13l-.15-.15L953.14,3446.68c-10.83,4.09-27.93-.55-38.13-10.33Z"/><path class="cls-45" d="M273.82,2756.06l1128.47-380.24-14-11.24Z"/><path class="cls-49" d="M1823.81,2977.18l25-50.08-75.38-59.52L1463.33,2417.3,289.94,2832.65l553.63,545.16Z"/><path class="cls-45" d="M1195,2291.4c-9.21-8.85-24.65-13-34.46-9.34L11.05,2714.79C1.24,2718.48.77,2728.66,10,2737.5l646.59,620.37c9.22,8.84,24.67,13,34.48,9.34l1149.46-432.73c9.8-3.69,10.27-13.87,1.06-22.72Z"/><path class="cls-46" d="M1200.22,2277.88c-9.22-8.84-24.66-13-34.47-9.34L3.62,2582.4C-6.18,2586.09,6,2715.15,15.23,2724l646.59,620.37c9.22,8.84,24.67,13,34.47,9.33L1845.75,2921c-33.78-5.11-29.73-130.61-.49-138.2Z"/><path class="cls-47" d="M20,2673.05l-1.11.42c-9.81,3.69-10.29,13.87-1.07,22.71l646.58,620.37c9.22,8.84,24.67,13,34.48,9.34l1128.82-425c-2.53-10-4.35-20.86-4.35-20.86L700.92,3302.62c-9.8,3.69-25.25-.49-34.46-9.34Z"/><path class="cls-47" d="M20,2624.81l-1.11.41c-9.81,3.69-10.29,13.87-1.07,22.72l646.58,620.37c9.22,8.84,24.67,13,34.48,9.33l1123-423a86.46,86.46,0,0,1,1.44-22.83L700.92,3254.37c-9.8,3.7-25.25-.49-34.46-9.33Z"/><path class="cls-50" d="M1195,2153.22c-9.21-8.84-24.65-13-34.46-9.33L11.05,2576.62c-9.81,3.69-10.28,13.87-1.07,22.71L656.57,3219.7c9.22,8.84,24.67,13,34.48,9.34l1149.46-432.73c9.8-3.7,10.27-13.87,1.06-22.72Z"/><path class="cls-45" d="M12.16,2576.2l-1.11.42c-9.81,3.69-10.28,13.87-1.07,22.71L656.57,3219.7c9.21,8.85,24.66,13,34.47,9.34l1149.47-432.73c9.79-3.69,10.27-13.87,1-22.72l-.14-.13L693.07,3205.77c-9.8,3.69-25.25-.49-34.46-9.34Z"/><path class="cls-45" d="M79.16,2581.64l1074-389.53-13.35-11.52Z"/><polygon class="cls-51" points="1154.12 2275.5 1620.11 2731.83 1300.11 2845.1 834.12 2388.77 1154.12 2275.5"/><path class="cls-52" d="M4208.2,179.44c-9.22-8.84-24.66-13-34.47-9.33L3024.27,602.84c-9.81,3.69-10.28,13.87-1.06,22.71l646.59,620.37c9.21,8.84,24.66,13,34.47,9.34L4853.73,822.53c9.81-3.7,10.27-13.87,1.06-22.72Z"/><path class="cls-53" d="M4226.59,148.85c-9.22-8.84-24.66-13-34.47-9.34L3042.67,572.24c-9.81,3.7-10.29,13.88-1.07,22.72l646.59,620.37c9.22,8.84,24.67,13,34.47,9.33L4872.12,791.93c9.81-3.69,10.28-13.87,1.06-22.71Z"/><path class="cls-54" d="M4231.84,135.34c-9.22-8.84-24.66-13-34.47-9.34L3035.24,439.86c-9.8,3.69,2.39,132.74,11.6,141.59l646.6,620.36c9.21,8.85,24.66,13,34.47,9.34L4877.37,778.42c-33.78-5.11-29.74-130.61-.5-138.2Z"/><path class="cls-55" d="M3051.63,530.51l-1.12.41c-9.81,3.7-10.28,13.87-1.06,22.72L3696,1174c9.22,8.84,24.67,13,34.48,9.34l1128.82-425c-2.53-10-4.36-20.86-4.36-20.86L3732.53,1160.08c-9.79,3.69-25.24-.5-34.46-9.34Z"/><path class="cls-55" d="M3051.63,482.26l-1.12.42c-9.81,3.69-10.28,13.87-1.06,22.72L3696,1125.76c9.22,8.85,24.67,13,34.48,9.34l1123-423a86.65,86.65,0,0,1,1.43-22.83L3732.53,1111.83c-9.79,3.69-25.24-.49-34.46-9.34Z"/><path class="cls-45" d="M3057.86,601.13l-.39-137.43-19.27-24s-32.71,27.12.6,143.93Z"/><path class="cls-27" d="M4226.59,10.68c-9.22-8.84-24.66-13-34.47-9.34L3042.67,434.07c-9.81,3.69-10.29,13.88-1.07,22.72l646.59,620.37c9.22,8.84,24.67,13,34.47,9.33L4872.12,653.76c9.81-3.69,10.28-13.87,1.06-22.71Z"/><path class="cls-53" d="M3043.78,433.66l-1.11.42c-9.82,3.69-10.29,13.87-1.07,22.71l646.58,620.37c9.22,8.84,24.67,13,34.48,9.34L4872.12,653.76c9.8-3.69,10.27-13.86,1.05-22.71l-.13-.14L3724.68,1063.23c-9.79,3.69-25.24-.5-34.46-9.34Z"/><polygon class="cls-51" points="4185.74 132.96 4651.73 589.29 4331.72 702.56 3865.73 246.23 4185.74 132.96"/></g></svg>